<?xml version="1.0" encoding="utf-8"?>
<!-- Generator: Adobe Illustrator 23.0.3, SVG Export Plug-In . SVG Version: 6.00 Build 0)  -->
<svg version="1.1" xmlns="http://www.w3.org/2000/svg" xmlns:xlink="http://www.w3.org/1999/xlink" x="0px" y="0px"
	 viewBox="0 0 252 149" style="enable-background:new 0 0 252 149;" xml:space="preserve">
<style type="text/css">
	.st0{fill:#FFFFFF;}
	.st1{opacity:0.8;fill:url(#SVGID_3_);}
	.st2{opacity:0.75;fill:#0E0733;}
	.st3{fill:#0E0733;}
	.st4{fill:none;stroke:#FFFFFF;stroke-width:2.4152;stroke-linecap:round;stroke-linejoin:round;stroke-miterlimit:10;}
	.st5{fill:#AD0E0E;stroke:#AD0E0E;stroke-width:0.7258;stroke-miterlimit:10;}
	.st6{fill:#FFFFFF;stroke:#FFFFFF;stroke-width:0.1756;stroke-miterlimit:10;}
	.st7{fill:#FFFFFF;stroke:#FFFFFF;stroke-width:0.2515;stroke-miterlimit:10;}
	.st8{fill:#FFFFFF;stroke:#FFFFFF;stroke-width:0.239;stroke-miterlimit:10;}
	.st9{fill:#FFFFFF;stroke:#FFFFFF;stroke-width:0.7561;stroke-miterlimit:10;}
	.st10{fill:#FFFFFF;stroke:#FFFFFF;stroke-width:1.1593;stroke-miterlimit:10;}
	.st11{fill:#FFFFFF;stroke:#FFFFFF;stroke-width:1.2603;stroke-miterlimit:10;}
	.st12{fill:#FFFFFF;stroke:#FFFFFF;stroke-width:2.7067;stroke-miterlimit:10;}
	.st13{opacity:0.7;fill:#AD0E0E;}
	.st14{opacity:0.15;fill:#AD0E0E;}
	.st15{fill:none;stroke:#FFFFFF;stroke-width:0.3246;stroke-miterlimit:10;}
	.st16{fill:none;stroke:#FFFFFF;stroke-width:0.4064;stroke-linecap:round;stroke-miterlimit:10;}
	.st17{fill:#6D6E70;stroke:#6D6E70;stroke-width:1.3996;stroke-miterlimit:10;}
	.st18{fill:#FFFFFF;stroke:#FFFFFF;stroke-width:1.4414;stroke-miterlimit:10;}
	.st19{fill:#A6A8AB;}
	.st20{fill:#020202;}
	.st21{fill:#151515;}
	.st22{fill:#1D1C1C;stroke:#151515;stroke-width:0.2064;stroke-miterlimit:10;}
	.st23{fill:#8E8D8C;}
	.st24{fill:#181818;stroke:#121111;stroke-width:0.2373;stroke-linecap:round;stroke-linejoin:round;stroke-miterlimit:10;}
	.st25{fill:#2A2B2A;stroke:#121111;stroke-width:0.2373;stroke-linecap:round;stroke-linejoin:round;stroke-miterlimit:10;}
	.st26{fill:#1D1D1D;stroke:#121111;stroke-width:0.2752;stroke-miterlimit:10;}
	.st27{fill:#2A2B2A;stroke:#121111;stroke-width:0.2752;stroke-miterlimit:10;}
	.st28{fill:#050505;}
	.st29{fill:#121111;}
	.st30{fill:#1D1D1D;}
	.st31{fill:#15172D;}
	.st32{fill:#282827;stroke:#121111;stroke-width:0.2752;stroke-miterlimit:10;}
	.st33{fill:#232323;}
	.st34{fill:#1B1F39;}
	.st35{fill:#121422;}
	.st36{fill:#0F1018;}
	.st37{fill:#1D1D1D;stroke:#121111;stroke-width:0.2752;stroke-linecap:round;stroke-miterlimit:10;}
	.st38{fill:#383838;stroke:#121111;stroke-width:0.178;stroke-miterlimit:10;}
	.st39{fill:#1D1D1D;stroke:#121111;stroke-width:0.2373;stroke-miterlimit:10;}
	.st40{fill:#353535;stroke:#121111;stroke-width:0.1186;stroke-miterlimit:10;}
	.st41{fill:#121112;}
	.st42{fill:#353535;}
	.st43{fill:#2A2B2A;}
	.st44{fill:#282827;}
	.st45{fill:#2A2B2A;stroke:#121111;stroke-width:0.2373;stroke-miterlimit:10;}
	.st46{fill:#050505;stroke:#121111;stroke-width:0.2373;stroke-miterlimit:10;}
	.st47{fill:#050505;stroke:#121111;stroke-width:0.178;stroke-miterlimit:10;}
	.st48{fill:#232323;stroke:#121111;stroke-width:0.2373;stroke-miterlimit:10;}
	.st49{fill:#161311;stroke:#171412;stroke-width:0.1073;stroke-miterlimit:10;}
	.st50{fill:#282827;stroke:#121111;stroke-width:0.178;stroke-miterlimit:10;}
	.st51{fill:#1B1C1C;}
	.st52{fill:#0B0B0B;}
	.st53{fill:#AAAAAA;}
	.st54{fill:#181818;}
	.st55{fill:#474748;}
	.st56{fill:#49494A;}
	.st57{fill:#575757;}
	.st58{fill:#1D1D1D;stroke:#121111;stroke-width:0.1186;stroke-miterlimit:10;}
	.st59{fill:#232323;stroke:#121111;stroke-width:0.1186;stroke-miterlimit:10;}
	.st60{fill:#181818;stroke:#121111;stroke-width:0.178;stroke-miterlimit:10;}
	.st61{opacity:0.2;}
	.st62{fill:#794632;}
	.st63{fill:#8E5944;}
	.st64{opacity:0.55;}
	.st65{fill:none;stroke:#814E45;stroke-width:0.833;stroke-linecap:round;stroke-miterlimit:10;}
	.st66{fill:#231F20;}
	.st67{fill:#1D1C1C;}
	.st68{fill:#333333;stroke:#1D1C1C;stroke-width:0.2752;stroke-miterlimit:10;}
	.st69{fill:#3E3C3C;}
	.st70{fill:#161616;}
	.st71{fill:#AD0E0E;}
	.st72{fill:#804B48;}
	.st73{fill:#231F20;stroke:#231F20;stroke-width:1.6661;stroke-miterlimit:10;}
	.st74{fill:#AD0E0E;stroke:#AD0E0E;stroke-width:0.891;stroke-miterlimit:10;}
	.st75{fill:#FFFFFF;stroke:#FFFFFF;stroke-width:0.2155;stroke-miterlimit:10;}
	.st76{fill:#FFFFFF;stroke:#FFFFFF;stroke-width:0.3087;stroke-miterlimit:10;}
	.st77{fill:#FFFFFF;stroke:#FFFFFF;stroke-width:0.2935;stroke-miterlimit:10;}
	.st78{fill:#FFFFFF;stroke:#FFFFFF;stroke-width:0.9282;stroke-miterlimit:10;}
	.st79{fill:#FFFFFF;stroke:#FFFFFF;stroke-width:1.4231;stroke-miterlimit:10;}
	.st80{opacity:0.4;}
	.st81{opacity:0.04;clip-path:url(#SVGID_9_);}
	.st82{fill:none;stroke:#231F20;stroke-width:6.8014;stroke-miterlimit:10;}
	.st83{fill:#FFFFFF;stroke:#FFFFFF;stroke-width:0.8356;stroke-miterlimit:10;}
	.st84{fill:none;stroke:#0E0733;stroke-width:0.3699;stroke-miterlimit:10;}
	.st85{fill:none;stroke:#0E0733;stroke-width:0.463;stroke-linecap:round;stroke-miterlimit:10;}
	.st86{fill:#6D6E70;stroke:#6D6E70;stroke-width:1.7958;stroke-miterlimit:10;}
	.st87{fill:#FFFFFF;stroke:#FFFFFF;stroke-width:1.8494;stroke-miterlimit:10;}
	.st88{fill:#1D1C1C;stroke:#151515;stroke-width:0.2648;stroke-miterlimit:10;}
	.st89{fill:#181818;stroke:#121111;stroke-width:0.3044;stroke-linecap:round;stroke-linejoin:round;stroke-miterlimit:10;}
	.st90{fill:#2A2B2A;stroke:#121111;stroke-width:0.3044;stroke-linecap:round;stroke-linejoin:round;stroke-miterlimit:10;}
	.st91{fill:#1D1D1D;stroke:#121111;stroke-width:0.3531;stroke-miterlimit:10;}
	.st92{fill:#2A2B2A;stroke:#121111;stroke-width:0.3531;stroke-miterlimit:10;}
	.st93{fill:#282827;stroke:#121111;stroke-width:0.3531;stroke-miterlimit:10;}
	.st94{fill:#1D1D1D;stroke:#121111;stroke-width:0.3531;stroke-linecap:round;stroke-miterlimit:10;}
	.st95{fill:#383838;stroke:#121111;stroke-width:0.2283;stroke-miterlimit:10;}
	.st96{fill:#1D1D1D;stroke:#121111;stroke-width:0.3044;stroke-miterlimit:10;}
	.st97{fill:#353535;stroke:#121111;stroke-width:0.1522;stroke-miterlimit:10;}
	.st98{fill:#2A2B2A;stroke:#121111;stroke-width:0.3044;stroke-miterlimit:10;}
	.st99{fill:#050505;stroke:#121111;stroke-width:0.3044;stroke-miterlimit:10;}
	.st100{fill:#050505;stroke:#121111;stroke-width:0.2283;stroke-miterlimit:10;}
	.st101{fill:#232323;stroke:#121111;stroke-width:0.3044;stroke-miterlimit:10;}
	.st102{fill:#161311;stroke:#171412;stroke-width:0.1377;stroke-miterlimit:10;}
	.st103{fill:#282827;stroke:#121111;stroke-width:0.2283;stroke-miterlimit:10;}
	.st104{fill:#1D1D1D;stroke:#121111;stroke-width:0.1522;stroke-miterlimit:10;}
	.st105{fill:#232323;stroke:#121111;stroke-width:0.1522;stroke-miterlimit:10;}
	.st106{fill:#181818;stroke:#121111;stroke-width:0.2283;stroke-miterlimit:10;}
	.st107{fill:none;stroke:#814E45;stroke-width:1.0689;stroke-linecap:round;stroke-miterlimit:10;}
	.st108{fill:#333333;stroke:#1D1C1C;stroke-width:0.3531;stroke-miterlimit:10;}
	.st109{fill:#231F20;stroke:#231F20;stroke-width:2.1378;stroke-miterlimit:10;}
	.st110{fill:none;stroke:#0E0733;stroke-width:0.5;stroke-miterlimit:10;}
	.st111{opacity:0.06;fill:#AB1F23;}
	.st112{opacity:0.06;fill:none;stroke:#AB1F23;stroke-miterlimit:10;}
	.st113{opacity:0.25;fill:#231F20;}
	.st114{opacity:0.04;clip-path:url(#SVGID_11_);}
	.st115{fill:#AD0E0E;stroke:#AD0E0E;stroke-width:1.1024;stroke-miterlimit:10;}
	.st116{fill:#FFFFFF;stroke:#FFFFFF;stroke-width:0.2667;stroke-miterlimit:10;}
	.st117{fill:#FFFFFF;stroke:#FFFFFF;stroke-width:0.382;stroke-miterlimit:10;}
	.st118{fill:#FFFFFF;stroke:#FFFFFF;stroke-width:0.3631;stroke-miterlimit:10;}
	.st119{fill:#FFFFFF;stroke:#FFFFFF;stroke-width:1.1485;stroke-miterlimit:10;}
	.st120{fill:#FFFFFF;stroke:#FFFFFF;stroke-width:1.7608;stroke-miterlimit:10;}
	.st121{opacity:0.8;fill:url(#SVGID_14_);}
	.st122{opacity:0.8;fill:url(#SVGID_17_);}
	.st123{opacity:0.8;fill:url(#SVGID_20_);}
	.st124{fill:none;}
	.st125{fill:none;stroke:#0E0733;stroke-width:2;stroke-miterlimit:10;}
	.st126{opacity:0.08;}
	.st127{opacity:0.1;}
	.st128{fill:none;stroke:#848484;stroke-width:0.25;stroke-miterlimit:10;}
	.st129{fill:none;stroke:#FFFFFF;stroke-width:0.4562;stroke-miterlimit:10;}
	.st130{fill:none;stroke:#FFFFFF;stroke-width:0.571;stroke-linecap:round;stroke-miterlimit:10;}
	.st131{fill:#FFFFFF;stroke:#FFFFFF;stroke-miterlimit:10;}
	.st132{fill:none;stroke:#0E0733;stroke-width:0.4427;stroke-miterlimit:10;}
	.st133{fill:none;stroke:#0E0733;stroke-width:0.5541;stroke-linecap:round;stroke-miterlimit:10;}
</style>
<g id="Layer_1">
	<g>
		<path class="st3" d="M165.99,119.91H17.52c-5.72,0-10.36-4.64-10.36-10.36V17.37c0-5.72,4.64-10.36,10.36-10.36h148.47
			c5.72,0,10.36,4.64,10.36,10.36v92.18C176.35,115.27,171.71,119.91,165.99,119.91z"/>
		<path class="st0" d="M169.47,114.61H14.04c-0.74,0-1.34-0.6-1.34-1.34V13.65c0-0.74,0.6-1.34,1.34-1.34h155.42
			c0.74,0,1.34,0.6,1.34,1.34v99.61C170.81,114,170.21,114.61,169.47,114.61z"/>
		<rect x="70.26" y="119.91" class="st3" width="42.98" height="20.03"/>
		<rect x="47.78" y="139.94" class="st3" width="87.95" height="2.33"/>
		<path class="st3" d="M241.5,144.22h-43.12c-1.93,0-3.5-1.57-3.5-3.5v-76.3c0-1.93,1.57-3.5,3.5-3.5h43.12c1.93,0,3.5,1.57,3.5,3.5
			v76.3C245,142.65,243.43,144.22,241.5,144.22z"/>
		<path class="st0" d="M241.07,136.55h-42.26c-0.47,0-0.84-0.38-0.84-0.84V68.03c0-0.47,0.38-0.84,0.84-0.84h42.26
			c0.47,0,0.84,0.38,0.84,0.84v67.68C241.91,136.18,241.53,136.55,241.07,136.55z"/>
		<circle class="st129" cx="219.94" cy="140.59" r="2.6"/>
		<rect x="19.99" y="19.27" class="st3" width="42.3" height="29.17"/>
		<rect x="70.26" y="19.27" class="st3" width="87.42" height="5.83"/>
		<rect x="70.26" y="29.15" class="st3" width="48.04" height="3.5"/>
		<rect x="19.99" y="56.32" class="st3" width="42.3" height="1.46"/>
		<rect x="19.99" y="59.45" class="st3" width="39.82" height="1.46"/>
		<rect x="19.99" y="62.59" class="st3" width="38.31" height="1.46"/>
		<rect x="19.99" y="65.73" class="st3" width="42.3" height="1.46"/>
		<rect x="19.99" y="65.73" class="st3" width="41.23" height="1.46"/>
		<rect x="19.99" y="68.86" class="st3" width="41.23" height="1.46"/>
		<rect x="19.99" y="72" class="st3" width="41.23" height="1.46"/>
		<rect x="19.99" y="75.13" class="st3" width="42.3" height="1.46"/>
		<rect x="19.99" y="78.27" class="st3" width="40.4" height="1.46"/>
		<rect x="19.99" y="81.41" class="st3" width="38.99" height="1.46"/>
		<rect x="19.99" y="84.54" class="st3" width="42.3" height="1.46"/>
		<rect x="19.99" y="87.68" class="st3" width="41.23" height="1.46"/>
		<rect x="19.99" y="90.81" class="st3" width="40.4" height="1.46"/>
		<rect x="19.99" y="93.95" class="st3" width="41.23" height="1.46"/>
		<rect x="19.99" y="97.08" class="st3" width="42.3" height="1.46"/>
		<rect x="19.99" y="100.22" class="st3" width="40.4" height="1.46"/>
		<rect x="19.99" y="103.36" class="st3" width="41.23" height="1.46"/>
		<rect x="19.99" y="106.49" class="st3" width="42.3" height="1.46"/>
		<rect x="68.03" y="56.32" class="st3" width="42.3" height="1.46"/>
		<rect x="68.03" y="59.45" class="st3" width="39.82" height="1.46"/>
		<rect x="70.6" y="37.12" class="st3" width="81.97" height="1.46"/>
		<rect x="68.03" y="62.59" class="st3" width="38.31" height="1.46"/>
		<rect x="68.03" y="65.73" class="st3" width="42.3" height="1.46"/>
		<rect x="68.03" y="65.73" class="st3" width="41.23" height="1.46"/>
		<rect x="68.03" y="68.86" class="st3" width="41.23" height="1.46"/>
		<rect x="68.03" y="72" class="st3" width="41.23" height="1.46"/>
		<rect x="68.03" y="75.13" class="st3" width="42.3" height="1.46"/>
		<rect x="68.03" y="78.27" class="st3" width="40.4" height="1.46"/>
		<rect x="68.03" y="81.41" class="st3" width="38.99" height="1.46"/>
		<rect x="68.03" y="84.54" class="st3" width="42.3" height="1.46"/>
		<rect x="68.03" y="87.68" class="st3" width="41.23" height="1.46"/>
		<rect x="68.03" y="90.81" class="st3" width="40.4" height="1.46"/>
		<rect x="68.03" y="93.95" class="st3" width="41.23" height="1.46"/>
		<rect x="68.03" y="97.08" class="st3" width="42.3" height="1.46"/>
		<rect x="68.03" y="100.22" class="st3" width="40.4" height="1.46"/>
		<rect x="68.03" y="103.36" class="st3" width="41.23" height="1.46"/>
		<rect x="68.03" y="106.49" class="st3" width="42.3" height="1.46"/>
		<rect x="118.3" y="56.32" class="st3" width="42.3" height="1.46"/>
		<rect x="118.3" y="59.45" class="st3" width="39.82" height="1.46"/>
		<rect x="118.3" y="62.59" class="st3" width="38.31" height="1.46"/>
		<rect x="118.3" y="65.73" class="st3" width="42.3" height="1.46"/>
		<rect x="118.3" y="65.73" class="st3" width="41.23" height="1.46"/>
		<rect x="118.3" y="68.86" class="st3" width="41.23" height="1.46"/>
		<rect x="118.3" y="72" class="st3" width="41.23" height="1.46"/>
		<rect x="118.3" y="75.13" class="st3" width="42.3" height="1.46"/>
		<rect x="118.3" y="78.27" class="st3" width="40.4" height="1.46"/>
		<rect x="118.3" y="81.41" class="st3" width="38.99" height="1.46"/>
		<rect x="118.3" y="84.54" class="st3" width="42.3" height="1.46"/>
		<rect x="118.3" y="87.68" class="st3" width="41.23" height="1.46"/>
		<rect x="118.3" y="90.81" class="st3" width="40.4" height="1.46"/>
		<rect x="118.3" y="93.95" class="st3" width="41.23" height="1.46"/>
		<rect x="118.3" y="97.08" class="st3" width="42.3" height="1.46"/>
		<rect x="118.3" y="100.22" class="st3" width="40.4" height="1.46"/>
		<rect x="118.3" y="103.36" class="st3" width="41.23" height="1.46"/>
		<rect x="118.3" y="106.49" class="st3" width="42.3" height="1.46"/>
		<rect x="199.71" y="109.31" class="st3" width="40.19" height="1.13"/>
		<rect x="199.71" y="76.34" class="st3" width="40.19" height="1.13"/>
		<rect x="199.71" y="70.9" class="st3" width="38.1" height="3.47"/>
		<rect x="199.71" y="81.21" class="st3" width="40.19" height="25.76"/>
		<rect x="199.71" y="112.47" class="st3" width="38.26" height="1.13"/>
		<rect x="199.71" y="115.63" class="st3" width="40.19" height="1.13"/>
		<rect x="199.71" y="118.78" class="st3" width="36.35" height="1.13"/>
		<rect x="199.71" y="122.08" class="st3" width="38.65" height="1.13"/>
		<rect x="199.71" y="125.23" class="st3" width="40.19" height="1.13"/>
		<rect x="199.71" y="128.4" class="st3" width="37.17" height="1.13"/>
		<rect x="199.71" y="131.55" class="st3" width="38.65" height="1.13"/>
		<line class="st130" x1="219.07" y1="64.29" x2="228.57" y2="64.29"/>
		<circle class="st0" cx="215.8" cy="64.29" r="0.73"/>
	</g>
</g>
<g id="Layer_2">
</g>
</svg>
