<?xml version="1.0" encoding="utf-8"?>
<!-- Generator: Adobe Illustrator 23.0.3, SVG Export Plug-In . SVG Version: 6.00 Build 0)  -->
<svg version="1.1" id="Layer_1" xmlns="http://www.w3.org/2000/svg" xmlns:xlink="http://www.w3.org/1999/xlink" x="0px" y="0px"
	 viewBox="0 0 258 194" style="enable-background:new 0 0 258 194;" xml:space="preserve">
<style type="text/css">
	.st0{fill:#FFFFFF;}
	.st1{opacity:0.8;fill:#0E0733;}
	.st2{fill:#0E0733;}
	.st3{fill:#FFFFFF;stroke:#FFFFFF;stroke-miterlimit:10;}
	.st4{fill:none;stroke:#0E0733;stroke-width:0.4427;stroke-miterlimit:10;}
	.st5{fill:none;stroke:#0E0733;stroke-width:0.5541;stroke-linecap:round;stroke-miterlimit:10;}
	.st6{fill:#122A51;}
	.st7{opacity:0.04;clip-path:url(#SVGID_4_);}
	.st8{fill:#231F20;stroke:#FFFFFF;stroke-width:1.2317;stroke-miterlimit:10;}
	.st9{fill:#FFFFFF;stroke:#FFFFFF;stroke-width:1.2317;stroke-miterlimit:10;}
	.st10{fill:none;stroke:#FFFFFF;stroke-width:8.0133;stroke-miterlimit:10;}
	.st11{opacity:0.2;}
	.st12{clip-path:url(#SVGID_6_);}
	.st13{fill:#231F20;stroke:#FFFFFF;stroke-width:1.2257;stroke-miterlimit:10;}
	.st14{fill:none;stroke:#122A51;stroke-width:7.9746;stroke-miterlimit:10;}
	.st15{fill:none;stroke:#FFFFFF;stroke-width:7.9746;stroke-miterlimit:10;}
	.st16{opacity:0.7;fill:#122A51;}
	.st17{fill:#C7C8CA;}
	.st18{fill:#58595B;}
	.st19{fill:#6D6E71;}
	.st20{fill:#F1F2F2;}
	.st21{fill:#939598;}
	.st22{fill:#E2E3E4;}
	.st23{fill:none;stroke:#FFFFFF;stroke-width:2.4152;stroke-linecap:round;stroke-linejoin:round;stroke-miterlimit:10;}
	.st24{fill:#575A5E;}
	.st25{fill:#BCBEC0;}
	.st26{fill:#9D9FA2;}
	.st27{opacity:0.7;fill:#AD0E0E;}
	.st28{opacity:0.15;fill:#AD0E0E;}
	.st29{opacity:0.04;clip-path:url(#SVGID_8_);}
	.st30{fill:#231F20;}
	.st31{fill:none;stroke:#231F20;stroke-width:6.4328;stroke-miterlimit:10;}
	.st32{fill:none;}
	.st33{opacity:0.8;fill:#4D4D4F;}
	.st34{opacity:0.75;fill:#C7C8CA;}
	.st35{opacity:0.8;fill:none;stroke:#4D4D4F;stroke-width:0.8942;stroke-miterlimit:10;}
	.st36{fill:#6D6E70;stroke:#6D6E70;stroke-width:2.6104;stroke-miterlimit:10;}
	.st37{fill:#FFFFFF;stroke:#FFFFFF;stroke-width:2.6884;stroke-miterlimit:10;}
	.st38{fill:#6D6E70;stroke:#6D6E70;stroke-width:2.3504;stroke-miterlimit:10;}
	.st39{fill:#FFFFFF;stroke:#FFFFFF;stroke-width:2.2636;stroke-miterlimit:10;}
	.st40{fill:none;stroke:#FFFFFF;stroke-width:0.4427;stroke-miterlimit:10;}
	.st41{fill:#A6A8AB;}
	.st42{fill:none;stroke:#FFFFFF;stroke-width:0.5541;stroke-linecap:round;stroke-miterlimit:10;}
	.st43{fill:none;stroke:#FFFFFF;stroke-width:0.8698;stroke-miterlimit:10;}
	.st44{opacity:0.04;clip-path:url(#SVGID_10_);}
	.st45{fill:#231F20;stroke:#FFFFFF;stroke-miterlimit:10;}
	.st46{fill:none;stroke:#FFFFFF;stroke-width:6.5061;stroke-miterlimit:10;}
	.st47{opacity:0.04;clip-path:url(#SVGID_12_);}
	.st48{opacity:0.04;clip-path:url(#SVGID_14_);}
	.st49{fill:none;stroke:#6D6E71;stroke-miterlimit:10;}
	.st50{fill:none;stroke:#122A51;stroke-miterlimit:10;}
	.st51{fill:#A7A2A9;}
	.st52{fill:#140152;}
	.st53{fill:#AD0E0E;}
	.st54{fill:none;stroke:#0E0733;stroke-miterlimit:10;}
	.st55{opacity:0.04;clip-path:url(#SVGID_18_);}
	.st56{opacity:0.8;fill:none;stroke:#FFFFFF;stroke-width:0.8942;stroke-miterlimit:10;}
	.st57{opacity:0.04;clip-path:url(#SVGID_20_);}
	.st58{fill:#6D6E70;stroke:#6D6E70;stroke-width:1.9895;stroke-miterlimit:10;}
	.st59{fill:#FFFFFF;stroke:#FFFFFF;stroke-width:2.0489;stroke-miterlimit:10;}
	.st60{fill:#020202;}
	.st61{fill:#151515;}
	.st62{fill:#1D1C1C;stroke:#151515;stroke-width:0.2934;stroke-miterlimit:10;}
	.st63{fill:#8E8D8C;}
	.st64{fill:#181818;stroke:#121111;stroke-width:0.3373;stroke-linecap:round;stroke-linejoin:round;stroke-miterlimit:10;}
	.st65{fill:#2A2B2A;stroke:#121111;stroke-width:0.3373;stroke-linecap:round;stroke-linejoin:round;stroke-miterlimit:10;}
	.st66{fill:#1D1D1D;stroke:#121111;stroke-width:0.3912;stroke-miterlimit:10;}
	.st67{fill:#2A2B2A;stroke:#121111;stroke-width:0.3912;stroke-miterlimit:10;}
	.st68{fill:#050505;}
	.st69{fill:#121111;}
	.st70{fill:#1D1D1D;}
	.st71{fill:#15172D;}
	.st72{fill:#282827;stroke:#121111;stroke-width:0.3912;stroke-miterlimit:10;}
	.st73{fill:#232323;}
	.st74{fill:#1B1F39;}
	.st75{fill:#121422;}
	.st76{fill:#0F1018;}
	.st77{fill:#1D1D1D;stroke:#121111;stroke-width:0.3912;stroke-linecap:round;stroke-miterlimit:10;}
	.st78{fill:#383838;stroke:#121111;stroke-width:0.253;stroke-miterlimit:10;}
	.st79{fill:#1D1D1D;stroke:#121111;stroke-width:0.3373;stroke-miterlimit:10;}
	.st80{fill:#353535;stroke:#121111;stroke-width:0.1686;stroke-miterlimit:10;}
	.st81{fill:#121112;}
	.st82{fill:#353535;}
	.st83{fill:#2A2B2A;}
	.st84{fill:#282827;}
	.st85{fill:#2A2B2A;stroke:#121111;stroke-width:0.3373;stroke-miterlimit:10;}
	.st86{fill:#050505;stroke:#121111;stroke-width:0.3373;stroke-miterlimit:10;}
	.st87{fill:#050505;stroke:#121111;stroke-width:0.253;stroke-miterlimit:10;}
	.st88{fill:#232323;stroke:#121111;stroke-width:0.3373;stroke-miterlimit:10;}
	.st89{fill:#161311;stroke:#171412;stroke-width:0.1525;stroke-miterlimit:10;}
	.st90{fill:#282827;stroke:#121111;stroke-width:0.253;stroke-miterlimit:10;}
	.st91{fill:#1B1C1C;}
	.st92{fill:#0B0B0B;}
	.st93{fill:#AAAAAA;}
	.st94{fill:#181818;}
	.st95{fill:#474748;}
	.st96{fill:#49494A;}
	.st97{fill:#575757;}
	.st98{fill:#1D1D1D;stroke:#121111;stroke-width:0.1686;stroke-miterlimit:10;}
	.st99{fill:#232323;stroke:#121111;stroke-width:0.1686;stroke-miterlimit:10;}
	.st100{fill:#181818;stroke:#121111;stroke-width:0.253;stroke-miterlimit:10;}
	.st101{fill:#794632;}
	.st102{fill:#8E5944;}
	.st103{opacity:0.55;}
	.st104{fill:none;stroke:#814E45;stroke-width:1.1842;stroke-linecap:round;stroke-miterlimit:10;}
	.st105{fill:#1D1C1C;}
	.st106{fill:#333333;stroke:#1D1C1C;stroke-width:0.3912;stroke-miterlimit:10;}
	.st107{fill:#3E3C3C;}
	.st108{fill:#161616;}
	.st109{fill:#804B48;}
	.st110{fill:#231F20;stroke:#231F20;stroke-width:2.3684;stroke-miterlimit:10;}
	.st111{fill:#AD0E0E;stroke:#AD0E0E;stroke-miterlimit:10;}
	.st112{fill:#FFFFFF;stroke:#FFFFFF;stroke-width:0.2419;stroke-miterlimit:10;}
	.st113{fill:#FFFFFF;stroke:#FFFFFF;stroke-width:0.3465;stroke-miterlimit:10;}
	.st114{fill:#FFFFFF;stroke:#FFFFFF;stroke-width:0.3294;stroke-miterlimit:10;}
	.st115{fill:#FFFFFF;stroke:#FFFFFF;stroke-width:1.0418;stroke-miterlimit:10;}
	.st116{fill:#FFFFFF;stroke:#FFFFFF;stroke-width:1.5972;stroke-miterlimit:10;}
	.st117{fill:none;stroke:#0E0733;stroke-width:6;stroke-miterlimit:10;}
	.st118{fill:none;stroke:#0E0733;stroke-width:6.7456;stroke-miterlimit:10;}
	.st119{fill:#FFFFFF;stroke:#FFFFFF;stroke-width:6.7456;stroke-miterlimit:10;}
	.st120{fill:none;stroke:#0E0733;stroke-width:10;stroke-miterlimit:10;}
	.st121{opacity:0.25;}
	.st122{clip-path:url(#SVGID_22_);}
	.st123{opacity:0.1;fill:#AB1F23;}
	.st124{opacity:0.2;fill:#AB1F23;}
	.st125{fill:none;stroke:#0E0733;stroke-width:7.746;stroke-miterlimit:10;}
	.st126{fill:#FFFFFF;stroke:#FFFFFF;stroke-width:4.2927;stroke-miterlimit:10;}
	.st127{fill:#FFFFFF;stroke:#FFFFFF;stroke-width:37.5013;stroke-miterlimit:10;}
	.st128{fill:#FFFFFF;stroke:#FFFFFF;stroke-width:8.3809;stroke-miterlimit:10;}
	.st129{fill:#FFFFFF;stroke:#FFFFFF;stroke-width:17.1552;stroke-miterlimit:10;}
	.st130{fill:#FFFFFF;stroke:#FFFFFF;stroke-width:18;stroke-miterlimit:10;}
	.st131{fill:none;stroke:#FFFFFF;stroke-width:2;stroke-miterlimit:10;}
	.st132{opacity:0.75;fill:#FFFFFF;}
	.st133{opacity:0.04;clip-path:url(#SVGID_28_);}
	.st134{fill:#FFFFFF;stroke:#FFFFFF;stroke-width:1.2603;stroke-miterlimit:10;}
	.st135{fill:#FFFFFF;stroke:#FFFFFF;stroke-width:2.7067;stroke-miterlimit:10;}
	.st136{fill:#FFFFFF;stroke:#FFFFFF;stroke-width:1.8334;stroke-miterlimit:10;}
	.st137{fill:none;stroke:#FFFFFF;stroke-width:3.9376;stroke-miterlimit:10;}
	.st138{clip-path:url(#SVGID_32_);}
	.st139{fill:none;stroke:#122A51;stroke-width:0.4427;stroke-miterlimit:10;}
	.st140{fill:none;stroke:#122A51;stroke-width:0.5541;stroke-linecap:round;stroke-miterlimit:10;}
	.st141{opacity:0.04;clip-path:url(#SVGID_34_);}
</style>
<g>
	<defs>
		
			<rect id="SVGID_3_" x="-512" y="-1272.26" transform="matrix(-1 -4.489044e-11 4.489044e-11 -1 -386 -1705.7606)" width="638" height="838.76"/>
	</defs>
	<clipPath id="SVGID_2_">
		<use xlink:href="#SVGID_3_"  style="overflow:visible;"/>
	</clipPath>
	<g style="opacity:0.04;clip-path:url(#SVGID_2_);">
		<polyline class="st10" points="-1022.85,1013 -779.11,845.51 -619.68,903.6 -483.43,835.6 -373.48,714.13 -350.61,574.6 
			-249.96,559.79 -109.23,634.18 28.27,806.78 199.87,933.04 214.54,808.99 -1.21,487.36 -84.14,394.81 -195.5,189.89 
			-174.54,-56.47 -248.3,-201.5 -260.68,-321.75 -222.2,-443.17 -127.72,-502.45 -20.41,-633.99 35.29,-773.57 -71.05,-934.56 
			-135.99,-1086.01 -281.32,-1148.5 -405.95,-1195.76 -582.56,-1191.13 -765.56,-1192.22 -988.75,-1105.65 -1192.41,-929.71 
			-1301.33,-842.07 -1400.11,-737.96 -1428.22,-609.23 -1547.81,-556.98 -1630.07,-415.37 -1646.37,-161.55 -1670.92,118.12 
			-1730.96,312.95 -1639.82,455.38 -1654.05,590.43 -1578.51,678.45 		"/>
	</g>
</g>
<g class="st11">
	<defs>
		<rect id="SVGID_5_" x="-511" y="-2996.5" class="st11" width="1366" height="1222"/>
	</defs>
	<clipPath id="SVGID_4_">
		<use xlink:href="#SVGID_5_"  style="overflow:visible;"/>
	</clipPath>
	<g style="clip-path:url(#SVGID_4_);">
		<polyline class="st14" points="-57.26,76.4 185.3,-90.28 343.96,-32.47 479.55,-100.15 588.97,-221.02 611.72,-359.88 
			711.89,-374.62 851.94,-300.59 988.77,-128.83 1159.54,-3.18 1174.15,-126.62 959.44,-446.7 876.91,-538.8 766.08,-742.73 
			786.95,-987.9 713.55,-1132.23 701.22,-1251.9 739.52,-1372.73 833.54,-1431.73 940.33,-1562.63 995.76,-1701.53 889.93,-1861.75 
			825.31,-2012.46 680.68,-2074.65 556.65,-2121.69 380.9,-2117.08 198.78,-2118.16 -23.33,-2032.01 -226,-1856.92 -334.39,-1769.7 
			-432.69,-1666.1 -460.67,-1537.98 -579.68,-1485.99 -661.55,-1345.06 -677.76,-1092.48 -702.2,-814.15 -761.95,-620.27 
			-671.25,-478.53 -685.41,-344.13 -610.24,-256.53 		"/>
	</g>
</g>
<g>
	<g>
		<g>
			<path class="st58" d="M238.39,109.78l-105.35-5.34c-4.06-0.21-7.35-3.5-7.35-7.36V34.96c0-3.86,3.29-7.21,7.35-7.49l105.35-7.32
				c4.06-0.28,7.35,3.21,7.35,7.8v73.9C245.74,106.43,242.45,109.98,238.39,109.78z"/>
			<path class="st59" d="M239.46,105.61l-107.5-4.84c-1.3-0.06-2.35-1.11-2.35-2.35V33.55c0-1.24,1.05-2.31,2.35-2.39l107.5-6.86
				c1.3-0.08,2.35,1.03,2.35,2.49v76.3C241.81,104.54,240.76,105.67,239.46,105.61z"/>
			<polygon class="st58" points="200.96,122.99 170.46,120.79 170.46,106.34 200.96,107.88 			"/>
			<polygon class="st58" points="216.92,125.93 154.51,121.29 154.51,119.64 216.92,124.13 			"/>
			<polygon class="st41" points="164.81,54.91 134.79,55.67 134.79,35.73 164.81,34.04 			"/>
			<polygon class="st41" points="232.49,34.81 170.46,37.93 170.46,33.72 232.49,30.22 			"/>
			<polygon class="st41" points="204.55,41.93 170.46,43.37 170.46,40.85 204.55,39.28 			"/>
			<polygon class="st41" points="164.81,60.55 134.79,61.06 134.79,62.06 164.81,61.59 			"/>
			<polygon class="st41" points="163.05,62.82 134.79,63.2 134.79,64.2 163.05,63.86 			"/>
			<polygon class="st41" points="161.98,65.06 134.79,65.35 134.79,66.34 161.98,66.1 			"/>
			<polygon class="st41" points="164.81,67.28 134.79,67.49 134.79,68.49 164.81,68.32 			"/>
			<polygon class="st41" points="164.05,67.28 134.79,67.49 134.79,68.49 164.05,68.33 			"/>
			<polygon class="st41" points="164.05,69.53 134.79,69.63 134.79,70.63 164.05,70.57 			"/>
			<polygon class="st41" points="164.05,71.77 134.79,71.78 134.79,72.77 164.05,72.81 			"/>
			<polygon class="st41" points="164.81,74.01 134.79,73.92 134.79,74.92 164.81,75.05 			"/>
			<polygon class="st41" points="163.46,76.25 134.79,76.06 134.79,77.06 163.46,77.29 			"/>
			<polygon class="st41" points="162.46,78.48 134.79,78.21 134.79,79.21 162.46,79.52 			"/>
			<polygon class="st41" points="164.81,80.74 134.79,80.35 134.79,81.35 164.81,81.79 			"/>
			<polygon class="st41" points="164.05,82.97 134.79,82.5 134.79,83.49 164.05,84.02 			"/>
			<polygon class="st41" points="163.46,85.2 134.79,84.64 134.79,85.64 163.46,86.25 			"/>
			<polygon class="st41" points="164.05,87.46 134.79,86.78 134.79,87.78 164.05,88.5 			"/>
			<polygon class="st41" points="164.81,89.72 134.79,88.93 134.79,89.92 164.81,90.76 			"/>
			<polygon class="st41" points="163.46,91.92 134.79,91.07 134.79,92.07 163.46,92.96 			"/>
			<polygon class="st41" points="164.05,94.18 134.79,93.21 134.79,94.21 164.05,95.22 			"/>
			<polygon class="st41" points="164.81,96.45 134.79,95.36 134.79,96.36 164.81,97.49 			"/>
			<polygon class="st41" points="198.89,59.97 168.88,60.48 168.88,61.53 198.89,61.06 			"/>
			<polygon class="st41" points="197.13,62.35 168.88,62.74 168.88,63.79 197.13,63.44 			"/>
			<polygon class="st41" points="232.49,45.06 170.71,47.3 170.71,48.36 232.49,46.21 			"/>
			<polygon class="st41" points="228.87,47.65 170.71,49.57 170.71,50.62 228.87,48.79 			"/>
			<polygon class="st41" points="196.06,64.71 168.88,64.99 168.88,66.04 196.06,65.8 			"/>
			<polygon class="st41" points="198.89,67.04 168.88,67.25 168.88,68.3 198.89,68.14 			"/>
			<polygon class="st41" points="198.13,67.05 168.88,67.25 168.88,68.3 198.13,68.14 			"/>
			<polygon class="st41" points="198.13,69.4 168.88,69.51 168.88,70.56 198.13,70.5 			"/>
			<polygon class="st41" points="198.13,71.76 168.88,71.77 168.88,72.82 198.13,72.85 			"/>
			<polygon class="st41" points="198.89,74.11 168.88,74.02 168.88,75.07 198.89,75.21 			"/>
			<polygon class="st41" points="197.55,76.46 168.88,76.28 168.88,77.33 197.55,77.56 			"/>
			<polygon class="st41" points="196.55,78.81 168.88,78.54 168.88,79.59 196.55,79.9 			"/>
			<polygon class="st41" points="198.89,81.19 168.88,80.8 168.88,81.85 198.89,82.28 			"/>
			<polygon class="st41" points="198.13,83.53 168.88,83.05 168.88,84.1 198.13,84.63 			"/>
			<polygon class="st41" points="197.55,85.88 168.88,85.31 168.88,86.36 197.55,86.97 			"/>
			<polygon class="st41" points="198.13,88.24 168.88,87.57 168.88,88.62 198.13,89.34 			"/>
			<polygon class="st41" points="198.89,90.62 168.88,89.83 168.88,90.88 198.89,91.71 			"/>
			<polygon class="st41" points="197.55,92.93 168.88,92.08 168.88,93.13 197.55,94.03 			"/>
			<polygon class="st41" points="198.13,95.31 168.88,94.34 168.88,95.39 198.13,96.4 			"/>
			<polygon class="st41" points="198.89,97.69 168.88,96.6 168.88,97.65 198.89,98.79 			"/>
			<polygon class="st41" points="234.56,59.36 204.55,59.87 204.55,60.98 234.56,60.51 			"/>
			<polygon class="st41" points="232.81,61.86 204.55,62.25 204.55,63.35 232.81,63.01 			"/>
			<polygon class="st41" points="231.74,64.34 204.55,64.62 204.55,65.73 231.74,65.49 			"/>
			<polygon class="st41" points="234.56,66.79 204.55,67 204.55,68.11 234.56,67.94 			"/>
			<polygon class="st41" points="233.81,66.8 204.55,67 204.55,68.11 233.81,67.95 			"/>
			<polygon class="st41" points="233.81,69.27 204.55,69.38 204.55,70.48 233.81,70.42 			"/>
			<polygon class="st41" points="233.81,71.74 204.55,71.75 204.55,72.86 233.81,72.9 			"/>
			<polygon class="st41" points="234.56,74.22 204.55,74.13 204.55,75.24 234.56,75.37 			"/>
			<polygon class="st41" points="233.22,76.69 204.55,76.51 204.55,77.61 233.22,77.84 			"/>
			<polygon class="st41" points="232.22,79.15 204.55,78.88 204.55,79.99 232.22,80.3 			"/>
			<polygon class="st41" points="234.56,81.65 204.55,81.26 204.55,82.37 234.56,82.8 			"/>
			<polygon class="st41" points="233.81,84.11 204.55,83.64 204.55,84.74 233.81,85.27 			"/>
			<polygon class="st41" points="233.22,86.58 204.55,86.01 204.55,87.12 233.22,87.73 			"/>
			<polygon class="st41" points="233.81,89.06 204.55,88.39 204.55,89.49 233.81,90.21 			"/>
			<polygon class="st41" points="234.56,91.56 204.55,90.77 204.55,91.87 234.56,92.71 			"/>
			<polygon class="st41" points="233.22,93.99 204.55,93.14 204.55,94.25 233.22,95.14 			"/>
			<polygon class="st41" points="233.81,96.49 204.55,95.52 204.55,96.62 233.81,97.64 			"/>
			<polygon class="st41" points="234.56,98.99 204.55,97.9 204.55,99 234.56,100.14 			"/>
		</g>
	</g>
	<g>
		<path class="st60" d="M59.38,137.78c0.73,0.17,1.19,0.95,1.2,1.69c0.01,0.75-0.34,1.45-0.77,2.06c-0.47,0.66-1.04,1.25-1.61,1.83
			c-2.79,2.85-17.98,6.88-20.3,8.3c-0.18,0.11-0.29,0.3-0.48,0.4c-0.29-0.59,0.21-0.65,0.49-1.25s0.72-1.1,1.15-1.6
			c2.07-2.34,15.62-5.09,17.68-7.43c0.55-0.63,1.11-1.26,1.59-1.94c0.42-0.61,0.79-1.26,1.08-1.94"/>
		<g>
			<path class="st61" d="M59.3,137.91c4.15,1.96-2.54,6.4-4.31,7.23c-2.31,1.08-4.75,1.93-7.16,2.77c-2.21,0.77-4.44,1.49-6.65,2.27
				c-0.35,0.12-3.23,1.44-3.42,1.27c-0.41-0.38,1.69-2.43,2.26-2.79c0.89-0.57,1.92-0.93,2.89-1.3c2.29-0.87,4.64-1.58,6.97-2.35
				c4.37-1.46,7.58-2.61,9.66-7.03c0.08-0.17-0.17-0.32-0.25-0.15c-1.42,3.03-3.17,4.57-6.15,5.72c-2.54,0.98-5.17,1.75-7.75,2.63
				c-1.85,0.62-4.02,1.2-5.65,2.32c-1.03,0.7-2.64,2.31-2.45,3.61c0.02,0.12,0.17,0.13,0.25,0.06c1.81-1.5,4.68-2.03,6.85-2.77
				c2.98-1.01,5.96-2,8.87-3.19c1.75-0.72,3.63-1.45,5.05-2.74c1.45-1.32,3.92-4.51,1.15-5.81
				C59.28,137.58,59.13,137.83,59.3,137.91L59.3,137.91z"/>
		</g>
	</g>
	<path class="st62" d="M72.13,182.85c3.25-3.4,17.98-7.21,21.23-10.61c0.43-0.45,0.87-0.93,0.99-1.54c0.08-0.41,0-0.84-0.22-1.19
		c-0.19-0.3-0.48-0.53-0.75-0.76c-3.54-2.85-7.08-5.69-10.62-8.54c-0.63-0.51-1.27-1.02-1.94-1.47c-0.24-0.16-0.45-0.39-0.72-0.51
		c-0.37-0.17-0.86-0.22-1.27-0.27c-0.35-0.04-0.7-0.05-1.04,0c-0.46,0.07-0.89,0.24-1.32,0.4c-2.98,1.15-6.01,2.2-9.07,3.12"/>
	<g>
		<path class="st63" d="M37.62,151.04c0.86-0.82,1.87-1.38,2.88-1.91c1.02-0.52,2.06-0.99,3.11-1.43c2.1-0.89,4.22-1.7,6.33-2.54
			c2.11-0.84,4.22-1.68,6.24-2.72c1-0.53,2-1.09,2.81-1.88c0.41-0.39,0.78-0.84,0.95-1.38c0.16-0.54,0-1.15-0.36-1.59
			c0.37,0.43,0.55,1.04,0.4,1.6c-0.17,0.55-0.53,1.02-0.93,1.42c-0.81,0.82-1.81,1.39-2.81,1.94c-2.01,1.07-4.12,1.93-6.22,2.8
			c-2.1,0.86-4.22,1.7-6.29,2.62c-1.04,0.46-2.07,0.93-3.07,1.46c-0.99,0.54-1.98,1.11-2.76,1.88L37.62,151.04z"/>
	</g>
	<path class="st64" d="M116.9,149.85c5.46,2.82,11.67,4.03,17,7.1c0.97,0.56,1.91,1.19,2.76,1.92c0.42,0.36,0.82,0.76,1.08,1.24
		c0.14,0.26,0.25,0.55,0.44,0.79c0.21,0.25,0.5,0.42,0.74,0.64c0.35,0.32,1.3,1.59,0.58,1.86c-0.67,0.25-1.84-0.54-2.4-0.8
		c-3.62-1.67-7.24-3.36-10.81-5.16c-1.59-0.81-3.16-1.68-4.78-2.42c-1.41-0.65-2.72-1.35-4.07-2.11c-0.12-0.07-0.24-0.14-0.32-0.25
		c-0.07-0.1-0.1-0.22-0.13-0.34c-0.18-0.83-0.09-1.6-0.08-2.45"/>
	<path class="st65" d="M139.24,161.77c3.57-1.51,6.37-3.06,9.68-5.06c-0.12-0.63-0.71-1.07-1.33-1.23c-0.62-0.16-1.26-0.1-1.9-0.08
		c-2.88,0.09-5.7-0.72-8.43-1.62c-2.94-0.96-5.97-2.1-8.06-4.38c-1-1.1-1.74-2.4-2.57-3.63c-0.1-0.15-0.21-0.3-0.36-0.39
		c-0.45-0.25-0.97,0.18-1.32,0.56c-2.1,2.24-4.97,2.93-8.06,3.83c0.05,0.41,0.46,0.67,0.83,0.86c7.12,3.71,14.32,7.43,21.44,11.14"
		/>
	<path class="st66" d="M76.22,156.75c0.46,5.92-1.17,11.87-0.56,17.78c0.01,0.05,0.01,0.11,0.05,0.15c0.04,0.05,0.1,0.06,0.16,0.07
		c0.52,0.1,1.04,0.16,1.56,0.2c0.13,0.01,0.27,0.01,0.37-0.06c0.13-0.09,0.16-0.26,0.18-0.41c0.94-6.02,1.45-12.1,1.52-18.19
		c0-0.08-0.01-0.18-0.08-0.23c-0.06-0.04-0.13-0.02-0.2,0c-1.05,0.29-2.1,0.58-3.15,0.87"/>
	<path class="st67" d="M78.51,157.21c-0.21,0.85-0.23,1.74-0.24,2.62c-0.08,4.94-0.17,9.88-0.25,14.82c0,0.03,0,0.06,0.02,0.09
		c0.04,0.06,0.13,0.04,0.2,0.01c0.6-0.28,1.25-0.61,1.54-1.21c0.18-0.38,0.19-0.81,0.2-1.23c0.09-4.98,0.03-9.97,0.4-14.94
		c0.01-0.08,0.01-0.16-0.03-0.22c-0.06-0.09-0.2-0.1-0.31-0.09c-0.56,0.04-1.12,0.16-1.65,0.36"/>
	<g>
		<path class="st66" d="M76.94,157.76c0.02-1.06,0.07-11.49-0.03-12.55c0-0.05-0.01-0.11-0.04-0.15c-0.05-0.07-0.16-0.08-0.25-0.09
			c-1.04-0.04-2.07-0.08-3.11-0.13"/>
		<path class="st66" d="M73.71,144.94c-0.09,3.32-0.08,6.64,0.04,9.95c0.01,0.26,0.02,0.53,0.13,0.77c0.1,0.23,0.28,0.41,0.47,0.58
			c0.78,0.68,1.75,1.11,2.7,1.53c0.04,0.02,0.08,0.03,0.12,0.03"/>
	</g>
	<g>
		<path class="st67" d="M81.27,156.76c0.39-0.16,0.51-0.65,0.55-1.06c0.14-1.5-0.07-3.01-0.21-4.52c-0.2-2.05-0.27-4.1-0.22-6.16
			c0-0.08,0-0.16-0.03-0.23c-0.07-0.13-0.25-0.15-0.4-0.16c-1.23-0.05-2.47-0.07-3.7-0.07c-0.06,0-0.13,0-0.19,0.04
			c-0.09,0.06-0.09,0.19-0.08,0.3c0.29,4.34,0.28,8.7-0.03,13.04"/>
		<path class="st67" d="M77.13,157.83c1.01,0,3.23-0.63,4.14-1.07"/>
	</g>
	<g>
		<path class="st68" d="M54.17,130.71c-0.49,0.65-1.76,1.36-2.24,2.02c-0.48,0.64-0.97,1.31-1.14,2.1
			c-0.24,1.15,0.27,2.35,1.06,3.22c0.79,0.87,1.83,1.46,2.85,2.04c1.02,0.58,2.05,1.16,3.16,1.52c1.43,0.46,2.96,0.52,4.47,0.55
			c0.91,0.02,1.83,0.02,2.74-0.11c0.48-0.07,0.99-0.19,1.31-0.56c0.29-0.33,0.37-0.81,0.62-1.17c0.21-0.3,0.53-0.51,0.83-0.7
			c1.62-1.03,3.28-1.99,4.98-2.89c0.14-0.07,0.28-0.15,0.38-0.27c0.09-0.11,0.13-0.25,0.16-0.39c0.08-0.38,0.47-0.76,0.47-1.15
			c0-1.53-0.01-3.07-0.01-4.6c0-0.15-0.01-0.33-0.12-0.44c-0.09-0.09-0.23-0.12-0.36-0.13c-0.77-0.07-1.94,0.12-2.69,0.32
			c-2.24,0.6-4.44,1.35-6.72,1.77c-1.43,0.26-2.92,0.39-4.24,0.99c-0.51,0.23-1,0.58-1.56,0.61c-1.08,0.06-2.03-0.81-3.06-1.2
			C54.36,131.96,54.3,131.46,54.17,130.71"/>
		<g>
			<path class="st69" d="M54.03,130.57c-1.4,1.49-3.55,2.6-3.49,4.97c0.06,2.19,2.07,3.55,3.76,4.54c2.9,1.68,5.59,2.35,8.95,2.27
				c1.12-0.03,2.31,0.02,3.23-0.7c0.2-0.16,0.23-0.46,0.39-0.64c0.88-0.95,1.57-1.56,2.7-2.24c1.81-1.08,4.04-1.54,4.45-3.87
				c0.17-1.01,0.41-3.8-0.02-4.65c-0.32-0.63,0.02-0.44-0.62-0.7c-0.68-0.28-2.12,0.16-2.79,0.32c-1.69,0.39-3.33,0.99-5.02,1.4
				c-1.84,0.44-3.7,0.74-5.53,1.2c-1.78,0.45-5.21,0.71-5.68-1.81c-0.05-0.25-0.42-0.14-0.38,0.1c0.27,1.44,0.87,1.61,2.2,2.24
				c1.45,0.69,2.11,0.58,3.61,0.02c2.56-0.95,5.35-1.2,7.98-1.95c1.18-0.33,2.35-0.75,3.55-0.98c2.31-0.44,2.43,1.55,2.3,3.42
				c-0.11,1.47-0.18,2.42-1.33,3.25c-1.14,0.83-2.54,1.41-3.74,2.16c-0.63,0.4-1.15,0.79-1.7,1.26c-0.93,0.79,0.55,0.21-1.5,1.18
				c-1.14,0.54-1.82,0.6-3.01,0.58c-3.14-0.05-5.8-0.91-8.44-2.57c-2.18-1.37-3.56-3.25-2.26-5.9c0.54-1.11,1.85-1.75,2.68-2.63
				C54.48,130.67,54.21,130.39,54.03,130.57L54.03,130.57z"/>
		</g>
	</g>
	<g>
		<path class="st70" d="M73.91,145.6c1.09,0.62,2.4,0.67,3.62,0.56c0.37-0.03,0.72-0.07,0.93-0.41c0.29-0.49,0.36-1.13,0.62-1.64
			c0.22-0.43,0.48-0.84,0.67-1.29c0.26-0.64,0.35-1.35,0.25-2.04c-0.02-0.15-0.05-0.3-0.14-0.42c-0.24-0.35-0.77-0.32-1.19-0.23
			c-1.49,0.3-3.07,0.72-4.51,0.2c-0.39-0.14-0.76-0.35-1.12-0.56c-0.4-0.23-0.81-0.46-1.21-0.7c-0.78-0.45-2.06-1.29-2.9-0.65
			c-0.88,0.67-1.72,1.4-2.52,2.17c-0.05,0.05-0.11,0.11-0.11,0.19c0.01,0.08,0.08,0.14,0.15,0.18c2.29,1.37,4.62,2.68,6.8,4.22
			C73.47,145.32,73.68,145.47,73.91,145.6z"/>
		<g>
			<path class="st69" d="M73.81,145.76c1.61,0.73,4.06,1.31,5.05-0.45c0.52-0.93,2.16-4,1.11-5.11c-0.6-0.63-1.57-0.18-2.26-0.08
				c-1.97,0.28-3.46,0.11-5.18-0.88c-0.56-0.32-1.12-0.73-1.72-0.96c-1.79-0.68-3.78,0.79-4.67,2.39c-0.04,0.08-0.03,0.17,0.03,0.24
				c0.77,0.88,2.25,1.42,3.26,2.03C70.91,143.84,72.35,144.8,73.81,145.76c0.21,0.14,0.41-0.2,0.2-0.34
				c-1.89-1.25-4.17-2.32-5.92-3.74c-0.48-0.39-1.23-0.69-0.94-1.54c0.08-0.24,1.02-0.99,1.26-1.08c1.93-0.8,3.24,0.23,4.8,1.02
				c1.5,0.76,2.55,0.4,4.14,0.5c0.53-0.19,1.02-0.05,1.47,0.4c1.08,0.11,1.32,0.58,0.72,1.43c-0.08,0.56-0.35,1.13-0.65,1.61
				c-1.23,1.99-2.68,2.41-4.89,1.4C73.78,145.32,73.58,145.66,73.81,145.76z"/>
		</g>
	</g>
	<g>
		<path class="st71" d="M68.02,124.72c-0.53,0.8-1.5,1.17-2.43,1.42c-2.05,0.55-4.2,0.67-6.27,1.14s-4.16,1.39-5.41,3.11
			c-0.06,0.08-0.11,0.16-0.13,0.25c-0.04,0.2,0.1,0.39,0.25,0.54c0.31,0.29,0.69,0.49,1.06,0.7c0.76,0.41,1.52,0.82,2.29,1.23
			c0.39,0.21,0.85,0.43,1.27,0.29c0.2-0.07,0.37-0.21,0.54-0.33c1.29-0.95,2.93-1.24,4.5-1.53c3.14-0.59,6.25-1.32,9.32-2.2
			c0.33-0.1,0.71-0.23,0.84-0.55c0.13-0.31-0.02-0.66-0.21-0.93c-0.37-0.51-0.89-0.88-1.43-1.21
			C70.8,125.78,69.66,125.03,68.02,124.72"/>
		<g>
			<path class="st69" d="M67.88,124.58c-2.14,2.36-6.44,1.87-9.3,2.69c-1.36,0.39-4.31,1.42-4.8,2.98
				c-0.18,0.56-0.19,0.58,0.16,1.09c0.64,0.95,3.55,2.44,4.77,2.24c0.2-0.03,0.4-0.28,0.59-0.35c0.99-0.4,1.81-0.92,2.88-1.19
				c1.44-0.37,2.94-0.57,4.4-0.89c1.56-0.34,3.11-0.71,4.65-1.12c0.66-0.17,1.89-0.29,2.41-0.74c2.24-1.94-4.39-4.48-5.56-4.76
				c-0.24-0.06-0.35,0.32-0.1,0.38c1.19,0.29,4.45,1.37,5.13,2.62c1.14,2.1-3.58,2.55-4.76,2.83c-1.82,0.43-3.65,0.75-5.47,1.14
				c-1.47,0.31-3.17,1.38-4.57,1.42c-1.53,0.05-4.56-1.38-3.54-3.17c0.8-1.41,3.62-2.06,5.07-2.36c2.69-0.57,6.34-0.32,8.34-2.52
				C68.33,124.67,68.05,124.39,67.88,124.58L67.88,124.58z"/>
		</g>
	</g>
	<path class="st72" d="M80.26,148.01c-0.34,0.04-0.68,0.06-1.03,0.04c-0.23-0.01-0.49-0.06-0.58-0.27
		c-0.03-0.07-0.04-0.04-0.05-0.11c-0.1-0.36-0.49-0.54-0.76-0.8c-0.36-0.34-0.52-0.88-0.42-1.37c0.09-0.39,0.33-0.73,0.39-1.13
		c0.11-0.69-0.36-1.41-0.15-2.08c0.07-0.24,0.24-0.46,0.45-0.6c0.16-0.11,0.36-0.17,0.51-0.29c0.46-0.36,0.43-1.13,0.9-1.48
		c0.48-0.36,1.18-0.09,1.74-0.28c0.26-0.09,0.49-0.28,0.76-0.36c0.38-0.11,0.8,0.05,1.12,0.27c0.33,0.23,0.8,0.57,1.1,0.82"/>
	<path class="st67" d="M69.44,137.93c3.08-0.92,5.72-1.93,8.67-3.21c0.17-0.08,0.35-0.15,0.54-0.17c0.45-0.06,0.88,0.21,1.25,0.48
		c0.82,0.6,1.96,1.19,2.69,1.89c0.2,0.19,0.4,0.4,0.43,0.67c0.04,0.34-0.21,0.64-0.47,0.86c-0.88,0.75-2.02,1.14-3.13,1.48
		c-0.62,0.19-1.24,0.37-1.86,0.55c-0.55,0.16-1.11,0.31-1.68,0.35c-0.93,0.07-1.86-0.15-2.72-0.5s-1.66-0.83-2.46-1.31
		c-0.52-0.31-1.04-0.63-1.56-0.94"/>
	<g>
		<g>
			<path class="st69" d="M73.07,129.02c0.25,0,0.25-0.39,0-0.39C72.81,128.62,72.81,129.02,73.07,129.02L73.07,129.02z"/>
		</g>
	</g>
	<g>
		<path class="st73" d="M75.94,125.96c0.31,3.85,0.62,7.7,0.8,11.56c0,0.06,0.01,0.12,0.05,0.16c0.03,0.03,0.08,0.04,0.13,0.05
			c0.63,0.09,1.29-0.06,1.82-0.4c0.09-0.06,0.19-0.13,0.24-0.23c0.06-0.11,0.07-0.25,0.08-0.38c0.05-1.32-0.01-2.65-0.17-3.96
			c-0.04-0.34-0.09-0.69-0.12-1.03c-0.04-0.53-0.03-1.06-0.02-1.59c0.01-1.05-0.02-2.09-0.09-3.14c-0.03-0.5-0.07-1.01-0.21-1.5
			c-0.01-0.05-0.03-0.09-0.06-0.13c-0.06-0.05-0.15-0.04-0.23-0.02c-0.7,0.14-1.43,0.2-2.14,0.18"/>
		<g>
			<path class="st69" d="M75.74,125.96c0.18,2.25,0.36,4.49,0.52,6.74c0.06,0.94-0.28,4.37,0.34,5.03c0.56,0.6,2.17,0.06,2.56-0.56
				c0.56-0.9,0.07-3.03-0.03-4.02c-0.16-1.66-0.15-3.31-0.22-4.98c-0.12-3.35,0.11-2.85-2.9-2.84c-0.25,0-0.25,0.39,0,0.39
				c1.29,0,1.91-0.51,2.45,1.27c0.19,0.62,0.08,1.71,0.09,2.35c0.02,1.69,0.19,3.31,0.29,4.98c0.03,0.53,0.04,1.06,0.04,1.59
				c-0.66,0.21-1.33,0.42-1.99,0.63c-0.23-0.1-0.21-3.47-0.24-3.85c-0.15-2.25-0.34-4.49-0.52-6.74
				C76.12,125.71,75.72,125.71,75.74,125.96L75.74,125.96z"/>
		</g>
	</g>
	<g>
		<path class="st68" d="M73.7,125.39c0.22,3.95,0.54,7.89,0.99,11.82c0.01,0.13,0.03,0.26,0.08,0.38c0.13,0.32,0.49,0.51,0.84,0.53
			c0.35,0.02,0.69-0.08,1.02-0.19c0.08-0.03,0.17-0.06,0.21-0.13c0.04-0.06,0.04-0.14,0.04-0.21c-0.05-3.84-0.68-7.66-0.62-11.49
			c0-0.2-0.01-0.44-0.19-0.53c-0.07-0.04-0.15-0.04-0.22-0.05c-0.71-0.05-1.42-0.11-2.14-0.16"/>
		<g>
			<path class="st69" d="M73.51,125.39c0.13,2.3,0.29,4.6,0.49,6.9c0.11,1.23-0.13,4.25,0.58,5.35c0.44,0.68,1.82,1.04,2.42,0.28
				c0.42-0.53,0-2.57-0.04-3.2c-0.14-2.23-0.4-4.46-0.47-6.7c-0.09-2.91,0.16-2.63-2.76-2.85c-0.25-0.02-0.25,0.37,0,0.39
				c1.11,0.08,1.95-0.03,2.35,1.02c0.28,0.75,0.05,2.05,0.09,2.87c0.07,1.12,0.17,2.23,0.25,3.35c0.07,0.83,0.43,2.1,0.2,2.87
				c0.36,1.03,0.06,1.28-0.9,0.76c-0.92,0.12-1.27-0.28-1.05-1.19c-0.32-0.81-0.2-2.06-0.28-2.95c-0.2-2.3-0.36-4.6-0.49-6.9
				C73.89,125.14,73.49,125.14,73.51,125.39L73.51,125.39z"/>
		</g>
	</g>
	<g>
		<path class="st69" d="M77.06,126.76c-0.25,0.04-0.44,0.28-0.51,0.52s-0.04,0.51-0.02,0.76c0.01,0.07,0.01,0.15,0.04,0.22
			c0.09,0.22,0.36,0.31,0.59,0.3c0.25-0.02,0.5-0.15,0.66-0.34c0.16-0.2,0.24-0.46,0.22-0.71c-0.03-0.29-0.2-0.56-0.46-0.69
			c-0.26-0.13-0.59-0.1-0.81,0.09"/>
		<g>
			<path class="st69" d="M77.01,126.57c-0.67,0.21-0.75,0.92-0.66,1.53c0.09,0.58,0.65,0.77,1.17,0.57c0.58-0.23,0.89-0.92,0.65-1.5
				c-0.25-0.6-0.95-0.81-1.47-0.44c-0.2,0.15-0.01,0.49,0.2,0.34c0.88-0.63,1.41,1.04,0.38,1.27c-0.74,0.16-0.74-1.21-0.15-1.4
				C77.35,126.87,77.25,126.49,77.01,126.57L77.01,126.57z"/>
		</g>
	</g>
	<g>
		<path class="st69" d="M77.24,129.7c-0.36,0.33-0.51,0.88-0.37,1.35c0.04,0.15,0.12,0.29,0.24,0.38c0.23,0.18,0.6,0.13,0.82-0.07
			c0.22-0.2,0.31-0.51,0.31-0.81c0-0.11-0.01-0.23-0.05-0.33c-0.09-0.25-0.33-0.45-0.6-0.48c-0.27-0.03-0.55,0.1-0.69,0.33"/>
		<g>
			<path class="st69" d="M77.1,129.56c-0.43,0.45-0.64,1.14-0.34,1.73c0.26,0.51,0.9,0.58,1.31,0.2c0.43-0.39,0.51-1.21,0.12-1.65
				c-0.4-0.45-1.07-0.37-1.43,0.08c-0.16,0.19,0.12,0.47,0.28,0.28c0.24-0.3,0.69-0.39,0.93-0.01c0.19,0.3,0.08,0.89-0.23,1.08
				c-0.45,0.28-0.73-0.27-0.71-0.65c0.02-0.31,0.15-0.56,0.36-0.77C77.56,129.66,77.28,129.38,77.1,129.56L77.1,129.56z"/>
		</g>
	</g>
	<g>
		<path class="st69" d="M77.32,132.61c-0.26,0.16-0.45,0.45-0.48,0.76c-0.03,0.31,0.11,0.63,0.36,0.81
			c0.25,0.18,0.61,0.21,0.88,0.06c0.29-0.16,0.45-0.51,0.45-0.84c0-0.27-0.1-0.54-0.31-0.7c-0.17-0.12-0.38-0.16-0.59-0.13
			c-0.2,0.03-0.39,0.13-0.55,0.27"/>
		<g>
			<path class="st69" d="M77.22,132.44c-0.48,0.34-0.73,0.92-0.47,1.48c0.25,0.53,0.91,0.78,1.43,0.48c0.5-0.28,0.68-0.99,0.45-1.5
				c-0.31-0.69-1.11-0.64-1.64-0.24c-0.2,0.15,0,0.49,0.2,0.34c0.33-0.25,0.86-0.38,1.09,0.09c0.16,0.31,0.03,0.81-0.29,0.98
				c-0.31,0.17-0.71,0.01-0.87-0.28c-0.2-0.37-0.02-0.78,0.3-1C77.62,132.64,77.43,132.3,77.22,132.44L77.22,132.44z"/>
		</g>
	</g>
	<g>
		<path class="st69" d="M77.63,135.44c-0.27,0.21-0.45,0.54-0.47,0.88c-0.01,0.27,0.08,0.55,0.29,0.71
			c0.25,0.18,0.62,0.14,0.88-0.04c0.26-0.18,0.41-0.49,0.41-0.81c0-0.31-0.17-0.62-0.43-0.8c-0.06-0.04-0.14-0.08-0.21-0.1
			c-0.15-0.03-0.31,0.01-0.44,0.09s-0.24,0.19-0.34,0.31"/>
		<g>
			<path class="st69" d="M77.49,135.3c-0.47,0.4-0.73,1.13-0.35,1.68c0.34,0.48,1.03,0.44,1.42,0.06c0.43-0.41,0.48-1.11,0.11-1.58
				c-0.45-0.58-1.06-0.4-1.5,0.08c-0.17,0.19,0.11,0.46,0.28,0.28c0.08-0.09,0.19-0.23,0.3-0.28c0.36-0.16,0.59,0.07,0.71,0.32
				c0.14,0.3,0.08,0.67-0.17,0.89c-0.3,0.27-0.83,0.2-0.92-0.23c-0.08-0.37,0.13-0.72,0.4-0.95
				C77.96,135.41,77.68,135.14,77.49,135.3L77.49,135.3z"/>
		</g>
	</g>
	<g>
		<g>
			<path class="st74" d="M71.13,126.27c-2.62,1.2-5.46,2.34-7.28,4.67c-0.09,0.12-0.05,0.35,0.14,0.33
				c1.92-0.15,4.03-0.78,5.91-1.25c0.86-0.22,3.77-0.41,3.57-1.81c-0.09-0.61-1.21-1.35-1.67-1.51c-0.78-0.28-1.23-0.15-1.92,0.23
				c-1.28,0.71-2.58,1.47-3.81,2.27c-0.6,0.39-1.52,0.78-1.79,1.48c-0.04,0.09,0.04,0.22,0.14,0.24c0.65,0.11,1.04-0.24,1.56-0.64
				c1.62-1.22,2.98-2.26,4.93-2.93c-0.03-0.13-0.07-0.25-0.1-0.38c-2.09,0.86-4.17,1.71-5.85,3.27c-0.14,0.13,0,0.39,0.19,0.33
				c1.97-0.65,3.4-2.18,5.29-2.95c1.09-0.45-0.87,0.46-1.06,0.54c-0.36,0.15-0.72,0.28-1.08,0.44c-0.88,0.38-1.66,0.81-2.38,1.42
				c-0.15,0.13,0.01,0.37,0.19,0.33c0.73-0.19,1.29-0.52,1.89-0.97c0.49-0.37,0.88-0.81,1.4-1.16c0.69-0.46,1.29-1.1,1.85-0.19
				c0.49,0.39,0.51,0.58,0.05,0.58c-0.48,0.11-0.97,0.18-1.47,0.22c-0.32,0.05-0.63,0.1-0.94,0.17c-0.91,0.2-1.77,0.51-2.62,0.87
				c-0.15,0.06-0.11,0.33,0.05,0.36c1.69,0.3,3.48-0.85,5.15-1.14c-0.03-0.13-0.07-0.25-0.1-0.38c-2.1,0.47-4.13,1.13-6.13,1.92
				c0.05,0.12,0.1,0.24,0.15,0.36c1.13-0.52,2.26-1.05,3.39-1.57c0.64-0.3,1.54-0.86,2.23-0.99c0.51-0.1,2.24-0.41,0.97,0.22
				c-1.09,0.55-2.61,0.99-3.83,1.14c-0.25,0.03-0.25,0.42,0,0.39c1.41-0.16,3.97-0.65,4.98-1.71c0.04-0.05,0.08-0.13,0.05-0.19
				c-0.71-1.73-3.77-0.4-4.67,0.39c-0.12,0.11-0.03,0.35,0.14,0.33c1.13-0.08,2.15-0.6,3.29-0.52c-0.02-0.13-0.03-0.26-0.05-0.38
				c-1.41,0.47-2.83,0.89-4.28,1.25c0.05,0.12,0.1,0.24,0.15,0.36c1.16-0.75,2.27-1.41,3.67-1.59c-0.02-0.13-0.03-0.26-0.05-0.38
				c-0.41,0.19-0.84,0.32-1.29,0.42c1.2,0.31,1.8,0.15,1.8-0.49c0-0.2,0.08-0.38,0.23-0.55c-0.99,1.35-0.98,1.58,0.04,0.67
				c0.1,0.23,0.44,0.03,0.34-0.2c-0.4-0.93-2.27-1.96-2.15-0.19c0.08,1.14,2.38,2.74,3.14,1.36c0.6-1.08-1.59-2.73-2.6-2.28
				c-0.34,0.15-0.59,0.46-0.5,0.85c0.18,0.77,1.45,0.69,2,0.7c0.21,0,0.24-0.26,0.1-0.36c-1.01-0.77-3.17-1.15-3.49,0.63
				c-0.02,0.11,0.03,0.2,0.14,0.24c0.77,0.26,1.63-0.15,2.34-0.42c0.19-0.07,0.19-0.41-0.05-0.38c-1.47,0.18-2.64,0.84-3.87,1.64
				c-0.18,0.12-0.07,0.41,0.15,0.36c1.44-0.36,2.87-0.77,4.28-1.25c0.21-0.07,0.17-0.37-0.05-0.38c-0.73-0.05-1.6,0.46-2.24,0.37
				c-0.21-0.2-0.08-0.3,0.39-0.3c0.62-0.29,1.29-0.35,1.99-0.17c0.41,0.51,0.16,0.48-0.18,0.73c-0.84,0.6-2.72,0.96-3.75,1.08
				c0,0.13,0,0.26,0,0.39c1.57-0.2,3.37-0.78,4.78-1.51c0.14-0.07,0.12-0.26,0-0.34c-0.85-0.54-1.58-0.46-2.51-0.1
				c-1.78,0.68-3.5,1.61-5.22,2.41c-0.2,0.09-0.06,0.44,0.15,0.36c2-0.79,4.03-1.44,6.13-1.92c0.25-0.06,0.14-0.42-0.1-0.38
				c-1.26,0.22-2.65,0.55-3.82,1.07c1.32-0.58,2.81-0.45,4.16-0.85c0.85-0.25,1.94-0.7,0.95-1.51c-1.21-1-2.99,0.12-3.96,0.86
				c-0.4,0.31-1.33,0.84-1.54,1.23c-0.26,0.09-0.3,0.14-0.13,0.16c0.31-0.19,0.63-0.36,0.97-0.51c1.19-0.56,2.4-0.93,3.51-1.64
				c0.1-0.06,0.14-0.22,0.04-0.31c-0.97-0.8-2.83,0.94-3.6,1.45c-0.47,0.32-0.95,0.61-1.43,0.92c-1.1,0.69-0.8,0.45,0.07-0.13
				c1.33-0.89,2.86-1.48,4.33-2.08c0.23-0.09,0.14-0.46-0.1-0.38c-1.17,0.4-2.28,0.91-3.3,1.6c-0.5,0.33-0.94,0.72-1.4,1.1
				c-0.25,0.2-1.98,1.46-0.65,0.42c1.21-0.95,2.65-1.62,3.97-2.41c1.06-0.64,2.52-1.2,2.91,0.42c0.28,1.15-0.42,0.95-1.46,1.25
				c-0.5,0.15-6.43,1.38-6.42,1.46c-0.09-0.79,2.83-2.23,3.44-2.56c1.12-0.61,2.3-1.12,3.46-1.65
				C71.56,126.5,71.36,126.17,71.13,126.27L71.13,126.27z"/>
		</g>
	</g>
	<g>
		<g>
			<path class="st75" d="M56.83,132.72c1.24-1.93,2.48-2.96,4.52-3.95c0.73-0.36,2.14-0.96,2.39-1.83c0.05-0.16-0.1-0.26-0.24-0.24
				c-2.93,0.4-6.71,0.62-8.87,2.94c-1.62,1.73,0.53,2.08,1.84,3.08c0.05-0.12,0.1-0.24,0.15-0.36c-1.26-0.23-1.59-1.12-0.97-2.66
				c0.3-0.15,0.59-0.32,0.86-0.51c0.21-0.14,0.02-0.46-0.2-0.34c-0.92,0.51-1.65,0.99-2.09,1.97c-0.09,0.2,0.13,0.39,0.31,0.24
				c1.25-1.12,2.11-2.04,3.82-2.45c1.57-0.38,3.15-0.59,4.69-1.1c0.24-0.08,0.14-0.42-0.1-0.38c-2.5,0.4-4.8,0.79-7.09,1.89
				c0.07,0.11,0.13,0.23,0.2,0.34c0.75-0.51,1.57-0.76,2.44-1c0.4-0.11,2.27-0.85,2.6-0.65c1,0.6-0.75,1.03-1.15,1.22
				c-0.51,0.24-1.02,0.47-1.48,0.81c-0.48,0.36-2.47,2.77-0.74,0.98c1.19-1.23,2.89-1.87,4.35-2.71c0.22-0.13,0.03-0.45-0.2-0.34
				c-1.67,0.81-3.45,1.77-4.76,3.11c-1,1.03,1.04-0.67,1.29-0.82c0.91-0.56,1.87-0.95,2.73-1.61c0.14-0.1,0.12-0.38-0.1-0.36
				c-1.11,0.08-2.14,0.76-3.01,1.43c-0.5,0.39-0.89,0.9-1.38,1.29c-0.3,0.59-0.81,0.83-1.52,0.72c0.34,0.18,0.69,0.36,1.03,0.54
				c0.23,0.12,0.4-0.19,0.2-0.34c-0.4-0.28-0.77-0.6-1.11-0.95c-0.09,0.09-0.18,0.18-0.28,0.28c0.4,0.36,0.77,0.61,1.27,0.85
				c0.19,0.09,0.4-0.14,0.24-0.31c-0.37-0.38-0.74-0.77-1.12-1.15c-0.09,0.09-0.18,0.18-0.28,0.28c1.55,1.42,1.3,0.35,2.73-0.81
				c0.21-0.17,1.76-0.93,1.68-1.2c-0.02-0.06-1.19,0.35-1.12,0.32c-1.09,0.43-1.93,1.14-2.65,2.04c-0.15,0.19,0.11,0.47,0.28,0.28
				c0.93-1.03,1.86-1.97,3.16-2.53c0.2-0.09,0.06-0.42-0.15-0.36c-1.56,0.48-2.93,1-3.85,2.41c-0.12,0.19,0.16,0.4,0.31,0.24
				c1.26-1.36,2.71-2.16,4.54-2.49c-0.03-0.13-0.07-0.25-0.1-0.38c-1.06,0.38-2.16,1.12-3.04,1.82c-0.32,0.26-1,0.74-0.15,0.19
				c0.57-0.37,1.09-0.88,1.61-1.3c0.16-0.13-0.01-0.37-0.19-0.33c-1.37,0.35-2.47,1-3.44,2.02c-0.17,0.18,0.09,0.44,0.28,0.28
				c0.45-0.43,0.94-0.8,1.48-1.12c-0.07-0.11-0.13-0.23-0.2-0.34c-0.58,0.37-1.68,0.87-1.64,1.71c0,0.09,0.06,0.16,0.14,0.19
				c0.65,0.25,1.12-0.33,1.35-0.85c0.1-0.23-0.23-0.43-0.34-0.2c0.18-0.22,0.41-0.39,0.67-0.52c0.21-0.14,0.02-0.47-0.2-0.34
				c-0.56,0.36-1.06,0.74-1.56,1.18c0.09,0.09,0.18,0.18,0.28,0.28c0.51-0.53,1.07-1.01,1.73-1.37c0.39-0.21,1.33-0.88,0.55-0.23
				c-0.62,0.51-1.25,0.95-1.71,1.62c-0.11,0.16,0.11,0.37,0.27,0.27c1.31-0.85,2.73-2.07,4.2-2.6c0.24-0.08,0.14-0.42-0.1-0.38
				c-1.89,0.34-3.41,1.18-4.72,2.59c0.1,0.08,0.2,0.16,0.31,0.24c0.85-1.3,2.2-1.8,3.62-2.23c-0.05-0.12-0.1-0.24-0.15-0.36
				c-1.35,0.57-2.27,1.51-3.24,2.59c0.09,0.09,0.18,0.18,0.28,0.28c0.82-1.02,1.79-1.75,3.05-2.14c0.51-0.16,0.85-0.16,1.27-0.48
				c0.12-0.1,0.04-0.29-0.09-0.33c-0.73-0.22-1.61,0.46-2.19,0.84c-0.51,0.33-0.89,0.69-1.31,1.12c-0.68,0.7-0.36,1-1.37,0.07
				c-0.19-0.17-0.45,0.09-0.28,0.28c0.37,0.38,0.74,0.77,1.12,1.15c0.08-0.1,0.16-0.2,0.24-0.31c-0.45-0.18-0.85-0.44-1.19-0.79
				c-0.19-0.17-0.46,0.1-0.28,0.28c0.38,0.37,0.77,0.69,1.19,1.01c0.07-0.11,0.13-0.23,0.2-0.34c-0.51-0.27-1.03-0.54-1.54-0.8
				c-0.16-0.08-0.38,0.1-0.27,0.27c1.5,2.24,2.2-0.17,3.71-1.33c0.41-0.32,0.81-0.57,1.25-0.83c0.14-0.08,1.41-0.8,0.73-0.4
				c-0.67,0.39-1.37,0.72-2.03,1.11c-0.96,0.57-1.8,1.25-2.06,2.36c-0.04,0.19,0.18,0.33,0.33,0.19c0.83-0.82,1.41-1.6,2.4-2.3
				c1.01-0.72,2.09-1.32,3.21-1.87c-0.07-0.11-0.13-0.23-0.2-0.34c-2.16,1.24-4.58,2.12-5.58,4.58c-0.07,0.18,0.2,0.33,0.33,0.19
				c1.12-1.26,1.92-2.41,3.51-3.17c0.83-0.4,2.06-0.78,2.54-1.66c0.05-0.08,0.03-0.17-0.03-0.24c-0.45-0.57-1.79-0.01-2.31,0.11
				c-1.52,0.36-3.17,0.65-4.48,1.54c-0.21,0.14-0.03,0.45,0.2,0.34c2.29-1.1,4.53-1.45,7-1.86c-0.03-0.13-0.07-0.25-0.1-0.38
				c-1.9,0.63-3.97,0.73-5.84,1.42c-1.21,0.45-1.9,1.39-2.84,2.23c0.1,0.08,0.2,0.16,0.31,0.24c0.39-0.89,1.13-1.38,1.95-1.83
				c-0.07-0.11-0.13-0.23-0.2-0.34c-0.77,0.49-2.22,1.05-1.91,2.24c0.22,0.85,1.38,1.4,2.11,1.64c0.23,0.07,0.31-0.23,0.15-0.36
				c-0.61-0.47-1.66-0.7-1.99-1.44c-0.39-0.29-0.36-0.56,0.07-0.82c0.2-0.31,0.46-0.56,0.78-0.75c0.5-0.4,0.96-0.62,1.55-0.86
				c1.06-0.45,2.17-0.76,3.31-0.97c0.61-0.11,2.15-0.58,2.68-0.4c0.3-0.09,0.21,0-0.28,0.29c-0.21,0.17-0.43,0.33-0.66,0.47
				c-0.31,0.2-0.64,0.37-0.97,0.54c-0.71,0.35-1.46,0.61-2.1,1.07c-1.08,0.78-1.85,1.92-2.56,3.02
				C56.36,132.74,56.7,132.93,56.83,132.72L56.83,132.72z"/>
		</g>
	</g>
	<g>
		<g>
			<path class="st76" d="M56.02,132.67c0.38-0.72,0.76-1.42,1.27-2.05c0.64-0.79,1.4-1.17,2.25-1.66c0.67-0.39,1.75-0.98,1.92-1.8
				c0.03-0.14-0.08-0.23-0.21-0.21c-2.3,0.38-5.28,0.8-6.92,2.66c-1.46,1.66,0.07,2.04,1.39,3.05c0.04-0.1,0.09-0.21,0.13-0.31
				c-1.29-0.31-1.57-1.14-0.84-2.51c0.24-0.14,0.47-0.3,0.69-0.48c0.17-0.13,0.02-0.42-0.17-0.29c-0.78,0.51-1.36,1.02-1.69,1.9
				c-0.06,0.16,0.17,0.28,0.28,0.17c1.04-1.11,1.68-1.94,3.23-2.39c1.25-0.35,2.51-0.62,3.72-1.11c0.2-0.08,0.13-0.37-0.09-0.33
				c-2.06,0.44-3.99,0.86-5.83,1.91c0.07,0.09,0.14,0.18,0.21,0.27c0.9-0.73,2.32-1.19,3.46-1.39c0.17-0.05,0.35-0.1,0.52-0.15
				c0.72,0.04,0.82,0.18,0.31,0.43c-0.25,0.34-0.86,0.54-1.22,0.74c-1.42,0.79-1.96,1.85-2.91,3.11c0.1,0.04,0.21,0.09,0.31,0.13
				c0.71-2.09,2.59-2.96,4.3-4.12c0.18-0.12,0.02-0.4-0.17-0.29c-0.87,0.5-1.71,1.06-2.48,1.7c-0.85,0.7-1.34,1.48-2.05,2.3
				c0.09,0.06,0.19,0.11,0.28,0.17c0.37-1.88,2.59-2.53,3.87-3.71c0.14-0.13-0.01-0.31-0.17-0.28c-0.8,0.12-1.58,0.69-2.19,1.19
				c-0.48,0.39-0.91,0.83-1.29,1.32c-0.5,0.63-0.95,1.4-1.53,0.36c-0.08,0.08-0.16,0.16-0.23,0.23c0.41,0.25,0.82,0.51,1.23,0.76
				c0.16,0.1,0.35-0.14,0.21-0.27c-0.33-0.29-0.63-0.59-0.92-0.92c-0.08,0.08-0.16,0.16-0.24,0.24c0.32,0.34,0.61,0.58,1.01,0.81
				c0.18,0.1,0.32-0.12,0.21-0.27c-0.3-0.36-0.59-0.73-0.89-1.09c-0.08,0.08-0.16,0.16-0.24,0.24c1.42,1.54,1.31-0.19,2.68-1.18
				c0.31-0.22,1.37-0.68,0.45-0.59c-0.21,0.02-0.61,0.25-0.78,0.34c-0.79,0.43-1.38,1.09-1.87,1.83c-0.12,0.19,0.17,0.34,0.29,0.17
				c0.71-0.95,1.4-1.83,2.49-2.36c0.17-0.08,0.05-0.38-0.13-0.31c-1.3,0.47-2.41,1.01-3.08,2.28c-0.08,0.16,0.14,0.37,0.27,0.21
				c0.94-1.22,2.1-2.04,3.62-2.36c0.21-0.04,0.12-0.37-0.09-0.33c-0.5,0.1-0.9,0.54-1.29,0.84c-0.71,0.55-1.43,1.1-2.14,1.65
				c0.08,0.08,0.16,0.16,0.23,0.23c0.46-0.82,1.28-1.44,1.95-2.08c0.12-0.12,0-0.33-0.17-0.28c-1.15,0.35-2,0.97-2.75,1.91
				c-0.13,0.17,0.09,0.4,0.24,0.24c0.37-0.4,0.73-0.73,1.18-1.06c-0.06-0.1-0.11-0.2-0.17-0.29c-0.5,0.39-1.35,0.86-1.31,1.61
				c0,0.06,0.03,0.12,0.08,0.15c0.6,0.27,0.97-0.35,1.15-0.82c0.08-0.2-0.25-0.29-0.33-0.09c0.14-0.23,0.33-0.42,0.57-0.55
				c0.17-0.13,0.01-0.43-0.17-0.29c-0.45,0.34-0.86,0.7-1.25,1.11c0.08,0.08,0.16,0.16,0.24,0.24c0.71-0.89,1.51-1.49,2.6-1.82
				c-0.06-0.09-0.11-0.19-0.17-0.28c-0.7,0.67-1.52,1.29-2.01,2.15c-0.08,0.14,0.09,0.34,0.23,0.23c0.57-0.44,1.14-0.88,1.71-1.32
				c0.46-0.35,1.05-1.02,1.63-1.14c-0.03-0.11-0.06-0.22-0.09-0.33c-1.58,0.33-2.79,1.18-3.77,2.45c0.09,0.07,0.18,0.14,0.27,0.21
				c0.62-1.19,1.66-1.68,2.88-2.12c-0.04-0.1-0.09-0.21-0.13-0.31c-1.13,0.56-1.87,1.5-2.61,2.49c0.1,0.06,0.2,0.11,0.29,0.17
				c0.61-0.92,1.39-1.64,2.45-2.01c0.41-0.15,0.65-0.14,0.97-0.44c0.1-0.09,0.04-0.24-0.08-0.28c-0.59-0.22-1.35,0.49-1.78,0.81
				c-0.3,0.23-0.58,0.47-0.82,0.76c-0.46,0.56-0.59,1.1-1.28,0.34c-0.15-0.16-0.38,0.07-0.24,0.24c0.3,0.36,0.59,0.73,0.89,1.09
				c0.07-0.09,0.14-0.18,0.21-0.27c-0.37-0.18-0.69-0.43-0.94-0.75c-0.15-0.16-0.38,0.08-0.24,0.24c0.29,0.33,0.59,0.63,0.92,0.92
				c0.07-0.09,0.14-0.18,0.21-0.27c-0.41-0.25-0.82-0.51-1.23-0.76c-0.15-0.09-0.31,0.09-0.23,0.23c0.28,0.5,0.62,1.11,1.19,0.88
				c0.12-0.05,0.46-0.62,0.52-0.69c0.35-0.48,0.7-0.94,1.13-1.36c0.64-0.62,1.62-1.42,2.55-1.55c-0.06-0.09-0.11-0.19-0.17-0.28
				c-1.34,1.24-3.56,1.86-3.96,3.87c-0.03,0.15,0.16,0.31,0.28,0.17c0.57-0.67,1-1.39,1.67-1.98c0.86-0.76,1.8-1.4,2.8-1.97
				c-0.06-0.1-0.11-0.2-0.17-0.29c-1.81,1.23-3.7,2.12-4.45,4.33c-0.07,0.2,0.2,0.27,0.31,0.13c0.54-0.72,0.93-1.61,1.61-2.22
				c0.61-0.55,1.41-0.83,2.09-1.28c0.32-0.21,1.25-0.73,1.1-1.22c-0.32-1.02-4.81,1.01-5.5,1.56c-0.15,0.12,0.04,0.36,0.21,0.27
				c1.82-1.04,3.73-1.44,5.75-1.88c-0.03-0.11-0.06-0.22-0.09-0.33c-1.51,0.61-3.13,0.82-4.64,1.4c-1.14,0.44-1.65,1.32-2.46,2.18
				c0.09,0.06,0.19,0.11,0.28,0.17c0.31-0.83,0.84-1.25,1.53-1.7c-0.06-0.1-0.11-0.2-0.17-0.29c-0.69,0.53-1.77,1.04-1.53,2.11
				c0.18,0.78,1.09,1.26,1.77,1.5c0.2,0.07,0.27-0.2,0.13-0.31c-0.39-0.3-1.58-0.72-1.71-1.19c-0.2-0.71,0.63-1.59,1.12-1.96
				c0.4-0.3,0.79-0.49,1.25-0.7c0.44-0.2,3.98-1.55,4.26-1.16c0.35,0.49-2.42,1.8-2.78,2.06c-1.07,0.76-1.7,1.95-2.3,3.08
				C55.63,132.69,55.92,132.86,56.02,132.67L56.02,132.67z"/>
		</g>
	</g>
	<g>
		<g>
			<path d="M74.44,137.97c1.25,1.09,3.95,0.76,4.99-0.51c0.32-0.39-0.23-0.94-0.55-0.55c-0.73,0.89-2.97,1.3-3.88,0.51
				C74.62,137.09,74.06,137.64,74.44,137.97L74.44,137.97z"/>
		</g>
	</g>
	<path class="st77" d="M82.37,140.7c-0.24,0.05-0.25-0.19-0.49-0.24c-0.29-0.06-0.6-0.07-0.89,0.02s-0.54,0.29-0.67,0.56
		c-0.13,0.26-0.13,0.56-0.23,0.83c-0.09,0.24-0.27,0.45-0.5,0.58c-0.13,0.07-0.27,0.12-0.39,0.2c-0.33,0.22-0.48,0.66-0.35,1.04
		c0.05,0.14,0.13,0.27,0.19,0.41c0.18,0.42,0.09,0.92-0.15,1.3c-0.09,0.14-0.19,0.27-0.23,0.43c-0.07,0.33,0.22,0.64,0.53,0.78
		c0.17,0.08,0.36,0.13,0.48,0.27c0.23,0.26,0.12,0.71,0.35,0.96c0.19,0.2,0.51,0.2,0.77,0.11c0.26-0.09,0.49-0.26,0.75-0.33
		c0.56-0.16,1.18,0.11,1.73-0.1c0.35-0.13,0.61-0.44,0.76-0.78c0.12-0.26,0.2-0.55,0.41-0.75c0.32-0.31,0.89-0.34,1.09-0.74
		c0.09-0.18,0.07-0.39,0.06-0.59c-0.02-0.31-0.05-0.62-0.07-0.93c-0.02-0.27-0.04-0.56,0.1-0.79c0.08-0.13,0.2-0.24,0.26-0.37
		c0.09-0.21,0.03-0.45-0.11-0.63c-0.14-0.18-0.35-0.29-0.56-0.35c-0.16-0.05-0.33-0.09-0.44-0.2c-0.08-0.08-0.12-0.19-0.16-0.29
		c-0.09-0.24-0.19-0.49-0.37-0.68c-0.17-0.19-0.44-0.32-0.69-0.27c-0.16,0.03-0.29,0.13-0.43,0.21
		C82.83,140.51,82.7,140.64,82.37,140.7"/>
	<g>
		<path class="st68" d="M82.11,142.64c-0.4,0.17-0.74,0.45-0.97,0.81c-0.27,0.41-0.39,0.95-0.21,1.41s0.69,0.8,1.17,0.68
			c0.13-0.03,0.25-0.1,0.37-0.17c0.36-0.22,0.67-0.51,0.91-0.85c0.16-0.23,0.29-0.49,0.34-0.77c0.05-0.28,0-0.58-0.17-0.81
			c-0.23-0.31-0.65-0.44-1.02-0.38c-0.38,0.06-0.71,0.29-0.96,0.58"/>
		<g>
			<path class="st69" d="M82.01,142.48c-0.88,0.41-1.65,1.43-1.28,2.44c0.37,1,1.42,0.97,2.14,0.41c0.67-0.52,1.39-1.55,0.88-2.41
				c-0.55-0.93-1.74-0.54-2.34,0.09c-0.17,0.18,0.1,0.46,0.28,0.28c0.26-0.28,0.58-0.53,0.99-0.54c0.49-0.01,0.86,0.35,0.85,0.84
				c-0.01,0.57-0.47,1.1-0.9,1.43c-0.28,0.22-0.59,0.44-0.97,0.32c-0.44-0.13-0.65-0.58-0.63-1.01c0.04-0.7,0.57-1.23,1.17-1.51
				C82.43,142.71,82.23,142.37,82.01,142.48L82.01,142.48z"/>
		</g>
	</g>
	<path class="st78" d="M125.02,152.47c-0.14,0.14-0.27,0.27-0.41,0.41c-0.08,0.08-0.17,0.16-0.28,0.17
		c-0.05,0.01-0.11-0.01-0.16-0.02c-0.23-0.06-0.44-0.17-0.63-0.3c-0.09-0.06-0.17-0.13-0.26-0.17c-0.14-0.06-0.31-0.07-0.43-0.17
		c-0.01-0.01-0.03-0.03-0.03-0.05c-0.01-0.04,0.03-0.08,0.07-0.11c0.25-0.18,0.51-0.34,0.78-0.48c0.29-0.15,0.59-0.26,0.86-0.44
		c0.1-0.07,0.2-0.14,0.32-0.18c0.11-0.04,0.25-0.05,0.35,0.02c0.11,0.07,0.15,0.2,0.19,0.33c0.03,0.1,0.06,0.2,0.06,0.3
		c0.01,0.19-0.07,0.37-0.19,0.51c-0.11,0.15-0.26,0.26-0.41,0.38"/>
	<g>
		<path class="st68" d="M124.82,144.33c0,2.7-0.07,5.39-0.14,8.09c0,0.17-0.01,0.35,0.08,0.5c0.11,0.2,0.34,0.29,0.56,0.37
			c1.02,0.37,2.03,0.74,3.05,1.11c0.08,0.03,0.16,0.05,0.23,0.02c0.08-0.04,0.1-0.14,0.12-0.23c0.4-2.27,0.04-4.59,0.07-6.89
			c0-0.4,0.02-0.81-0.12-1.19c-0.24-0.65-0.9-1.06-1.56-1.27c-0.66-0.2-1.46-0.34-2.13-0.52"/>
	</g>
	<path class="st79" d="M126.18,149.9c0.36-0.14,0.76-0.17,1.11-0.35c0.02-0.01,0.04-0.02,0.05-0.04c0.02-0.02,0.02-0.06,0.02-0.09
		c0-0.28-0.15-0.57-0.03-0.81c0.03-0.06,0.08-0.12,0.12-0.18c0.15-0.24,0.13-0.58-0.05-0.8c-0.13-0.16-0.33-0.25-0.45-0.42
		c-0.13-0.18-0.13-0.42-0.17-0.64c-0.04-0.22-0.13-0.46-0.33-0.54c-0.15-0.06-0.33-0.02-0.49-0.04c-0.13-0.02-0.26-0.09-0.35-0.2
		c-0.09-0.1-0.16-0.25-0.29-0.25c-0.05,0-0.1,0.02-0.15,0.04c-0.33,0.15-0.64,0.37-0.99,0.45"/>
	<path class="st80" d="M130.88,137.22c0.24-0.42,0.64-1.18,0.91-1.58c0.02-0.02,0.03-0.05,0.06-0.06c0.03-0.02,0.06-0.02,0.09-0.02
		c0.14,0,0.27,0.06,0.41,0.08c0.17,0.01,0.35-0.05,0.52-0.03c0.01,0,0.02,0,0.03,0.01c0.01,0.01,0.01,0.04,0,0.06
		c-0.15,0.41-0.45,1.19-0.62,1.6"/>
	<g>
		<path class="st81" d="M134.02,143.85c-0.03,0.68-0.05,1.36-0.08,2.04c-0.01,0.14-0.01,0.29-0.07,0.42
			c-0.11,0.27-0.39,0.41-0.65,0.54c-0.71,0.34-1.42,0.69-2.19,0.85c-0.01-0.78,0-1.56,0.04-2.34c0-0.04,0.01-0.08,0.03-0.11
			c0.02-0.02,0.05-0.02,0.08-0.03c0.61-0.06,1.28,0.04,1.8-0.3c0.23-0.15,0.4-0.39,0.57-0.61c0.14-0.19,0.28-0.38,0.41-0.57"/>
		<g>
			<path class="st81" d="M133.94,143.85c-0.04,1.14,0.17,2.48-1.02,3.06c-0.35,0.17-0.7,0.33-1.06,0.46
				c-0.1,0.04-0.46,0.22-0.56,0.18c-0.37-0.14-0.18-1.14-0.17-1.46c0.01-0.3-0.05-0.62,0.3-0.8c0.14-0.07,0.44-0.01,0.59-0.02
				c0.27-0.02,0.56-0.04,0.81-0.16c0.55-0.25,0.88-0.86,1.22-1.33c0.06-0.09-0.08-0.17-0.15-0.09c-0.5,0.68-0.84,1.3-1.77,1.39
				c-0.28,0.03-0.83-0.09-1.05,0.08c-0.13,0.09-0.09,0.36-0.1,0.48c-0.05,0.68-0.03,1.37-0.02,2.05c0,0.06,0.05,0.09,0.11,0.08
				c0.54-0.13,1.04-0.31,1.54-0.54c0.39-0.18,0.93-0.34,1.22-0.69c0.16-0.2,0.18-0.41,0.2-0.66c0.07-0.67,0.05-1.37,0.08-2.04
				C134.11,143.75,133.94,143.75,133.94,143.85L133.94,143.85z"/>
		</g>
	</g>
	<path class="st68" d="M131.06,145.38c0.44-0.3,1.05-0.09,1.55-0.27c0.37-0.13,0.63-0.44,0.87-0.75c0.08-0.09,0.15-0.19,0.2-0.3
		c0.05-0.12,0.06-0.25,0.07-0.38c0.12-1.5,0.09-3.01,0.05-4.52c-0.01-0.34-0.02-0.67-0.02-1.01c-0.47,0.35-0.96,0.72-1.53,0.85
		c-0.22,0.05-0.44,0.07-0.66,0.06c-0.86-0.02-1.7-0.38-2.31-0.97c-0.15,1.92-0.21,3.85-0.17,5.78c0,0.04,0,0.09,0.02,0.13
		c0.03,0.05,0.08,0.07,0.12,0.1c0.66,0.33,1.39,0.62,1.86,1.2"/>
	<g>
		<path class="st70" d="M128.12,141.14c0.34,0.04,0.68,0.06,1.02,0.08c0.01,0,0.02,0,0.03-0.01c0.01-0.01,0.01-0.02,0.01-0.03
			c0.02-0.2,0.04-0.39,0.05-0.59c0.03-0.3,0.05-0.6,0.03-0.91c-0.01-0.15-0.03-0.31-0.06-0.46c0-0.03-0.01-0.06-0.03-0.08
			c-0.02-0.03-0.06-0.04-0.09-0.04c-0.17-0.05-0.36-0.09-0.53-0.02c-0.1,0.04-0.18,0.12-0.25,0.2c-0.22,0.26-0.35,0.6-0.38,0.94
			c-0.03,0.34,0.04,0.61,0.2,0.92"/>
		<g>
			<path class="st69" d="M128.12,141.27c0.27,0.03,0.84,0.18,1.09,0.07c0.13-0.06,0.11-0.22,0.12-0.35c0.05-0.48,0.1-0.97,0.05-1.45
				c-0.02-0.16-0.01-0.39-0.13-0.5c-0.43-0.38-1,0.05-1.21,0.42c-0.32,0.56-0.28,1.17-0.02,1.75c0.07,0.15,0.29,0.02,0.22-0.13
				c-0.19-0.41-0.25-0.82-0.09-1.25c0.05-0.13,0.11-0.25,0.19-0.36c0.2-0.09,0.39-0.18,0.59-0.27c0.28,0.03,0.21,0.38,0.22,0.59
				c0.01,0.31,0.04,0.81-0.06,1.11c-0.11,0.33-0.66,0.16-0.97,0.13C127.96,141,127.96,141.25,128.12,141.27L128.12,141.27z"/>
		</g>
	</g>
	<g>
		<path class="st82" d="M132.94,143.49c-0.51-0.24-1.02-0.48-1.53-0.72c-0.03-0.01-0.06-0.03-0.08-0.05
			c-0.03-0.04-0.04-0.09-0.05-0.14c-0.09-0.78,0-1.63,0.49-2.24c0.1-0.12,0.2-0.23,0.32-0.33c0.42-0.37,0.94-0.61,1.49-0.71
			c0.12-0.02,0.24-0.03,0.36-0.01c0.2,0.03,0.37,0.15,0.54,0.27c0.12,0.09,0.24,0.18,0.35,0.28c0.1,0.08,0.2,0.19,0.31,0.25
			c0.04,0.02,0.08,0.05,0.12,0.07c0.05,0.03,0.1,0.07,0.14,0.11c0.03,0.03,0.07,0.07,0.1,0.09"/>
		<g>
			<path class="st69" d="M132.99,143.41c-0.45-0.21-1.38-0.48-1.58-0.91c-0.31-0.67,0.12-1.8,0.59-2.28
				c0.54-0.56,1.52-1.09,2.29-0.71c0.36,0.17,0.86,0.63,1.17,0.9c0.08,0.07,0.2-0.05,0.12-0.12c-0.42-0.37-1.03-1-1.61-1.09
				c-0.72-0.11-1.61,0.4-2.09,0.9c-0.56,0.58-0.76,1.42-0.69,2.21c0.07,0.81,1.07,0.94,1.72,1.25
				C133,143.61,133.09,143.46,132.99,143.41L132.99,143.41z"/>
		</g>
	</g>
	<g>
		<path class="st83" d="M133.35,140.56c-0.36,0.28-0.56,0.46-0.72,0.89c-0.08,0.22-0.09,0.46-0.1,0.7c0,0.17-0.01,0.34,0.02,0.51
			c0.03,0.16,0.08,0.31,0.14,0.45c0.11,0.28,0.23,0.58,0.48,0.74c0.23,0.15,0.53,0.16,0.81,0.16c0.14,0,0.29,0,0.43-0.03
			c0.11-0.03,0.21-0.07,0.31-0.13c0.82-0.43,1.39-1.32,1.43-2.25c0.01-0.26-0.02-0.54-0.15-0.77c-0.16-0.26-0.44-0.43-0.74-0.52
			C134.64,140.12,133.92,140.21,133.35,140.56"/>
		<g>
			<path class="st69" d="M133.29,140.5c-0.92,0.73-1.09,1.92-0.54,2.97c0.48,0.89,1.68,0.77,2.39,0.22
				c0.73-0.56,1.39-1.77,1.02-2.71c-0.43-1.1-2.02-0.95-2.86-0.5c-0.1,0.05-0.01,0.2,0.09,0.15c0.88-0.48,2.52-0.56,2.69,0.78
				c0.09,0.73-0.36,1.55-0.89,2.02c-0.84,0.75-2.16,0.67-2.5-0.57c-0.24-0.88,0.01-1.68,0.72-2.24
				C133.49,140.55,133.37,140.43,133.29,140.5L133.29,140.5z"/>
		</g>
	</g>
	<polygon class="st84" points="129.66,124.44 137.77,125.64 137.77,125.23 127.83,123.47 	"/>
	<polygon class="st85" points="130.75,124.45 128.82,133.79 135.53,135.31 137.77,125.58 	"/>
	<path class="st79" d="M135.54,135.28l2.23-9.89l2.83,0.45c0,0,0.94,0.37-0.25,2.3c-1.19,1.92-1.16,3.93-0.99,5.03
		c0.17,1.1-0.04,2.73-1.2,2.71L135.54,135.28z"/>
	<path class="st86" d="M140.76,125.96l3.6,0.78c0,0-0.34,1.12-0.97,3.12c-0.54,1.74-0.84,4.91-0.84,4.91s0.74,1.61-0.21,1.9
		l-4.05-0.79c0,0,1.17-1.15,0.88-3.48s1.2-4.4,1.2-4.4S141.29,126.36,140.76,125.96z"/>
	<polygon class="st86" points="125.74,133.07 129.21,133.88 130.81,124.46 127.92,123.52 	"/>
	<path class="st87" d="M116.51,121.6l11.35,1.82c0.35,0.06,0.58,0.39,0.51,0.74l-1.9,8.5c-0.07,0.34-0.39,0.55-0.73,0.49
		l-11.15-2.26c-0.35-0.07-0.57-0.41-0.49-0.76l1.7-8.07C115.87,121.76,116.18,121.55,116.51,121.6z"/>
	<path class="st88" d="M116.99,122.31l10.04,1.55c0.23,0.04,0.38,0.26,0.34,0.48l-1.6,7.78c-0.05,0.22-0.26,0.36-0.48,0.32
		l-9.88-2.04c-0.22-0.05-0.36-0.26-0.32-0.48l1.43-7.29C116.57,122.42,116.77,122.28,116.99,122.31z"/>
	<path class="st89" d="M137.09,127.83c0.2-0.01,0.39-0.01,0.59,0.01c0.12,0.01,0.26,0.02,0.35,0.11c0.06,0.06,0.04,0.09,0.07,0.16
		c0.07,0.18,0.16,0.37,0.32,0.47c0.17,0.11,0.4,0.12,0.54,0.28c0.12,0.14,0.11,0.34,0.1,0.51c0,0.05-0.01,0.1-0.02,0.14
		c-0.02,0.04-0.05,0.08-0.07,0.12c-0.08,0.13-0.11,0.29-0.08,0.45c0.04,0.17,0.14,0.32,0.18,0.49c0.03,0.15,0,0.32-0.09,0.45
		c-0.1,0.15-0.26,0.25-0.38,0.37c-0.12,0.13-0.21,0.28-0.25,0.45c-0.05,0.19-0.05,0.41-0.2,0.54c-0.19,0.16-0.49,0.07-0.72,0.16
		c-0.14,0.05-0.25,0.17-0.39,0.21c-0.15,0.04-0.33-0.03-0.47-0.07c-0.19-0.05-0.38-0.11-0.58-0.16"/>
	<path class="st90" d="M135.47,131.97c-0.31-0.16-0.6-0.12-0.74-0.39c-0.06-0.12-0.03-0.26,0.02-0.38s0.13-0.23,0.17-0.35
		c0.09-0.28,0-0.58-0.06-0.87c-0.06-0.29-0.06-0.63,0.16-0.82c0.1-0.08,0.22-0.13,0.32-0.2c0.27-0.21,0.3-0.64,0.56-0.87
		c0.03-0.03,0.07-0.06,0.12-0.06c0.06-0.01,0.12,0.02,0.18,0.04c0.14,0.06,0.3,0.11,0.43,0.03c0.09-0.05,0.14-0.15,0.23-0.22
		c0.11-0.08,0.28-0.08,0.4-0.01c0.12,0.07,0.2,0.21,0.22,0.35c0.01,0.06,0.01,0.12,0.03,0.17c0.07,0.16,0.28,0.18,0.45,0.17
		c0.04,0,0.08,0,0.11,0.01c0.05,0.01,0.09,0.05,0.12,0.08c0.1,0.13,0.1,0.32,0.05,0.48c-0.05,0.16-0.14,0.3-0.19,0.46
		c-0.05,0.16-0.05,0.35,0.05,0.48c0.04,0.05,0.1,0.09,0.15,0.14c0.13,0.15,0.13,0.38,0.04,0.55c-0.09,0.17-0.27,0.29-0.46,0.35
		c-0.12,0.04-0.25,0.07-0.32,0.17c-0.1,0.15,0.01,0.36,0,0.54c-0.01,0.18-0.14,0.35-0.31,0.39c-0.24,0.07-0.52-0.09-0.75,0.02
		c-0.13,0.06-0.21,0.19-0.33,0.25c-0.19,0.09-0.44-0.02-0.5-0.22c-0.02-0.06-0.02-0.13-0.04-0.19c-0.03-0.08-0.08-0.13-0.17-0.14"/>
	<g>
		<path class="st91" d="M136.32,129.08c-0.37,0.05-0.66,0.3-0.79,0.63c-0.14,0.33-0.09,0.72,0.11,1.01c0.09,0.12,0.2,0.23,0.35,0.27
			c0.1,0.03,0.21,0.02,0.31-0.01c0.39-0.09,0.73-0.42,0.78-0.81c0.03-0.18-0.01-0.37-0.08-0.55c-0.08-0.2-0.22-0.39-0.42-0.49
			c-0.2-0.09-0.46-0.07-0.61,0.08"/>
		<g>
			<path class="st69" d="M136.28,128.92c-0.65,0.13-1.08,0.72-0.98,1.38c0.09,0.62,0.6,1.03,1.21,0.79
				c0.58-0.23,0.88-0.85,0.68-1.44c-0.18-0.54-0.78-0.97-1.31-0.57c-0.17,0.13,0,0.42,0.17,0.29c0.7-0.53,1.33,1.18,0.31,1.42
				c-0.53,0.12-0.83-0.4-0.71-0.89c0.09-0.36,0.38-0.58,0.72-0.65C136.58,129.21,136.49,128.88,136.28,128.92L136.28,128.92z"/>
		</g>
	</g>
	<g>
		<path class="st63" d="M136.68,130.74c-0.08,0.1-0.2,0.14-0.31,0.17c-0.12,0.02-0.23,0.08-0.36,0.07
			c-0.13-0.01-0.26-0.07-0.35-0.17c-0.07-0.11-0.13-0.23-0.1-0.36l0.02,0c0.1,0.21,0.26,0.34,0.45,0.41
			c0.1,0.02,0.21-0.02,0.32-0.02c0.11-0.01,0.23-0.03,0.31-0.11L136.68,130.74z"/>
	</g>
	<path class="st79" d="M144.76,126.75l5.92,0.68c0.23,0.03,0.39,0.25,0.35,0.48l-1.95,9.68c-0.04,0.22,0.17,0.44-0.05,0.4
		l-6.55-1.27c-0.22-0.04-0.37-0.26-0.31-0.48l2.16-9.17C144.38,126.86,144.56,126.73,144.76,126.75z"/>
	<path class="st85" d="M150.9,127.93l-1.95,9.81c-0.02,0.11,0.05,0.22,0.16,0.24l2.56,0.52c0.11,0.02,0.22-0.05,0.24-0.16l1.99-9.64
		c0.02-0.11-0.04-0.21-0.15-0.24l-2.6-0.69C151.04,127.74,150.92,127.81,150.9,127.93z"/>
	<g>
		<g>
			<path d="M143.63,131.05c-0.06,0.15-0.17,0.43-0.3,0.53c-0.59,0.47-0.68-0.1-0.66-0.41c0.03-0.44,0.31-0.76,0.7-0.94
				c0.65-0.3,0.77,0.46,0.67,0.94c-0.07,0.36-0.27,0.75-0.55,0.98c-0.53,0.44-0.96-0.15-0.82-0.7c0.06-0.22,0.2-0.43,0.36-0.59
				c0.07-0.06,0.13-0.11,0.2-0.17c0.26-0.06,0.36,0,0.28,0.17c0.01,0.07-0.13,0.48-0.22,0.49c-0.21,0.02,0.14-0.42,0.16-0.46
				c0.17-0.15,0.16-0.17-0.02-0.06c-0.12,0.02-0.2,0.1-0.23,0.22c-0.15,0.17-0.27,0.31-0.44,0.45c0.19,0.11,0.38,0.22,0.56,0.33
				c0.02-0.17,0.08-0.32,0.17-0.45c0.22-0.38-0.36-0.72-0.58-0.34c-0.12,0.2-0.19,0.39-0.24,0.62c-0.07,0.35,0.3,0.53,0.56,0.33
				c0.37-0.29,1.4-1.65,0.44-1.89c-0.73-0.18-1.25,1.06-1.14,1.61c0.06,0.29,0.24,0.52,0.55,0.53c0.46,0.01,0.78-0.47,0.95-0.83
				c0.3-0.63,0.16-1.6-0.75-1.45c-0.85,0.14-1.45,1.22-1.3,2.02c0.15,0.8,0.92,1.31,1.68,0.88c0.76-0.43,1.19-1.48,1.05-2.32
				c-0.17-1-0.92-1.3-1.78-0.84c-0.79,0.42-1.34,1.62-0.69,2.41c0.28,0.34,0.82,0.39,1.2,0.21c0.45-0.21,0.65-0.65,0.83-1.08
				C144.45,130.83,143.8,130.65,143.63,131.05L143.63,131.05z"/>
		</g>
	</g>
	<g>
		<g>
			<path class="st92" d="M147.48,131.15c0.26,0.89-0.34,2.24-1.2,2.63c-0.13,0.06-0.09,0.28,0.04,0.31
				c0.29,0.06,0.67,0.18,0.96,0.09c0.31-0.1,0.53-0.5,0.66-0.77c0.34-0.72,0.36-1.54,0.09-2.28c-0.06-0.17-0.33-0.16-0.33,0.04
				c0.01,0.88-0.04,2.06-0.9,2.58c-0.18,0.11-0.02,0.4,0.17,0.29c0.02-0.01,0.04-0.03,0.06-0.04c0.19-0.11,0.02-0.4-0.17-0.29
				c-0.02,0.01-0.04,0.03-0.06,0.04c0.06,0.1,0.11,0.19,0.17,0.29c0.96-0.59,1.08-1.86,1.06-2.87c-0.11,0.01-0.22,0.03-0.33,0.04
				c0.19,0.52,0.23,1.04,0.09,1.59c-0.07,0.26-0.16,0.55-0.33,0.75c-0.33,0.38-0.6,0.31-1.06,0.21c0.01,0.1,0.03,0.21,0.04,0.31
				c1.01-0.45,1.66-1.97,1.36-3.01C147.75,130.86,147.42,130.94,147.48,131.15L147.48,131.15z"/>
		</g>
	</g>
	<g>
		<g>
			<path class="st93" d="M147.77,131.58c0.01,0.14,0.01,0.27-0.01,0.41c-0.02,0.22,0.31,0.21,0.34,0c0.02-0.14,0.02-0.27,0.01-0.41
				C148.09,131.37,147.75,131.37,147.77,131.58L147.77,131.58z"/>
		</g>
	</g>
	<g>
		<g>
			<path class="st93" d="M147.83,132.6c0.22,0,0.22-0.34,0-0.34C147.62,132.27,147.62,132.6,147.83,132.6L147.83,132.6z"/>
		</g>
	</g>
	<g>
		<g>
			<path class="st93" d="M147.6,133.39c0.22,0,0.22-0.34,0-0.34C147.38,133.05,147.38,133.39,147.6,133.39L147.6,133.39z"/>
		</g>
	</g>
	<g>
		<g>
			<path class="st93" d="M146.75,130.19c0.17,0.07,0.36,0.12,0.52,0.23c0.13,0.08,0.23,0.19,0.3,0.33c0.11,0.07,0.12,0.04,0.03-0.08
				c-0.04-0.28-0.26-0.55-0.49-0.69c-0.19-0.12-0.35,0.17-0.17,0.29c0.29,0.19,0.49,0.43,0.65,0.73c0.1,0.19,0.39,0.02,0.29-0.17
				c-0.19-0.36-0.44-0.63-0.77-0.85c-0.06,0.1-0.11,0.19-0.17,0.29c0.1,0.06,0.67,1.4,1.03,0.81c0.11-0.18-0.08-0.48-0.18-0.62
				c-0.23-0.31-0.52-0.41-0.86-0.56C146.73,129.82,146.56,130.11,146.75,130.19L146.75,130.19z"/>
		</g>
	</g>
	<g>
		<g>
			<path class="st94" d="M147.88,133.99c0.65-0.51,1.42-1.23,1.51-2.11c0.1-0.89-0.51-1.39-1.25-1.72
				c-0.13-0.06-0.34,0.08-0.23,0.23c0.24,0.33,0.56,0.73,0.62,1.15c0.08,0.57-0.16,1.09-0.34,1.61c-0.06,0.18,0.22,0.3,0.31,0.13
				c0.21-0.38,0.46-0.63,0.53-1.08c0.06-0.46-0.07-0.94-0.14-1.39c-0.09,0.05-0.19,0.11-0.28,0.16c0.56,0.47,0.35,1.25-0.07,1.74
				c-0.14,0.16,0.1,0.4,0.24,0.24c0.53-0.63,0.78-1.62,0.07-2.21c-0.13-0.11-0.31,0-0.28,0.16c0.07,0.44,0.21,0.96,0.1,1.39
				c-0.08,0.32-0.3,0.54-0.45,0.82c0.1,0.04,0.21,0.09,0.31,0.13c0.17-0.51,0.42-1.03,0.37-1.58c-0.05-0.55-0.37-1.02-0.69-1.44
				c-0.08,0.08-0.15,0.15-0.23,0.23c0.86,0.38,1.37,1.02,0.88,1.98c-0.28,0.54-0.74,0.95-1.2,1.32
				C147.47,133.89,147.71,134.12,147.88,133.99L147.88,133.99z"/>
		</g>
	</g>
	<g>
		<g>
			<path class="st95" d="M147.48,133.99c1.2-1.02,2.07-2.94,0.26-3.83c-0.14-0.07-0.34,0.08-0.23,0.23c0.59,0.84,0.56,1.8,0.29,2.76
				c-0.06,0.21,0.25,0.29,0.33,0.09c0.14-0.37,0.33-0.76,0.36-1.15c0.03-0.42-0.09-0.87-0.15-1.28c-0.09,0.05-0.19,0.11-0.28,0.16
				c0.56,0.47,0.35,1.25-0.07,1.74c-0.14,0.16,0.1,0.4,0.24,0.24c0.53-0.63,0.78-1.62,0.07-2.21c-0.13-0.11-0.31,0-0.28,0.16
				c0.07,0.45,0.2,0.95,0.1,1.39c-0.06,0.29-0.2,0.58-0.3,0.86c0.11,0.03,0.22,0.06,0.33,0.09c0.3-1.04,0.32-2.1-0.32-3.02
				c-0.08,0.08-0.15,0.15-0.23,0.23c0.8,0.39,1.14,1.13,0.71,1.98c-0.25,0.49-0.62,0.96-1.04,1.32
				C147.07,133.89,147.31,134.13,147.48,133.99L147.48,133.99z"/>
		</g>
	</g>
	<g>
		<path class="st70" d="M146.16,133.83c0.7-0.33,1.21-1.03,1.34-1.79c0.01-0.09,0.02-0.19,0.02-0.28c0-0.42-0.21-0.81-0.42-1.17
			c-0.06-0.1-0.11-0.2-0.19-0.28c-0.16-0.16-0.39-0.39-0.61-0.42c-0.25-0.04-0.51-0.06-0.76-0.07c0.25,0.49,0.43,1.2,0.44,1.75
			c0.01,0.55-0.15,1.12-0.53,1.53c-0.23,0.25-0.53,0.43-0.82,0.59c0.52,0.17,0.98,0.19,1.52,0.21"/>
		<g>
			<path class="st69" d="M146.25,133.97c0.87-0.47,1.61-1.47,1.41-2.51c-0.08-0.44-0.33-0.94-0.63-1.28
				c-0.41-0.46-0.91-0.52-1.49-0.54c-0.14-0.01-0.19,0.14-0.15,0.25c0.63,1.39,0.59,2.82-0.85,3.64c-0.13,0.07-0.1,0.27,0.04,0.31
				c0.52,0.15,1.02,0.19,1.57,0.21c0.22,0.01,0.22-0.33,0-0.34c-0.51-0.02-0.99-0.06-1.48-0.2c0.01,0.1,0.03,0.21,0.04,0.31
				c1.61-0.91,1.69-2.51,0.97-4.1c-0.05,0.08-0.1,0.17-0.15,0.25c0.64,0.02,1.03,0.14,1.42,0.69c0.21,0.3,0.38,0.72,0.39,1.09
				c0.02,0.83-0.59,1.55-1.28,1.93C145.89,133.79,146.06,134.08,146.25,133.97L146.25,133.97z"/>
		</g>
	</g>
	<g>
		<g>
			<path class="st94" d="M144.29,129.62c-2.47-1.19-3.64,3.55-0.73,3.48c0.22-0.01,0.22-0.34,0-0.34c-2.41,0.06-1.37-3.78,0.56-2.85
				C144.32,130,144.49,129.71,144.29,129.62L144.29,129.62z"/>
		</g>
	</g>
	<g>
		<g>
			<path class="st95" d="M143.09,132.89c-1.27,0.02-1.33-1.45-0.93-2.3c0.35-0.75,0.87-1.09,1.7-0.9c0.03-0.11,0.06-0.22,0.09-0.33
				c-1.07-0.16-1.95,0.46-2.13,1.53c-0.17,1,0.21,2.35,1.42,2.32c0.22,0,0.22-0.34,0-0.34c-1.07,0.02-1.26-1.33-1.05-2.12
				c0.2-0.76,0.89-1.19,1.67-1.07c0.21,0.03,0.31-0.27,0.09-0.33c-0.48-0.11-0.89-0.19-1.31,0.11c-0.47,0.34-0.75,0.79-0.93,1.33
				c-0.36,1.04,0.07,2.45,1.38,2.43C143.31,133.22,143.31,132.89,143.09,132.89L143.09,132.89z"/>
		</g>
	</g>
	<g>
		<g>
			<path class="st94" d="M143.95,129.13c-2.53-0.89-3.9,4.33-0.86,4.3c0.22,0,0.22-0.34,0-0.34c-2.55,0.03-1.25-4.35,0.77-3.63
				C144.07,129.53,144.16,129.2,143.95,129.13L143.95,129.13z"/>
		</g>
	</g>
	<g>
		<path class="st73" d="M142.86,133.2c0.72-0.12,1.36-0.6,1.68-1.25c0.14-0.29,0.22-0.62,0.2-0.94c-0.04-0.58-0.4-1.07-0.67-1.58
			c-0.01-0.02-0.02-0.05-0.01-0.06c0.01-0.02,0.04-0.01,0.06-0.01c0.36,0.08,0.73,0.15,1.09,0.23c0.05,0.01,0.11,0.02,0.15,0.06
			c0.06,0.04,0.09,0.11,0.11,0.17c0.14,0.34,0.28,0.69,0.37,1.05c0.09,0.36,0.12,0.74,0.04,1.1c-0.14,0.64-0.6,1.16-1.12,1.55
			c-0.05,0.04-0.1,0.08-0.16,0.1c-0.06,0.02-0.12,0.02-0.19,0.02c-0.41,0-0.82-0.08-1.19-0.25c-0.15-0.07-0.31-0.15-0.48-0.11"/>
		<g>
			<path class="st69" d="M142.9,133.36c1.62-0.36,2.42-1.9,1.66-3.38c-0.04-0.08-0.24-0.37-0.22-0.4c0,0,0.74,0.11,0.82,0.17
				c0.51,0.36,0.69,1.64,0.57,2.18c-0.13,0.57-0.68,1.41-1.3,1.55c-0.56,0.12-1.12-0.32-1.66-0.36c-0.22-0.01-0.22,0.32,0,0.34
				c0.73,0.05,1.42,0.64,2.13,0.19c0.63-0.4,1.13-1.16,1.2-1.9c0.05-0.61-0.13-1.75-0.58-2.18c-0.27-0.26-1.13-0.41-1.49-0.35
				c-0.07,0.01-0.13,0.1-0.12,0.16c0.06,0.63,0.63,1.05,0.64,1.75c0.02,1.01-0.78,1.72-1.72,1.93
				C142.6,133.08,142.69,133.41,142.9,133.36L142.9,133.36z"/>
		</g>
	</g>
	<g>
		<g>
			<path class="st69" d="M144.21,129.61c1.57,0.27,6.13,0.69,4.74,3.25c-1.07,1.98-4.39,0.7-6.08,0.27
				c-0.21-0.05-0.3,0.27-0.09,0.33c1.91,0.49,5.64,1.91,6.6-0.75c1.04-2.9-3.29-3.11-5.09-3.42
				C144.09,129.25,144,129.58,144.21,129.61L144.21,129.61z"/>
		</g>
	</g>
	<g>
		<path class="st73" d="M134.29,140.59c-0.4,0.12-0.71,0.35-0.95,0.69c-0.25,0.34-0.38,0.75-0.41,1.17
			c-0.02,0.37,0.07,0.79,0.39,0.98c0.13,0.08,0.28,0.11,0.44,0.12c0.45,0.03,0.92-0.1,1.28-0.38s0.62-0.68,0.7-1.13
			c0.03-0.19,0.04-0.38,0.03-0.58c0-0.12-0.01-0.25-0.05-0.36c-0.05-0.12-0.14-0.22-0.25-0.3c-0.38-0.3-0.94-0.35-1.37-0.13"/>
		<g>
			<path class="st69" d="M134.27,140.51c-0.88,0.31-1.46,1.16-1.43,2.1c0.03,0.91,0.81,1.17,1.61,0.94c0.93-0.27,1.45-1.14,1.4-2.09
				c-0.04-0.9-1.03-1.19-1.77-0.88c-0.1,0.04-0.06,0.2,0.04,0.16c0.88-0.36,1.66,0.13,1.55,1.1c-0.08,0.73-0.56,1.33-1.27,1.54
				c-0.33,0.1-0.86,0.16-1.15-0.12c-0.3-0.28-0.27-0.79-0.2-1.16c0.15-0.69,0.6-1.21,1.26-1.45
				C134.41,140.64,134.37,140.47,134.27,140.51L134.27,140.51z"/>
		</g>
	</g>
	<g>
		<path class="st82" d="M129.07,139.03c-0.12-0.04-0.31-0.12-0.42-0.07c-0.11,0.05-0.21,0.13-0.29,0.22
			c-0.36,0.39-0.47,0.96-0.42,1.49c0.02,0.19,0.06,0.39,0.15,0.56c0.07,0.12,0.16-0.11,0.26-0.01c-0.2,0.04-0.41,0.03-0.62,0.01
			c-0.24-0.02-0.49-0.03-0.73-0.05c-0.04,0-0.07,0-0.1-0.02c-0.03-0.01-0.06-0.03-0.09-0.05c-0.24-0.18-0.42-0.1-0.5-0.39
			c-0.07-0.24-0.07-0.48-0.07-0.73c0-0.22,0-0.44,0.06-0.65c0.06-0.22,0.17-0.43,0.29-0.62c0.08-0.14,0.17-0.28,0.29-0.39
			c0.12-0.11,0.27-0.19,0.43-0.2c0.1,0,0.2,0.03,0.3,0.06c0.5,0.15,0.98,0.36,1.44,0.62c0.05,0.03,0.18,0.18,0.14,0.23"/>
		<g>
			<path class="st69" d="M129.1,138.95c-0.75-0.26-1.15,0.52-1.23,1.18c-0.03,0.24-0.08,0.98,0.16,1.15
				c0.16,0.11,0.16-0.02,0.31,0.03c0.01-0.06,0.01-0.11,0.02-0.17c-0.42,0.05-1.12,0.09-1.5-0.09c-0.53-0.27-0.59-0.95-0.5-1.47
				c0.04-0.27,0.13-0.5,0.27-0.73c0.18-0.31,0.27-0.43,0.64-0.5c0.38-0.07,0.59,0.02,0.94,0.17c0.19,0.08,0.87,0.3,0.9,0.54
				c0.01,0.11,0.18,0.11,0.17,0c-0.06-0.52-1.21-0.83-1.64-0.93c-0.66-0.16-1.01,0.31-1.28,0.87c-0.22,0.46-0.41,1.51-0.04,1.94
				c0.44,0.51,1.47,0.45,2.04,0.38c0.09-0.01,0.12-0.13,0.02-0.17c0.03,0.01-0.15-0.03-0.14-0.02c-0.02,0.01-0.05,0.02-0.07,0.04
				c-0.11-0.21-0.16-0.43-0.16-0.67c-0.01-0.56,0.24-1.66,1.04-1.38C129.15,139.15,129.2,138.99,129.1,138.95L129.1,138.95z"/>
		</g>
	</g>
	<g>
		<path class="st82" d="M130.69,137.37c0.07-0.16,0.24-0.26,0.41-0.31c0.43-0.13,0.91-0.06,1.27,0.2c0.12,0.08,0.23,0.21,0.2,0.35
			c-0.02,0.07-0.07,0.13-0.12,0.19c-0.33,0.32-0.79,0.49-1.25,0.47c-0.11-0.01-0.23-0.02-0.33-0.08c-0.16-0.08-0.27-0.25-0.29-0.42
			c-0.03-0.18,0.03-0.36,0.14-0.5"/>
		<g>
			<path class="st69" d="M130.76,137.41c0.21-0.34,0.7-0.38,1.05-0.3c0.33,0.07,0.79,0.36,0.47,0.72c-0.15,0.17-0.43,0.27-0.65,0.32
				c-0.14,0.03-0.29,0.05-0.43,0.04c-0.53-0.25-0.66-0.54-0.41-0.87c0.06-0.09-0.09-0.18-0.15-0.09c-0.22,0.36-0.21,0.83,0.21,1.05
				c0.5,0.26,1.36-0.04,1.7-0.46c0.58-0.72-1.45-1.26-1.93-0.49C130.56,137.42,130.71,137.51,130.76,137.41L130.76,137.41z"/>
		</g>
	</g>
	<g>
		<path class="st96" d="M130.74,137.9c0.08-0.09,0.19-0.13,0.31-0.17c0.13-0.05,0.27-0.09,0.41-0.11s0.29,0,0.41,0.07
			c0.1,0.05,0.18,0.16,0.16,0.27c-0.02,0.07-0.08,0.13-0.15,0.17c-0.18,0.1-0.39,0.13-0.59,0.13c-0.11,0-0.23-0.02-0.33-0.06
			c-0.11-0.04-0.2-0.11-0.26-0.21"/>
	</g>
	<g>
		<path class="st97" d="M130.82,137.98c0.07-0.08,0.17-0.12,0.27-0.15c0.12-0.04,0.23-0.08,0.36-0.09c0.12-0.01,0.25,0,0.36,0.06
			c0.09,0.05,0.16,0.14,0.14,0.24c-0.02,0.07-0.07,0.11-0.13,0.15c-0.15,0.09-0.34,0.11-0.52,0.11c-0.1,0-0.2-0.01-0.29-0.05
			c-0.09-0.04-0.18-0.1-0.23-0.18"/>
	</g>
	<path class="st98" d="M132.74,137.64c0.19-0.04,0.31-0.2,0.44-0.34c0.04-0.04,0.09-0.09,0.15-0.1c0.08-0.01,0.15,0.04,0.22,0.09
		c0.14,0.12,0.28,0.25,0.4,0.39c0.02,0.02,0.04,0.05,0.05,0.08c0.01,0.04-0.01,0.08-0.03,0.11c-0.08,0.13-0.19,0.25-0.31,0.35
		c-0.5,0.44-1.14,0.72-1.81,0.8c-0.66,0.07-1.35-0.06-1.94-0.38c-0.17-0.09-0.33-0.2-0.44-0.35c-0.12-0.15-0.18-0.35-0.14-0.53
		c0.04-0.16,0.15-0.3,0.27-0.42c0.18-0.18,0.39-0.35,0.63-0.45c0.24-0.1,0.51-0.14,0.76-0.06c-0.09,0.15-0.19,0.3-0.28,0.45
		c-0.06,0.1-0.12,0.2-0.14,0.32c-0.03,0.21,0.1,0.42,0.29,0.52s0.4,0.13,0.62,0.11c0.49-0.04,0.98-0.26,1.28-0.65"/>
	<path class="st99" d="M134.49,135.22c-0.02,0.29-0.04,0.59-0.06,0.88c-0.15,0.07-0.33-0.02-0.46-0.12
		c-0.13-0.1-0.25-0.23-0.42-0.28c-0.08-0.02-0.16-0.02-0.23-0.01c-0.27,0.01-0.54,0.02-0.82,0.02c-0.04,0-0.09,0-0.12-0.02
		c-0.04-0.02-0.06-0.06-0.09-0.09c-0.12-0.12-0.31-0.13-0.48-0.12s-0.35,0.05-0.51-0.01c-0.05-0.02-0.09-0.04-0.14-0.06
		c-0.12-0.04-0.26-0.01-0.39-0.01c-0.13,0.01-0.28-0.03-0.35-0.14c-0.07-0.13,0.01-0.29,0.08-0.42c0.1-0.18,0.18-0.36,0.25-0.55"/>
	<path class="st100" d="M124.95,146.46c0.2-0.06,0.42-0.03,0.6,0.09c0.17,0.11,0.29,0.31,0.32,0.51c0.02,0.18-0.02,0.38,0.08,0.53
		c0.05,0.07,0.13,0.12,0.2,0.17c0.31,0.25,0.37,0.76,0.12,1.07c-0.04,0.05-0.08,0.09-0.11,0.15c-0.08,0.19,0.13,0.4,0.09,0.61
		c-0.02,0.1-0.1,0.18-0.17,0.25c-0.12,0.12-0.26,0.24-0.42,0.24c-0.09,0-0.18-0.04-0.27-0.04c-0.17,0.01-0.3,0.18-0.47,0.16
		c-0.11-0.01-0.19-0.09-0.29-0.15c-0.16-0.1-0.34-0.13-0.5-0.23c-0.14-0.09-0.24-0.23-0.31-0.38c-0.1-0.21-0.13-0.45-0.28-0.62
		c-0.07-0.08-0.16-0.15-0.24-0.23c-0.13-0.14-0.21-0.33-0.21-0.52c0-0.09,0.01-0.18,0.07-0.25c0.04-0.06,0.11-0.09,0.16-0.14
		c0.13-0.13,0.15-0.33,0.14-0.51s-0.05-0.37-0.03-0.55c0.01-0.06,0.02-0.12,0.07-0.16c0.11-0.1,0.3-0.01,0.44-0.08
		c0.13-0.06,0.15-0.24,0.24-0.35c0.11-0.13,0.33-0.14,0.48-0.05c0.15,0.09,0.25,0.25,0.3,0.42"/>
	<path class="st79" d="M128.6,154.42c0.79-0.25,1.14-0.64,1.91-0.96c0.16-0.06,0.34-0.16,0.35-0.33c0.01-0.17-0.16-0.32-0.13-0.49
		c0.02-0.08,0.08-0.14,0.1-0.22c0.08-0.22-0.13-0.47-0.04-0.69c0.03-0.08,0.11-0.15,0.12-0.24c0.02-0.13-0.09-0.24-0.1-0.37
		c-0.01-0.21,0.25-0.41,0.15-0.6c-0.03-0.06-0.1-0.1-0.14-0.16c-0.07-0.12,0-0.27,0.02-0.4c0.02-0.13,0.01-0.26,0-0.4
		c-0.04-0.61,0.13-1.21,0.18-1.81c0.05-0.6-0.01-1.21-0.07-1.81c-0.03-0.26-0.06-0.53-0.2-0.76c-0.13-0.21-0.35-0.35-0.56-0.48
		c-0.68-0.42-1.4-0.8-2.13-1.13c-0.3-0.13-0.61-0.26-0.93-0.26c-0.23,0-0.45,0.07-0.66,0.15c-0.51,0.19-0.89,0.44-1.32,0.79
		c0.34,0.11,0.58,0.25,0.93,0.36c0.64,0.21,1.29,0.43,1.86,0.78c0.27,0.16,0.53,0.37,0.64,0.66c0.06,0.16,0.07,0.34,0.08,0.52
		C128.79,149.13,128.83,151.87,128.6,154.42"/>
	<g>
		<path class="st61" d="M128.6,154.55c0.07,0.32,0.26,0.62,0.52,0.81c0.46,0.35,1.11,0.38,1.57,0.73c0.4,0.3,0.62,0.81,0.56,1.31
			c-0.01,0.08-0.03,0.16-0.01,0.23c0.01,0.08,0.06,0.16,0.13,0.18c0.06,0.02,0.12,0,0.17-0.02c0.56-0.18,1.1-0.4,1.62-0.68
			c0.02-0.01,0.04-0.02,0.06-0.04c0.02-0.03,0.02-0.06,0.02-0.1c0.01-0.28,0.02-0.57,0.02-0.85c0-0.27,0-0.55-0.13-0.78
			c-0.18-0.32-0.56-0.47-0.9-0.6c-0.16-0.06-0.33-0.12-0.49-0.18c-0.13-0.05-0.27-0.1-0.38-0.18c-0.27-0.19-0.38-0.53-0.56-0.81
			c-0.02-0.04-0.05-0.07-0.09-0.09c-0.07-0.04-0.16,0-0.23,0.04c-0.67,0.33-1.34,0.67-2.01,1"/>
		<g>
			<path class="st69" d="M128.44,154.59c0.19,0.61,0.54,0.93,1.11,1.18c0.56,0.25,1.05,0.32,1.36,0.89c0.2,0.37,0.01,0.8,0.21,1.12
				c0.34,0.55,2.08-0.31,2.28-0.72c0.19-0.4,0.11-1.39-0.1-1.79c-0.29-0.53-0.89-0.59-1.38-0.83c-0.29-0.14-0.58-0.37-0.78-0.63
				c-0.08-0.11-0.11-0.27-0.21-0.36c-0.1-0.09-0.13-0.13-0.26-0.14c-0.2-0.02-0.43,0.15-0.59,0.23c-0.56,0.28-1.12,0.56-1.68,0.83
				c-0.19,0.1-0.02,0.39,0.17,0.29c0.5-0.25,1.4-0.92,1.95-0.81c0.42,0.08,0.43,0.42,0.76,0.67c0.26,0.19,0.62,0.26,0.91,0.38
				c0.67,0.27,1.18,1.17,0.89,1.93c-0.16,0.43-1.4,0.95-1.65,0.45c-0.13-0.26-0.06-0.62-0.25-0.91c-0.62-0.94-2.04-0.68-2.41-1.86
				C128.7,154.3,128.37,154.39,128.44,154.59L128.44,154.59z"/>
		</g>
	</g>
	<g>
		<path class="st91" d="M122.25,153.01c0.07-0.25,0.37-0.59,0.63-0.55c0.09,0.01,0.25-0.12,0.33-0.09c1.49,0.6,2.97,1.21,4.46,1.81
			c0.73,0.3,1.46,0.59,2.15,0.97c0.42,0.23,0.75,0.66,1.03,1.04c0.32,0.43,0.43,1.01,0.31,1.53c-3.12-1.37-5.98-2.92-8.92-4.67"/>
		<g>
			<path class="st69" d="M122.36,153.07c0.78-1.23,3.56,0.53,4.64,0.97c0.83,0.34,1.72,0.62,2.5,1.08c0.52,0.23,0.94,0.61,1.24,1.13
				c0.25,1.1,0.03,1.37-0.67,0.83c-1.17-0.12-2.91-1.42-3.92-1.96c-1.3-0.7-2.57-1.43-3.84-2.18c-0.14-0.08-0.27,0.14-0.13,0.22
				c2.89,1.71,5.84,3.3,8.92,4.67c0.09,0.04,0.18-0.01,0.19-0.11c0.18-2.32-2.13-3.07-3.91-3.79c-0.74-0.3-1.49-0.6-2.23-0.91
				c-0.52-0.21-1.39-0.76-1.94-0.78c-0.51-0.02-0.83,0.32-1.07,0.7C122.06,153.08,122.28,153.21,122.36,153.07L122.36,153.07z"/>
		</g>
	</g>
	<g class="st11">
		<path class="st101" d="M65.83,128.06c-1.65-0.57-3.6-1.7-5.25-2.27c-0.76-0.26-1.52-0.52-2.26-0.85
			c-1.66-0.73-3.17-1.76-4.75-2.64c-0.23-0.13-0.52-0.25-0.75-0.12c-0.19,0.12-0.24,0.38-0.18,0.6c0.06,0.22,0.21,0.4,0.35,0.57
			c1.12,1.44,1.82,3.21,2.01,5.02c0.01,0.11,0.03,0.24,0.12,0.31c0.06,0.05,0.15,0.05,0.23,0.05c2.54-0.04,4.89-0.02,7.39-0.2
			C63.76,128.48,64.99,128.66,65.83,128.06"/>
	</g>
	<g class="st11">
		<path class="st101" d="M65.55,128.14c-1.46-0.43-3.38-1.26-4.84-1.69c-0.67-0.2-1.34-0.4-1.99-0.64
			c-1.46-0.55-2.79-1.34-4.18-2.01c-0.21-0.1-0.46-0.19-0.66-0.09c-0.17,0.09-0.22,0.29-0.16,0.46c0.05,0.16,0.18,0.3,0.3,0.44
			c0.99,1.1,1.61,2.43,1.77,3.81c0.01,0.09,0.03,0.18,0.11,0.23c0.06,0.04,0.13,0.04,0.2,0.04c2.21,0.05,4.47,0.13,6.67-0.01
			C63.68,128.62,64.81,128.6,65.55,128.14"/>
	</g>
	<g>
		<path class="st102" d="M49.97,147.4c-0.21-1.94-0.01-3.9,0.19-5.85c0.05-0.45,0.09-0.9,0.17-1.34c0.11-0.56,0.27-1.11,0.44-1.66
			c0.93-2.95,2.08-5.83,3.44-8.61c0.69-1.4,1.35-1.23,2.85-1.24c1.64-0.01,3.27-0.01,4.91-0.02c1.86-0.01,4-0.15,5.09-1.65
			c0.42-0.57,0.61-1.27,0.8-1.95c0.87-3.14,1.76-6.35,1.62-9.61c-0.04-1.1-0.18-2.3,0.43-3.22c0.38-0.58,1.03-0.98,1.29-1.62
			c0.26-0.64,0.08-1.37-0.15-2.01c-0.88-2.41-2.55-4.75-2.12-7.28c0.13-0.77,0.45-1.48,0.71-2.21c1.82-5.21,0.05-11.47-4.22-14.95
			c-1.66,2.34-0.78,5.57-1.31,8.39c-0.61,3.25-3.1,5.95-3.52,9.23c-0.09,0.71-0.09,1.46-0.42,2.1c-0.65,1.25-2.38,1.57-3.7,1.1
			c-1.32-0.47-2.34-1.53-3.32-2.53c-0.98-1-1.46-4.39-2.82-4.76c-2.66-0.72-5.99-0.3-6.86,2.31c-0.87,2.61-0.35,9.6,0.23,12.29
			c0.36,1.67,0.75,3.4,0.45,5.08c-0.49,2.76-2.73,4.9-5.13,6.36c-1.57,0.95-3.25,1.71-5.01,2.25c-1.7,0.52-3.66,0.98-4.55,2.53
			c-0.46,0.8-0.53,1.74-0.73,2.64c-0.76,3.4-3.34,6.04-5.81,8.5"/>
	</g>
	<g class="st103">
		<path class="st101" d="M45.47,102.21c0.02,0.68-0.38,1.44-0.2,2.1c0.21,0.71,0.23,1.73,0.6,2.37c0.82,1.38,1.6,2.61,2.55,4.08
			c0.23,0.35,0.71,0.55,0.95,0.89c0.34,0.49,0.83,0.77,1.23,1.19c0.22,0.24,0.83,0.76,0.72,1.12c-0.06,0.2-0.28,0.29-0.49,0.34
			c-0.62,0.15-1.28,0.08-1.91-0.07c-2.52-0.63-4.57-2.83-5.01-5.39c-0.14-0.81-0.14-1.63-0.07-2.45c0.13-1.56,0.54-3.18,1.65-4.29"
			/>
	</g>
	<g class="st103">
		<path class="st101" d="M45.52,103.59c0.01,0.52-0.3,1.11-0.15,1.61c0.16,0.55,0.17,1.33,0.46,1.82c0.63,1.07,1.23,2.01,1.97,3.14
			c0.18,0.27,0.55,0.42,0.73,0.69c0.26,0.37,0.64,0.59,0.94,0.92c0.17,0.18,0.64,0.58,0.56,0.86c-0.05,0.15-0.22,0.23-0.37,0.26
			c-0.48,0.11-0.99,0.06-1.47-0.06c-1.94-0.48-3.52-2.18-3.86-4.15c-0.11-0.62-0.1-1.26-0.05-1.89c0.1-1.2,0.42-2.45,1.27-3.3"/>
	</g>
	<path class="st104" d="M52.2,102c-0.8-1.03-1.73-2.11-3.01-2.34c-1.03-0.18-2.12,0.27-2.83,1.05c-0.71,0.78-1.05,1.84-1.08,2.89
		s0.22,2.09,0.6,3.07c1.02,2.64,2.94,4.91,5.36,6.35c0.39,0.23,0.88,0.45,1.29,0.25c0.46-0.22,0.56-0.82,0.53-1.33
		s-0.14-1.05,0.1-1.49"/>
	<g>
		<g>
			<path class="st30" d="M65.49,79.77c1.67,0.33,3.36,0.97,4.45,2.28c0.9,1.08,1.29,2.5,1.34,3.9c0.05,1.4-0.22,2.79-0.51,4.16
				c-0.38,1.77-0.82,3.54-1.3,5.29c-0.85,3.08-1.93,6.24-4.22,8.46c-3.28,3.18-7.09,5.76-10.18,9.11c0.17-1.06,0.39-3.91,1.07-4.73
				c3.3-3.95,5.07-8.21,7.78-12.59c0.89-1.45-0.83-3.25-0.26-4.85c0.57-1.6,1.46-3.35,1.01-4.99c-0.54-2,0.1-3.59,0.66-5.58
				c1.12,0.13,2.02,0.96,2.82,1.75c0.62,0.62,1.24,1.26,1.58,2.06c0.34,0.79,0.37,1.68,0.3,2.54c-0.15,1.97-0.77,3.87-1.27,5.78
				c-0.54,2.08-0.95,4.2-1.66,6.22c-0.72,2.02-1.78,3.98-3.42,5.37c-1.81,1.53-5.71,3.9-7.54,5.4c3.29-2.7,6.74-8.32,8.5-12.19
				c0.93-2.05,1.85-4.12,2.4-6.31s0.7-4.51,0.08-6.68c-0.19-0.67-1.09-1.52-0.56-1.98c1.79,1.5,2.71,4.16,2.49,6.49
				c-0.66,6.96-4.31,13.59-9.84,17.87c4.9-4.89,8.15-11.39,9.13-18.24"/>
			<g>
				<path class="st30" d="M65.23,80.71c8.04,2.01,4.25,13.76,1.72,18.82c-2.67,5.34-8.48,8.54-12.57,12.74
					c0.54,0.32,1.09,0.63,1.63,0.95c0.66-4.82,3.93-8.56,6.27-12.75c2.64-4.73,3.13-7.35,3.42-12.87c0.04-0.68-0.08-1.38-0.08-2.06
					c0.08-1.21,0.16-2.42,0.24-3.63c1.48,0.26,2.28,1.16,2.4,2.71c1.32,3.22-0.19,6.54-1.02,9.82c-0.94,3.75-2.03,6.92-5.14,9.47
					c-2.03,1.67-4.37,2.98-6.46,4.58c0.4,0.51,0.79,1.02,1.19,1.54c4.21-3.79,7.18-8.89,9.39-14.05c1.05-2.46,1.99-4.95,2.19-7.64
					c0.09-1.23,0.06-2.41-0.19-3.61c-0.11-0.51-0.83-1.84-0.72-2.28c-0.54,0.14-1.09,0.29-1.63,0.43c6.4,6.81-1.81,18.41-7.35,22.97
					c0.46,0.46,0.92,0.92,1.38,1.38c5.02-5.27,8.17-11.48,9.38-18.67c0.21-1.23-1.68-1.76-1.89-0.52
					c-1.15,6.85-4.08,12.77-8.87,17.81c-0.88,0.93,0.43,2.17,1.38,1.38c6.51-5.36,14.58-18.04,7.35-25.73
					c-0.49-0.53-1.47-0.28-1.63,0.43c-0.19,0.82,0.11,0.97,0.14,1.67c0.11,2.68,0.95,4.34,0.34,6.99c-0.37,1.61-1.03,3.13-1.68,4.64
					c-2.12,4.94-4.94,9.8-8.97,13.43c-0.81,0.73,0.3,2.22,1.19,1.54c2.7-2.07,5.9-3.68,8.3-6.12c2.84-2.89,3.62-6.88,4.58-10.67
					c1.39-5.46,3.04-11.91-3.92-14.12c-0.51-0.16-1.06,0.19-1.2,0.68c-1.7,5.88-0.33,12.75-3.01,18.09
					c-2.58,5.16-6.47,8.87-7.26,14.65c-0.12,0.89,0.88,1.72,1.63,0.95c3.35-3.44,7.57-6.09,10.71-9.7
					c2.66-3.06,3.68-7.08,4.63-10.93c1.54-6.25,2.05-12.34-5.34-14.19C64.52,78.52,64,80.41,65.23,80.71L65.23,80.71z"/>
			</g>
		</g>
		<g>
			<path class="st30" d="M65.45,93.47c-0.6-0.81-0.68-1.98-0.19-2.87c0.16-0.29,0.38-0.55,0.47-0.87c0.07-0.23,0.08-0.48,0.08-0.73
				c0.01-1.57,0-3.15-0.05-4.72"/>
			<g>
				<path class="st30" d="M66.3,92.97c-0.82-1.39,0.39-2.42,0.49-3.79c0.12-1.62,0-3.28-0.04-4.9c-0.03-1.26-1.99-1.26-1.96,0
					c0.05,2.03,0.36,4.2-0.47,6.06c-0.55,1.23-0.39,2.48,0.29,3.62C65.25,95.04,66.94,94.06,66.3,92.97L66.3,92.97z"/>
			</g>
		</g>
	</g>
	<g>
		<path class="st69" d="M70.47,96.72c0.23,5.98,0.63,11.96,1.03,17.94c0.05,0.75,0.1,1.49,0.15,2.24c0.14,2.15,0.29,4.29,0.43,6.44
			c0.02,0.34,0.05,0.7,0.2,1c0.41,0.81,1.48,0.95,2.39,0.98c1.08,0.03,2.18,0.05,3.24-0.16c0.42-0.09,0.88-0.24,1.09-0.62
			c0.13-0.23,0.14-0.5,0.14-0.77c0.07-3-0.13-5.99-0.33-8.99c-0.41-6.24-0.83-12.48-1.24-18.72c-2.26,0.17-4.53,0.35-6.79,0.52"/>
		<g>
			<path class="st69" d="M70.28,96.72c0.26,6.73,0.73,13.45,1.18,20.18c0.1,1.53,0.21,3.07,0.31,4.6c0.06,0.88-0.1,2.08,0.34,2.9
				c0.57,1.08,1.92,1.1,2.99,1.13c1.21,0.03,3.29,0.25,4.1-0.91c0.54-0.77,0.17-2.69,0.16-3.54c-0.03-1.5-0.12-3-0.21-4.49
				c-0.42-6.84-0.9-13.68-1.36-20.52c-0.01-0.1-0.08-0.2-0.2-0.2c-2.26,0.17-4.53,0.35-6.79,0.52c-0.25,0.02-0.25,0.41,0,0.39
				c1.29-0.1,2.59-0.2,3.88-0.3c2.01-0.15,2.74-0.09,2.88,2.05c0.19,2.79,0.37,5.58,0.56,8.38c0.18,2.78,0.37,5.55,0.55,8.33
				c0.15,2.24,0.88,5.45,0.31,7.64c-0.42,1.61-1.13,2.19-2.66,2.26c-0.54,0.03-1.09,0.02-1.63-0.01c-2.05-0.13-2.41-1.91-2.52-3.63
				c-0.16-2.45-0.33-4.89-0.49-7.34c-0.39-5.81-0.77-11.62-1-17.44C70.66,96.47,70.27,96.47,70.28,96.72L70.28,96.72z"/>
		</g>
	</g>
	<g>
		<path class="st105" d="M67.71,89.55c0.02,1.51,0.23,3.52,0.24,5.03c0,0.28,0.01,0.59,0.19,0.81c0.14,0.18,0.35,0.27,0.56,0.35
			c0.52,0.21,0.75,0.43,1.3,0.55c0.65,0.14,1.32,0.15,1.99,0.14c2.41-0.03,4.81-0.32,7.16-0.86c0.42-0.1,0.89-0.23,1.13-0.59
			c0.19-0.29,0.19-0.66,0.18-1c-0.02-1.23-0.05-2.46-0.07-3.69c-0.01-0.29-0.01-0.59-0.13-0.85c-0.12-0.26-0.39-0.48-0.68-0.45"/>
		<g>
			<path class="st61" d="M67.52,89.55c0.04,1.55,0.09,3.15,0.23,4.69c0.05,0.48-0.02,0.92,0.29,1.32c1.54,1.92,6.11,1.02,7.99,0.77
				c1.55-0.2,4.02-0.08,4.59-1.83c0.33-1.01,0.15-3.29-0.06-4.26c-0.18-0.84-0.08-1.19-0.95-1.44c-0.24-0.07-0.35,0.31-0.1,0.38
				c0.69,0.2,0.81,3.11,0.72,3.88c-0.17,1.53-0.64,1.96-2.03,2.52c-1.61,0.65-4.03,0.6-5.77,0.65c-2.01,0.05-3.91-0.1-4.3-2.33
				c-0.25-1.38-0.19-2.95-0.22-4.36C67.9,89.3,67.51,89.3,67.52,89.55L67.52,89.55z"/>
		</g>
	</g>
	<path class="st106" d="M70.68,88.17c-0.89,0.09-1.77,0.38-2.54,0.83c-0.19,0.11-0.39,0.26-0.44,0.47
		c-0.04,0.21,0.08,0.42,0.26,0.54s0.39,0.17,0.6,0.2c0.72,0.12,1.45,0.14,2.18,0.16c3,0.07,6.08,0.13,8.89-0.9
		c0.06-0.02,0.12-0.05,0.17-0.1c0.08-0.09,0.05-0.24-0.03-0.34c-0.08-0.09-0.2-0.14-0.32-0.18c-1.3-0.46-2.7-0.59-3.99-1.08"/>
	<g>
		<path class="st70" d="M70.79,89.19c-0.09-1.57-0.13-3.14-0.12-4.71c0-0.15,0-0.3,0.08-0.43c0.12-0.2,0.38-0.27,0.61-0.32
			c0.83-0.17,1.66-0.33,2.51-0.34c0.57,0,1.21,0.12,1.5,0.6c0.18,0.3,0.19,0.67,0.19,1.02c-0.01,1.25-0.01,2.5-0.02,3.75
			c0,0.09,0,0.18-0.05,0.25c-0.06,0.09-0.16,0.13-0.26,0.16c-1.42,0.46-2.99,0.46-4.41-0.01"/>
		<g>
			<path class="st69" d="M70.99,89.19c-0.08-1.35-0.12-2.71-0.12-4.07c0-0.95,0.52-1.21,1.38-1.36c0.68-0.12,1.98-0.41,2.64,0.03
				c0.69,0.47,0.48,1.55,0.48,2.27c0,0.61,0.07,1.27-0.01,1.87c-0.16,1.24-1.01,1.36-2.12,1.39c-0.8,0.02-1.59-0.12-2.36-0.34
				c-0.24-0.07-0.35,0.31-0.1,0.38c1.07,0.32,2.16,0.44,3.27,0.29c0.45-0.06,1.37-0.11,1.64-0.58c0.19-0.33,0.06-1.02,0.06-1.35
				c0-0.62,0.01-1.25,0.01-1.87c0-0.72,0.15-1.65-0.41-2.21c-0.43-0.42-1.12-0.45-1.68-0.44c-0.79,0.02-2.05,0.07-2.74,0.46
				c-0.55,0.32-0.45,0.87-0.44,1.45c0,1.36,0.05,2.71,0.12,4.07C70.61,89.44,71,89.44,70.99,89.19L70.99,89.19z"/>
		</g>
	</g>
	<g>
		<path class="st107" d="M81.99,90.98c-0.19-0.69-1.02-1.04-1.74-0.95c-0.11,0.01-0.22,0.04-0.32,0.01
			c-0.1-0.03-0.17-0.09-0.25-0.15c-0.3-0.23-0.66-0.39-1.04-0.41c-0.38-0.02-0.77,0.12-1.02,0.41c-0.11,0.13-0.19,0.29-0.32,0.4
			c-0.17,0.14-0.4,0.19-0.62,0.22c-0.33,0.04-0.66,0.05-0.98,0.14s-0.62,0.28-0.77,0.57c-0.26,0.52-0.02,1.34-0.33,1.85
			c-0.08,0.13-0.11,0.1-0.21,0.22c-0.42,0.53-0.36,1.38,0.13,1.85c0.17,0.16,0.39,0.29,0.44,0.52c0.02,0.1,0.01,0.21,0,0.31
			c-0.04,0.37-0.04,0.76,0.15,1.07c0.18,0.29,0.51,0.46,0.85,0.53s0.68,0.04,1.03,0.02"/>
		<g>
			<path class="st69" d="M82.16,90.88c-0.31-0.68-0.77-0.91-1.49-1.05c-0.45-0.09-0.78-0.17-1.21-0.32c-0.29-0.1-0.5-0.23-0.82-0.23
				c-0.89-0.02-1.74,0.84-2.49,1.09c-0.58,0.2-1.08,0.2-1.39,0.8c-0.19,0.37-0.09,0.79-0.16,1.18c-0.14,0.73-0.4,0.62-0.55,1.19
				c-0.19,0.74-0.02,1.06,0.33,1.69c0.42,0.76,0.25,0.77,0.43,1.46c0.04,0.16,0.1,0.33,0.19,0.47c0.46,0.66,1.3,0.64,2.01,0.61
				c0.25-0.01,0.25-0.4,0-0.39c-2.32,0.12-2.48-3.81-2.01-5.43c0.49-1.69,1.09-0.81,2.07-1.32c0.34-0.18,0.38-0.43,0.69-0.61
				c1.33-0.73,1.13-0.07,2.12,0.2c0.85,0.23,1.38-0.39,1.94,0.85C81.92,91.31,82.26,91.11,82.16,90.88L82.16,90.88z"/>
		</g>
	</g>
	<g>
		<g>
			<path class="st69" d="M79.36,92.83c0.25,0,0.25-0.39,0-0.39C79.11,92.44,79.11,92.83,79.36,92.83L79.36,92.83z"/>
		</g>
	</g>
	<g>
		<path class="st84" d="M80.16,90.07c-0.54-0.28-1.23,0.05-1.58,0.54c-0.07,0.1-0.15,0.22-0.27,0.27c-0.11,0.04-0.23,0.02-0.34,0
			c-0.38-0.05-0.78-0.01-1.14,0.12c-0.39,0.14-0.76,0.41-0.87,0.81c-0.15,0.51,0.13,1.11-0.15,1.56c-0.14,0.22-0.39,0.36-0.5,0.6
			c-0.06,0.14-0.07,0.3-0.07,0.46c0,0.23,0,0.47,0.11,0.67c0.16,0.29,0.5,0.43,0.66,0.71c0.22,0.4-0.01,0.95,0.24,1.34
			c0.06,0.09,0.14,0.17,0.23,0.24c0.55,0.44,1.26,0.68,1.97,0.63c0.14-0.01,0.28-0.02,0.4,0.04c0.09,0.04,0.15,0.12,0.22,0.18
			c0.39,0.35,1.04,0.33,1.42-0.03c0.17-0.16,0.29-0.38,0.48-0.51c0.25-0.16,0.57-0.14,0.84-0.26c0.46-0.21,0.65-0.79,0.58-1.29
			c-0.01-0.1-0.03-0.2,0-0.29c0.06-0.18,0.28-0.23,0.45-0.31c0.41-0.19,0.63-0.67,0.6-1.12s-0.29-0.86-0.63-1.15
			c-0.09-0.08-0.19-0.15-0.24-0.25c-0.06-0.11-0.06-0.24-0.05-0.37c0.02-0.31,0.06-0.61,0.02-0.92c-0.05-0.3-0.22-0.61-0.5-0.72
			c-0.37-0.15-0.81,0.05-1.18-0.09c-0.33-0.13-0.49-0.49-0.62-0.82"/>
		<g>
			<path class="st69" d="M80.21,89.88c-0.61-0.15-0.86-0.06-1.43,0.25c-0.44,0.24-0.58,0.45-1.09,0.56
				c-0.44,0.1-0.35-0.08-0.93,0.14c-0.45,0.18-0.82,0.46-0.99,0.93c-0.11,0.3,0.02,0.56-0.03,0.85c-0.09,0.48-0.47,0.84-0.59,1.26
				c-0.11,0.39-0.16,0.89,0.02,1.27c0.06,0.13,0.18,0.19,0.26,0.33c0.22,0.41,0.33,0.82,0.52,1.29c0.55,1.34,1.76,1.27,3.02,1.62
				c0.42,0.12,0.61,0.35,1.08,0.25c0.29-0.06,0.27-0.11,0.58-0.28c0.34-0.19,0.95-0.5,1.26-0.73c0.34-0.25,0.45-0.27,0.63-0.67
				c0.1-0.24,0.01-0.61,0.1-0.81c0.45-0.99,0.26,0.02,0.74-0.74c0.77-1.23-0.3-1.67-0.61-2.75c-0.15-0.52,0.2-1-0.2-1.49
				c-0.58-0.69-1.69-0.23-2.1-1.17c-0.1-0.23-0.44-0.03-0.34,0.2c0.35,0.79,0.52,0.62,1.12,0.97c1.1,0.64,1.17,1.04,1.24,2
				c0.66,0.55,0.67,1.33,0.05,2.33c-0.01,0.01-0.03,0.02-0.04,0.03c0.01-0.02-0.21,0.26-0.24,0.33c-0.51,1.21-1.13,1.9-2.42,1.99
				c-1.55,0.11-0.45,0.04-0.94,0c-1.42-0.11-1.88-0.22-2.54-1.61c-0.36-0.76-0.86-1.58-0.62-2.45c0.03-0.11,0.28-0.23,0.31-0.38
				c0.07-0.37,0.01-0.88,0.1-1.21c0,0.01,3.61-2.05,4-1.95C80.35,90.32,80.45,89.94,80.21,89.88L80.21,89.88z"/>
		</g>
	</g>
	<g>
		<path class="st91" d="M79.16,92.72c-0.69,0.21-1.03,0.73-1.13,1.44c-0.1,0.71,0.24,1.47,0.83,1.86c0.12,0.08,0.26,0.15,0.4,0.19
			c0.52,0.15,1.12-0.09,1.44-0.53c0.11-0.16,0.2-0.34,0.28-0.51c0.11-0.24,0.21-0.48,0.24-0.74c0.09-0.61-0.21-1.25-0.73-1.58
			c-0.52-0.33-1.23-0.31-1.74,0.03"/>
		<g>
			<path class="st69" d="M79.11,92.53c-0.94,0.34-1.44,1.27-1.26,2.26c0.19,1.03,1.2,1.96,2.28,1.56c0.99-0.37,1.54-1.84,1.17-2.8
				c-0.42-1.09-1.69-1.4-2.65-0.84c-0.22,0.13-0.02,0.47,0.2,0.34c0.82-0.48,1.9-0.16,2.15,0.82c0.18,0.72-0.29,1.85-1.02,2.1
				c-1.77,0.62-2.43-2.46-0.77-3.07C79.45,92.82,79.35,92.45,79.11,92.53L79.11,92.53z"/>
		</g>
	</g>
	<g>
		<path class="st108" d="M60.15,135.48c-0.79-0.58-1.51-1.24-2.15-1.98c4.98-2.15,10.67-2.13,15.67-4.2
			c0.07-0.03,0.16-0.06,0.23-0.03c0.11,0.04,0.13,0.19,0.13,0.3c0.02,0.57,0.05,1.15,0.07,1.72c0,0.08,0.01,0.16-0.03,0.23
			c-0.06,0.11-0.21,0.13-0.33,0.15c-1.38,0.18-2.68,0.7-3.99,1.18c-0.74,0.27-1.48,0.54-2.23,0.8c-2.37,0.81-4.77,1.55-7.19,2.2"/>
		<g>
			<path class="st69" d="M60.28,135.34c-0.3-0.24-1.21-0.79-1.39-1.19c-0.37-0.83,0.06-0.7,0.75-1.08c1.15-0.63,2.85-0.82,4.13-1.09
				c2.65-0.57,5.35-0.98,7.94-1.78c0.3-0.09,1.86-0.79,2.01-0.72c0.76,0.38-0.55,1.95-0.84,2.14c-1,0.62-2.79,0.9-3.91,1.3
				c-2.86,1.03-5.76,1.92-8.68,2.73c-0.24,0.07-0.14,0.44,0.1,0.38c3.99-1.1,7.82-2.72,11.79-3.82c1.84-0.51,3-0.57,1.89-3.04
				c-0.04-0.09-0.14-0.1-0.22-0.09c-1.15,0.16-2.34,0.8-3.47,1.1c-1.38,0.37-2.79,0.64-4.19,0.92c-2.81,0.56-5.58,1.13-8.25,2.21
				c-0.14,0.06-0.19,0.21-0.09,0.33c0.67,0.72,1.37,1.37,2.15,1.98C60.2,135.77,60.48,135.5,60.28,135.34L60.28,135.34z"/>
		</g>
	</g>
	<path class="st67" d="M60.22,135.75c-0.56,1.6-0.49,2.93,0.09,4.59c0.43,0.16,0.91,0.02,1.35-0.11c2.61-0.82,5.22-1.63,7.84-2.45
		c1.48-0.46,2.96-0.93,4.44-1.39c0.13-0.04,0.26-0.08,0.35-0.18c0.11-0.13,0.13-0.31,0.14-0.48c0.06-1.31,0.06-2.63,0.01-3.94
		c0-0.06-0.01-0.12-0.04-0.17c-0.06-0.08-0.18-0.08-0.28-0.07c-1.11,0.14-2.18,0.48-3.24,0.82
		C67.32,133.49,63.77,134.62,60.22,135.75"/>
	<path class="st67" d="M61.06,132.53c-0.16,0.13-0.33,0.28-0.42,0.46c-0.1,0.19-0.12,0.43,0,0.6c0.17,0.27,0.55,0.29,0.86,0.27
		c0.41-0.03,0.81-0.08,1.22-0.17c0.22-0.05,0.44-0.1,0.62-0.23c0.18-0.13,0.32-0.34,0.3-0.56c-0.02-0.24-0.21-0.43-0.42-0.54
		c-0.38-0.21-0.84-0.23-1.27-0.16s-0.83,0.24-1.23,0.41"/>
	<path class="st67" d="M72.98,128.85c-0.31,0.09-0.33,0.23-0.44,0.43c-0.03,0.07-0.06,0.13-0.08,0.21c-0.02,0.09,0,0.19,0.03,0.27
		c0.13,0.34,0.54,0.53,0.88,0.43s0.57-0.5,0.5-0.85c-0.04-0.21-0.18-0.4-0.37-0.48c-0.24-0.1-0.36-0.06-0.6,0.01"/>
	<g>
		<path class="st53" d="M24.22,138.46c-4.03,4.21-8.02,8.57-10.73,13.72C8.72,161.25,8.31,171.9,8,182.14
			c-0.01,0.4,0,0.86,0.29,1.14c0.24,0.23,0.61,0.26,0.94,0.28c7.47,0.45,14.94,0.84,22.41,1.22c11.79,0.61,27.11,1.2,38.59-1.57
			c0.32-0.08,0.67-0.18,0.85-0.45c0.15-0.22,0.15-0.5,0.14-0.76c-0.13-4.94-1.9-9.67-3.65-14.28c-1.67-4.39-4.14-8.78-5.84-13.16
			c-1.03-2.65-4.65-5.36-6.58-7.43c-3.71-3.98-9.65-4.73-15.08-5.08s-11.3-0.68-15.47-4.17"/>
		<g>
			<path class="st53" d="M22.98,137.22c-4.92,5.16-9.64,10.51-12.44,17.16c-2.55,6.06-3.47,12.66-3.92,19.18
				c-0.23,3.38-2.27,10.46,2.15,11.7c2.94,0.83,6.76,0.43,9.8,0.6c4.36,0.24,8.72,0.47,13.07,0.69c6.74,0.34,13.5,0.62,20.25,0.46
				c5.61-0.13,13.77,0.24,19.01-2.18c4.38-2.02,1.04-9.95-0.05-13.21c-2.16-6.41-4.82-14.06-8.62-19.65
				c-3.26-4.8-8.58-9.21-14.25-10.63c-7.55-1.89-15.91-0.08-22.51-4.98c-1.82-1.35-3.58,1.7-1.78,3.04
				c4.84,3.59,10.55,3.97,16.36,4.41c3.57,0.27,7.48,0.52,10.71,2.25c2.73,1.45,5.2,4.09,7.29,6.37c2.39,2.6,3.59,6.42,5.07,9.6
				c1.87,4.01,3.62,8.06,4.9,12.3c0.58,1.92,1.55,4.04,0.69,6c0.1,1.4-0.53,2.01-1.91,1.82c-1.39,0.26-2.79,0.47-4.19,0.64
				c-3.28,0.4-6.59,0.59-9.88,0.69c-6.54,0.19-13.07-0.05-19.6-0.37c-3.92-0.19-7.84-0.4-11.77-0.61c-1.87-0.1-3.74-0.2-5.6-0.31
				c-0.86-0.05-5.64,0.31-6.01-0.04c-0.95-0.92,0.37-8.82,0.5-10.3c0.32-3.81,0.86-7.61,1.87-11.31
				c2.28-8.35,7.48-14.68,13.34-20.83C27.03,138.06,24.54,135.57,22.98,137.22L22.98,137.22z"/>
		</g>
	</g>
	<g>
		<path class="st94" d="M148.97,156.63c0.1,0.68,0.13,1.37,0.08,2.05c0,0.05-0.01,0.1-0.03,0.15c-0.03,0.06-0.1,0.09-0.16,0.12
			c-1.41,0.74-2.81,1.47-4.22,2.21c-1.72,0.9-3.53,1.72-5.37,2.33c-0.02,0.01-0.04,0.01-0.07,0.01c-0.07-0.01,0-0.02,0.01-0.08
			c0.02-0.54,0.04-1.07,0.05-1.61"/>
		<g>
			<path class="st69" d="M148.8,156.63c0.21,1.85-0.6,2.48-2.13,3.28c-1.13,0.59-2.26,1.2-3.41,1.76c-0.53,0.26-3.62,1.98-4.02,1.65
				c0.41,0.33,0.19-1.17,0.21-1.52c0.01-0.22-0.33-0.22-0.34,0c-0.01,0.34,0.08,1.28-0.06,1.59c-0.03,0.07-0.03,0.15,0.03,0.2
				c0.7,0.62,5.28-2.09,5.96-2.45c0.7-0.37,1.41-0.74,2.11-1.1c0.42-0.22,1.57-0.59,1.84-0.97c0.49-0.67,0.25-1.62,0.16-2.44
				C149.11,156.42,148.78,156.42,148.8,156.63L148.8,156.63z"/>
		</g>
	</g>
	<g>
		<g>
			<path class="st109" d="M50.26,106.69c-0.11-0.01-0.23-0.03-0.34-0.04c0.07,0.18,0.15,0.35,0.22,0.53
				c0.09,0.19,0.15,0.37,0.27,0.55c0.48,0.72,0.06-0.14-0.07-0.53c-0.34-1.08,0.1-2.23-0.15-3.34c-0.14-0.62-0.52-1.45-1.22-1.59
				c-0.75-0.16-1.15,0.47-1.19,1.12c-0.03,0.47,0.46,0.75,0.86,0.66c0.22-0.05,0.38-0.11,0.53-0.28c0.05-0.06,0.37-0.6,0.11-0.43
				c-0.23,0-0.46,0-0.69,0c0.43,0.31,0.26,1.73,0.3,2.2c0.05,0.7,0.34,0.93,0.62,1.52c0.41,0.87,0.33,1.87,1.7,1.62
				c0.86-0.16,0.5-1.47-0.36-1.32c0.2-0.04,0.31,0.47,0.21-0.23c-0.03-0.18-0.08-0.3-0.16-0.46c-0.34-0.66-0.63-1.06-0.66-1.84
				c-0.04-0.94-0.13-2.07-0.95-2.66c-0.19-0.13-0.5-0.12-0.69,0c-0.43,0.28-0.45,0.54-0.62,1.02c0.16-0.16,0.32-0.32,0.48-0.48
				c-0.06,0.01-0.12,0.03-0.17,0.04c0.29,0.22,0.58,0.44,0.86,0.66c-0.34,0.24-0.43,0.52-0.27,0.83c0.04,0.3,0.06,0.61,0.04,0.92
				c-0.01,0.44-0.1,0.87-0.09,1.31c0.01,0.71,0.25,1.43,0.59,2.05c0.5,0.92,1.88,1.65,2.66,0.59c0.32-0.43,0.28-0.96,0.04-1.42
				c-0.2-0.37-0.52-0.61-0.71-1c-0.12-0.23-0.16-0.49-0.3-0.72c-0.7-1.14-1.79-0.81-2.16,0.37
				C48.68,107.17,49.99,107.52,50.26,106.69L50.26,106.69z"/>
		</g>
	</g>
	<path class="st110" d="M57.06,106.87c-1.86-2.25-3.64-7.11-6.66-8.38c-2.08-0.87-5.05,1.03-5.6,1.72c-0.53,0.67-0.7,1.13-0.92,1.96
		c-0.82,3-1.09,6.14-0.81,9.23c0.17,1.79,0.52,3.6,0.2,5.37c-0.41,2.31-1.92,4.31-3.76,5.77s-4,2.46-6.13,3.43
		c-0.83,0.38-1.69,0.77-2.6,0.73c-1.15-0.04-2.16-0.76-3-1.55c-1.82-1.72-3.12-3.9-4.41-6.06c-3.12-5.25-6.32-10.71-6.95-16.78
		c-0.45-4.34,0.44-8.72,1.79-12.86c0.96-2.94,2.16-5.84,3.98-8.34c2.25-3.09,5.36-5.46,8.59-7.52c3.77-2.41,7.81-4.49,12.18-5.46
		c4.37-0.96,9.1-0.73,13.09,1.29c1.87,0.95,3.53,2.27,5.07,3.69c2.5,2.31,4.83,5.14,5.19,8.53c0.22,2.06-0.32,4.13-1.03,6.08
		c-1.3,3.55-4.47,14.47-6.87,17.39"/>
	<g>
		<path class="st30" d="M28.4,77.47c-2.92-0.29-5.7-1.83-7.49-4.16c-0.57-0.74-1.05-1.58-1.17-2.5c-0.17-1.33,0.43-2.63,1.08-3.8
			c1.61-2.88,3.73-5.56,6.51-7.34s6.29-2.6,9.47-1.7c3.18,0.9,5.87,3.7,6.17,6.99c0.13,1.48-0.19,2.96-0.63,4.37
			c-0.5,1.62-1.16,3.23-2.28,4.51c-1.11,1.28-2.73,2.2-4.43,2.15"/>
		<g>
			<path class="st30" d="M28.71,76.34c-4.47-0.72-9.17-3.62-6.52-9.35c1.32-2.86,4.18-5.61,6.96-7.02
				c3.48-1.75,8.27-1.71,10.98,1.42c3.22,3.72,1.22,12.82-4.5,13.42c-1.49,0.16-1.5,2.51,0,2.35c5.6-0.59,9.03-6.82,8.51-12.21
				c-0.55-5.68-6.17-9.05-11.53-8.43c-5.89,0.68-11.41,5.79-13.47,11.25c-2.2,5.81,3.86,10.01,8.95,10.84
				C29.57,78.84,30.2,76.58,28.71,76.34L28.71,76.34z"/>
		</g>
	</g>
</g>
</svg>
