<?xml version="1.0" encoding="utf-8"?>
<!-- Generator: Adobe Illustrator 23.0.3, SVG Export Plug-In . SVG Version: 6.00 Build 0)  -->
<svg version="1.1" id="Layer_1" xmlns="http://www.w3.org/2000/svg" xmlns:xlink="http://www.w3.org/1999/xlink" x="0px" y="0px"
	 viewBox="0 0 213 194" style="enable-background:new 0 0 213 194;" xml:space="preserve">
<style type="text/css">
	.st0{fill:#FFFFFF;}
	.st1{opacity:0.8;fill:#0E0733;}
	.st2{fill:#0E0733;}
	.st3{fill:#FFFFFF;stroke:#FFFFFF;stroke-miterlimit:10;}
	.st4{fill:none;stroke:#0E0733;stroke-width:0.4427;stroke-miterlimit:10;}
	.st5{fill:none;stroke:#0E0733;stroke-width:0.5541;stroke-linecap:round;stroke-miterlimit:10;}
	.st6{fill:#122A51;}
	.st7{opacity:0.04;clip-path:url(#SVGID_4_);}
	.st8{fill:#231F20;stroke:#FFFFFF;stroke-width:1.2317;stroke-miterlimit:10;}
	.st9{fill:#FFFFFF;stroke:#FFFFFF;stroke-width:1.2317;stroke-miterlimit:10;}
	.st10{fill:none;stroke:#FFFFFF;stroke-width:8.0133;stroke-miterlimit:10;}
	.st11{opacity:0.2;}
	.st12{clip-path:url(#SVGID_6_);}
	.st13{fill:#231F20;stroke:#FFFFFF;stroke-width:1.2257;stroke-miterlimit:10;}
	.st14{fill:none;stroke:#122A51;stroke-width:7.9746;stroke-miterlimit:10;}
	.st15{fill:none;stroke:#FFFFFF;stroke-width:7.9746;stroke-miterlimit:10;}
	.st16{opacity:0.7;fill:#122A51;}
	.st17{fill:#C7C8CA;}
	.st18{fill:#58595B;}
	.st19{fill:#6D6E71;}
	.st20{fill:#F1F2F2;}
	.st21{fill:#939598;}
	.st22{fill:#E2E3E4;}
	.st23{fill:none;stroke:#FFFFFF;stroke-width:2.4152;stroke-linecap:round;stroke-linejoin:round;stroke-miterlimit:10;}
	.st24{fill:#575A5E;}
	.st25{fill:#BCBEC0;}
	.st26{fill:#9D9FA2;}
	.st27{opacity:0.7;fill:#AD0E0E;}
	.st28{opacity:0.15;fill:#AD0E0E;}
	.st29{opacity:0.04;clip-path:url(#SVGID_8_);}
	.st30{fill:#231F20;}
	.st31{fill:none;stroke:#231F20;stroke-width:6.4328;stroke-miterlimit:10;}
	.st32{fill:none;}
	.st33{opacity:0.8;fill:#4D4D4F;}
	.st34{opacity:0.75;fill:#C7C8CA;}
	.st35{opacity:0.8;fill:none;stroke:#4D4D4F;stroke-width:0.8942;stroke-miterlimit:10;}
	.st36{fill:#6D6E70;stroke:#6D6E70;stroke-width:2.6104;stroke-miterlimit:10;}
	.st37{fill:#FFFFFF;stroke:#FFFFFF;stroke-width:2.6884;stroke-miterlimit:10;}
	.st38{fill:#6D6E70;stroke:#6D6E70;stroke-width:2.3504;stroke-miterlimit:10;}
	.st39{fill:#FFFFFF;stroke:#FFFFFF;stroke-width:2.2636;stroke-miterlimit:10;}
	.st40{fill:none;stroke:#FFFFFF;stroke-width:0.4427;stroke-miterlimit:10;}
	.st41{fill:#A6A8AB;}
	.st42{fill:none;stroke:#FFFFFF;stroke-width:0.5541;stroke-linecap:round;stroke-miterlimit:10;}
	.st43{fill:none;stroke:#FFFFFF;stroke-width:0.8698;stroke-miterlimit:10;}
	.st44{opacity:0.04;clip-path:url(#SVGID_10_);}
	.st45{fill:#231F20;stroke:#FFFFFF;stroke-miterlimit:10;}
	.st46{fill:none;stroke:#FFFFFF;stroke-width:6.5061;stroke-miterlimit:10;}
	.st47{opacity:0.04;clip-path:url(#SVGID_12_);}
	.st48{opacity:0.04;clip-path:url(#SVGID_14_);}
	.st49{fill:none;stroke:#6D6E71;stroke-miterlimit:10;}
	.st50{fill:none;stroke:#122A51;stroke-miterlimit:10;}
	.st51{fill:#A7A2A9;}
	.st52{fill:#140152;}
	.st53{fill:#AD0E0E;}
	.st54{fill:none;stroke:#0E0733;stroke-miterlimit:10;}
	.st55{opacity:0.04;clip-path:url(#SVGID_18_);}
	.st56{opacity:0.8;fill:none;stroke:#FFFFFF;stroke-width:0.8942;stroke-miterlimit:10;}
	.st57{opacity:0.04;clip-path:url(#SVGID_20_);}
	.st58{fill:#6D6E70;stroke:#6D6E70;stroke-width:1.9895;stroke-miterlimit:10;}
	.st59{fill:#FFFFFF;stroke:#FFFFFF;stroke-width:2.0489;stroke-miterlimit:10;}
	.st60{fill:#020202;}
	.st61{fill:#151515;}
	.st62{fill:#1D1C1C;stroke:#151515;stroke-width:0.2934;stroke-miterlimit:10;}
	.st63{fill:#8E8D8C;}
	.st64{fill:#181818;stroke:#121111;stroke-width:0.3373;stroke-linecap:round;stroke-linejoin:round;stroke-miterlimit:10;}
	.st65{fill:#2A2B2A;stroke:#121111;stroke-width:0.3373;stroke-linecap:round;stroke-linejoin:round;stroke-miterlimit:10;}
	.st66{fill:#1D1D1D;stroke:#121111;stroke-width:0.3912;stroke-miterlimit:10;}
	.st67{fill:#2A2B2A;stroke:#121111;stroke-width:0.3912;stroke-miterlimit:10;}
	.st68{fill:#050505;}
	.st69{fill:#121111;}
	.st70{fill:#1D1D1D;}
	.st71{fill:#15172D;}
	.st72{fill:#282827;stroke:#121111;stroke-width:0.3912;stroke-miterlimit:10;}
	.st73{fill:#232323;}
	.st74{fill:#1B1F39;}
	.st75{fill:#121422;}
	.st76{fill:#0F1018;}
	.st77{fill:#1D1D1D;stroke:#121111;stroke-width:0.3912;stroke-linecap:round;stroke-miterlimit:10;}
	.st78{fill:#383838;stroke:#121111;stroke-width:0.253;stroke-miterlimit:10;}
	.st79{fill:#1D1D1D;stroke:#121111;stroke-width:0.3373;stroke-miterlimit:10;}
	.st80{fill:#353535;stroke:#121111;stroke-width:0.1686;stroke-miterlimit:10;}
	.st81{fill:#121112;}
	.st82{fill:#353535;}
	.st83{fill:#2A2B2A;}
	.st84{fill:#282827;}
	.st85{fill:#2A2B2A;stroke:#121111;stroke-width:0.3373;stroke-miterlimit:10;}
	.st86{fill:#050505;stroke:#121111;stroke-width:0.3373;stroke-miterlimit:10;}
	.st87{fill:#050505;stroke:#121111;stroke-width:0.253;stroke-miterlimit:10;}
	.st88{fill:#232323;stroke:#121111;stroke-width:0.3373;stroke-miterlimit:10;}
	.st89{fill:#161311;stroke:#171412;stroke-width:0.1525;stroke-miterlimit:10;}
	.st90{fill:#282827;stroke:#121111;stroke-width:0.253;stroke-miterlimit:10;}
	.st91{fill:#1B1C1C;}
	.st92{fill:#0B0B0B;}
	.st93{fill:#AAAAAA;}
	.st94{fill:#181818;}
	.st95{fill:#474748;}
	.st96{fill:#49494A;}
	.st97{fill:#575757;}
	.st98{fill:#1D1D1D;stroke:#121111;stroke-width:0.1686;stroke-miterlimit:10;}
	.st99{fill:#232323;stroke:#121111;stroke-width:0.1686;stroke-miterlimit:10;}
	.st100{fill:#181818;stroke:#121111;stroke-width:0.253;stroke-miterlimit:10;}
	.st101{fill:#794632;}
	.st102{fill:#8E5944;}
	.st103{opacity:0.55;}
	.st104{fill:none;stroke:#814E45;stroke-width:1.1842;stroke-linecap:round;stroke-miterlimit:10;}
	.st105{fill:#1D1C1C;}
	.st106{fill:#333333;stroke:#1D1C1C;stroke-width:0.3912;stroke-miterlimit:10;}
	.st107{fill:#3E3C3C;}
	.st108{fill:#161616;}
	.st109{fill:#804B48;}
	.st110{fill:#231F20;stroke:#231F20;stroke-width:2.3684;stroke-miterlimit:10;}
	.st111{fill:#AD0E0E;stroke:#AD0E0E;stroke-miterlimit:10;}
	.st112{fill:#FFFFFF;stroke:#FFFFFF;stroke-width:0.2419;stroke-miterlimit:10;}
	.st113{fill:#FFFFFF;stroke:#FFFFFF;stroke-width:0.3465;stroke-miterlimit:10;}
	.st114{fill:#FFFFFF;stroke:#FFFFFF;stroke-width:0.3294;stroke-miterlimit:10;}
	.st115{fill:#FFFFFF;stroke:#FFFFFF;stroke-width:1.0418;stroke-miterlimit:10;}
	.st116{fill:#FFFFFF;stroke:#FFFFFF;stroke-width:1.5972;stroke-miterlimit:10;}
	.st117{fill:none;stroke:#0E0733;stroke-width:6;stroke-miterlimit:10;}
	.st118{fill:none;stroke:#0E0733;stroke-width:6.7456;stroke-miterlimit:10;}
	.st119{fill:#FFFFFF;stroke:#FFFFFF;stroke-width:6.7456;stroke-miterlimit:10;}
	.st120{fill:none;stroke:#0E0733;stroke-width:10;stroke-miterlimit:10;}
	.st121{opacity:0.25;}
	.st122{clip-path:url(#SVGID_22_);}
	.st123{opacity:0.1;fill:#AB1F23;}
	.st124{opacity:0.2;fill:#AB1F23;}
	.st125{fill:none;stroke:#0E0733;stroke-width:7.746;stroke-miterlimit:10;}
	.st126{fill:#FFFFFF;stroke:#FFFFFF;stroke-width:4.2927;stroke-miterlimit:10;}
	.st127{fill:#FFFFFF;stroke:#FFFFFF;stroke-width:37.5013;stroke-miterlimit:10;}
	.st128{fill:#FFFFFF;stroke:#FFFFFF;stroke-width:8.3809;stroke-miterlimit:10;}
	.st129{fill:#FFFFFF;stroke:#FFFFFF;stroke-width:17.1552;stroke-miterlimit:10;}
	.st130{fill:#FFFFFF;stroke:#FFFFFF;stroke-width:18;stroke-miterlimit:10;}
	.st131{fill:none;stroke:#FFFFFF;stroke-width:2;stroke-miterlimit:10;}
	.st132{opacity:0.75;fill:#FFFFFF;}
	.st133{opacity:0.04;clip-path:url(#SVGID_28_);}
	.st134{fill:#FFFFFF;stroke:#FFFFFF;stroke-width:1.2603;stroke-miterlimit:10;}
	.st135{fill:#FFFFFF;stroke:#FFFFFF;stroke-width:2.7067;stroke-miterlimit:10;}
	.st136{fill:#FFFFFF;stroke:#FFFFFF;stroke-width:1.8334;stroke-miterlimit:10;}
	.st137{fill:none;stroke:#FFFFFF;stroke-width:3.9376;stroke-miterlimit:10;}
	.st138{clip-path:url(#SVGID_32_);}
	.st139{fill:none;stroke:#122A51;stroke-width:0.4427;stroke-miterlimit:10;}
	.st140{fill:none;stroke:#122A51;stroke-width:0.5541;stroke-linecap:round;stroke-miterlimit:10;}
	.st141{opacity:0.04;clip-path:url(#SVGID_34_);}
</style>
<g>
	<defs>
		
			<rect id="SVGID_3_" x="-1" y="-1272.26" transform="matrix(-1 -4.489044e-11 4.489044e-11 -1 636 -1705.7606)" width="638" height="838.76"/>
	</defs>
	<clipPath id="SVGID_2_">
		<use xlink:href="#SVGID_3_"  style="overflow:visible;"/>
	</clipPath>
	<g style="opacity:0.04;clip-path:url(#SVGID_2_);">
		<circle class="st8" cx="50.83" cy="-19.57" r="62.84"/>
		<circle class="st8" cx="190.38" cy="178.74" r="21.74"/>
		<polyline class="st10" points="-511.85,1013 -268.11,845.51 -108.68,903.6 27.57,835.6 137.52,714.13 160.39,574.6 261.04,559.79 
			401.77,634.18 539.27,806.78 710.87,933.04 725.54,808.99 509.79,487.36 426.86,394.81 315.5,189.89 336.46,-56.47 262.7,-201.5 
			250.32,-321.75 288.8,-443.17 383.28,-502.45 490.59,-633.99 546.29,-773.57 439.95,-934.56 375.01,-1086.01 229.68,-1148.5 
			105.05,-1195.76 -71.56,-1191.13 -254.56,-1192.22 -477.75,-1105.65 -681.41,-929.71 -790.33,-842.07 -889.11,-737.96 
			-917.22,-609.23 -1036.81,-556.98 -1119.07,-415.37 -1135.37,-161.55 -1159.92,118.12 -1219.96,312.95 -1128.82,455.38 
			-1143.05,590.43 -1067.51,678.45 		"/>
	</g>
</g>
<g class="st11">
	<defs>
		<rect id="SVGID_5_" y="-2996.5" class="st11" width="1366" height="1222"/>
	</defs>
	<clipPath id="SVGID_4_">
		<use xlink:href="#SVGID_5_"  style="overflow:visible;"/>
	</clipPath>
	<g style="clip-path:url(#SVGID_4_);">
		<polyline class="st14" points="453.74,76.4 696.3,-90.28 854.96,-32.47 990.55,-100.15 1099.97,-221.02 1122.72,-359.88 
			1222.89,-374.62 1362.94,-300.59 1499.77,-128.83 1670.54,-3.18 1685.15,-126.62 1470.44,-446.7 1387.91,-538.8 1277.08,-742.73 
			1297.95,-987.9 1224.55,-1132.23 1212.22,-1251.9 1250.52,-1372.73 1344.54,-1431.73 1451.33,-1562.63 1506.76,-1701.53 
			1400.93,-1861.75 1336.31,-2012.46 1191.68,-2074.65 1067.65,-2121.69 891.9,-2117.08 709.78,-2118.16 487.67,-2032.01 
			285,-1856.92 176.61,-1769.7 78.31,-1666.1 50.33,-1537.98 -68.68,-1485.99 -150.55,-1345.06 -166.76,-1092.48 -191.2,-814.15 
			-250.95,-620.27 -160.25,-478.53 -174.41,-344.13 -99.24,-256.53 		"/>
	</g>
</g>
<g>
	<path class="st111" d="M91.32,155.29c-1.28-2.34-3.89-3.66-6.55-3.5c-5.35,0.32-10.74-0.04-16-1.06c-1.49-0.29-2.93-0.84-4.16-1.72
		c-6.7-4.8-0.76-12.98-3.32-19.2c-1.51-3.67-5.81-6.12-5.97-10.09c-0.1-2.52,1.39-5.64-0.57-7.23c-0.7-0.57-1.65-0.7-2.54-0.86
		c-4.03-0.74-8.5-4.02-7.47-7.99c0.31-1.18,1.07-2.19,1.81-3.16c2.85-3.71,5.71-7.42,8.56-11.13c1.18-1.54,2.39-3.12,2.93-4.98
		c0.6-2.05,0.35-4.24,0.15-6.36c-1.16-12.42-3.15-26.05,6.96-41.9c1.97-3.09,4.64-5.67,7.73-7.64c7.17-4.58,13.51-8.27,19.65-9.22
		c5.61-0.86,11.31-0.87,16.98-0.62c10.96,0.47,22.06,1.92,32.11,6.33c10.05,4.41,19.02,12.08,23.14,22.25
		c1.92,4.75,2.74,9.88,3.12,15c0.82,10.91-0.3,21.95-3.29,32.47c-4.38,15.45-12.84,30.51-11.1,46.48c0.84,7.73,4.04,15,5.49,22.63
		c0.22,1.17,0.35,2.53-0.45,3.41c-0.77,0.84-2.06,0.88-3.2,0.85c0,0-29.75,3.62-57.88,0.53c-2.29-0.25-4.04-2.14-4.08-4.44
		C93.32,161.59,92.9,158.19,91.32,155.29z"/>
	<path class="st112" d="M114.48,52.24l-2.46-0.35c0.24-2.75-0.08-5.43-0.88-7.92l2.08-0.84c0.7-0.28,1.04-1.08,0.76-1.79l0,0
		c-0.28-0.7-1.08-1.04-1.79-0.76l-2.07,0.83c-1.16-2.43-2.79-4.62-4.79-6.42l1.35-1.73c0.47-0.6,0.36-1.46-0.23-1.93
		s-1.46-0.36-1.93,0.23l-1.35,1.73c-2.13-1.45-4.57-2.51-7.23-3.07l0.35-2.48c0.11-0.75-0.42-1.45-1.17-1.55
		c-0.75-0.11-1.45,0.42-1.55,1.17l-0.35,2.48c-2.76-0.2-5.44,0.15-7.93,0.99l-0.85-2.1c-0.28-0.7-1.08-1.04-1.79-0.76
		c-0.7,0.28-1.04,1.08-0.76,1.79l0.85,2.12c-2.35,1.16-4.47,2.76-6.21,4.72l-2.07-1.62c-0.6-0.47-1.46-0.36-1.93,0.23
		c-0.47,0.6-0.36,1.46,0.23,1.93l2.08,1.63c-1.48,2.19-2.55,4.7-3.09,7.43l-2.46-0.35c-0.75-0.11-1.45,0.42-1.55,1.17
		c-0.11,0.75,0.42,1.45,1.17,1.55l2.5,0.35c-0.16,2.67,0.2,5.27,1.01,7.68l-2.56,1.03c-0.7,0.28-1.04,1.08-0.76,1.79
		c0.28,0.7,1.08,1.04,1.79,0.76l2.58-1.04c1.15,2.32,2.73,4.41,4.65,6.15l-1.73,2.21c-0.47,0.6-0.36,1.46,0.23,1.93
		c0.6,0.47,1.46,0.36,1.93-0.23l1.73-2.21c2.13,1.45,4.57,2.51,7.23,3.07l-0.35,2.48c-0.11,0.75,0.42,1.45,1.17,1.55
		c0.75,0.11,1.45-0.42,1.55-1.17l0.35-2.48c2.66,0.2,5.26-0.13,7.68-0.9l1.02,2.54c0.28,0.7,1.08,1.04,1.79,0.76
		s1.04-1.08,0.76-1.79l-1.02-2.53c2.4-1.15,4.57-2.75,6.35-4.72l1.87,1.46c0.6,0.47,1.46,0.36,1.93-0.23h0
		c0.47-0.6,0.36-1.46-0.23-1.93l-1.86-1.46c1.43-2.08,2.48-4.45,3.06-7.04l2.5,0.35c0.75,0.11,1.45-0.42,1.55-1.17
		C115.76,53.04,115.23,52.34,114.48,52.24z M106.63,60.14l-0.05-0.04c-0.5,0.77-1.06,1.5-1.67,2.18l0.05,0.04
		c-1.51,1.67-3.32,3.04-5.34,4.05l-0.02-0.05c-0.82,0.41-1.67,0.75-2.55,1.03l0.02,0.05c-2.05,0.65-4.25,0.93-6.5,0.78l0.01-0.06
		c-0.45-0.03-0.91-0.07-1.37-0.14c-0.46-0.06-0.91-0.15-1.35-0.25l-0.01,0.06c-2.25-0.5-4.32-1.4-6.13-2.63l0.04-0.05
		c-0.76-0.52-1.48-1.09-2.15-1.71l-0.04,0.05c-1.59-1.49-2.91-3.25-3.87-5.21l0.05-0.02c-0.4-0.82-0.74-1.67-1.02-2.55l-0.05,0.02
		c-0.63-2.03-0.9-4.2-0.76-6.42l0.06,0.01c0.03-0.45,0.07-0.91,0.14-1.37c0.06-0.46,0.15-0.91,0.25-1.35l-0.06-0.01
		c0.5-2.26,1.41-4.33,2.64-6.15l0.05,0.04c0.52-0.76,1.09-1.48,1.72-2.15l-0.05-0.04c1.46-1.57,3.2-2.87,5.12-3.82l0.02,0.05
		c0.82-0.41,1.67-0.75,2.55-1.03l-0.02-0.05c2.05-0.65,4.25-0.93,6.5-0.78l-0.01,0.06c0.45,0.03,0.91,0.07,1.37,0.14
		c0.46,0.06,0.91,0.15,1.35,0.25L95.55,33c2.16,0.48,4.15,1.33,5.91,2.48l-0.04,0.05c0.77,0.5,1.5,1.06,2.18,1.68l0.04-0.05
		c1.65,1.49,3,3.27,3.99,5.25l-0.05,0.02c0.41,0.82,0.76,1.67,1.04,2.54l0.05-0.02c0.67,2.07,0.95,4.29,0.81,6.57l-0.06-0.01
		c-0.03,0.45-0.07,0.91-0.14,1.37c-0.06,0.46-0.15,0.91-0.25,1.35l0.06,0.01C108.63,56.4,107.78,58.38,106.63,60.14z"/>
	<circle class="st113" cx="91.7" cy="50.13" r="14.67"/>
	<path class="st114" d="M158.23,69.2c-0.1-0.93-0.93-1.6-1.85-1.5l-3.92,0.41c-0.26-1.25-0.65-2.44-1.16-3.57l3.41-1.97
		c0.81-0.47,1.08-1.5,0.62-2.3l0,0c-0.47-0.81-1.5-1.08-2.3-0.62l-3.41,1.97c-0.52-0.72-1.08-1.39-1.7-2.02l2.52-3.03
		c0.6-0.72,0.5-1.78-0.22-2.37c-0.72-0.6-1.78-0.5-2.37,0.22l-2.52,3.03c-0.85-0.58-1.76-1.07-2.71-1.49l1.22-3.75
		c0.29-0.89-0.2-1.84-1.08-2.12c-0.89-0.29-1.84,0.2-2.12,1.08l-1.22,3.75c-0.79-0.17-1.59-0.29-2.42-0.34l-0.11-3.94
		c-0.03-0.93-0.8-1.66-1.73-1.64s-1.66,0.8-1.64,1.73l0.11,3.94c-1.11,0.14-2.18,0.38-3.21,0.73l-1.6-3.6
		c-0.38-0.85-1.38-1.23-2.23-0.85s-1.23,1.38-0.85,2.23l1.6,3.6c-1.09,0.62-2.11,1.36-3.04,2.21l-2.93-2.64
		c-0.69-0.62-1.76-0.57-2.38,0.12c-0.62,0.69-0.57,1.76,0.12,2.38l2.93,2.64c-0.74,1.01-1.37,2.1-1.88,3.25l-3.75-1.22
		c-0.89-0.29-1.84,0.2-2.12,1.08c-0.29,0.89,0.2,1.84,1.08,2.12l3.75,1.22c-0.26,1.17-0.39,2.39-0.39,3.64c0,0.03,0,0.06,0,0.1
		l-3.92,0.41c-0.93,0.1-1.6,0.93-1.5,1.85c0.1,0.93,0.93,1.6,1.85,1.5l3.92-0.41c0.26,1.25,0.65,2.44,1.16,3.57l-3.41,1.97
		c-0.81,0.47-1.08,1.5-0.62,2.3c0.47,0.81,1.5,1.08,2.3,0.62l3.41-1.97c0.52,0.72,1.08,1.39,1.7,2.02l-2.52,3.03
		c-0.6,0.72-0.5,1.78,0.22,2.37s1.78,0.5,2.37-0.22l2.52-3.03c0.85,0.58,1.76,1.07,2.71,1.49l-1.22,3.75
		c-0.29,0.89,0.2,1.84,1.08,2.12c0.89,0.29,1.84-0.2,2.12-1.08l1.22-3.75c0.79,0.17,1.59,0.29,2.42,0.34l0.11,3.94
		c0.03,0.93,0.8,1.66,1.73,1.64c0.93-0.03,1.66-0.8,1.64-1.73l-0.11-3.94c1.11-0.14,2.18-0.38,3.21-0.73l1.6,3.6
		c0.38,0.85,1.38,1.23,2.23,0.85c0.85-0.38,1.23-1.38,0.85-2.23l-1.6-3.6c1.09-0.62,2.11-1.36,3.04-2.21l2.93,2.64
		c0.69,0.62,1.76,0.57,2.38-0.12v0c0.62-0.69,0.57-1.76-0.12-2.38l-2.93-2.64c0.74-1.01,1.37-2.1,1.88-3.25l3.75,1.22
		c0.89,0.29,1.84-0.2,2.12-1.08c0.29-0.89-0.2-1.84-1.08-2.12l-3.75-1.22c0.26-1.17,0.39-2.39,0.39-3.64c0-0.03,0-0.06,0-0.1
		l3.92-0.41C157.66,70.96,158.33,70.13,158.23,69.2z M135.77,86.09c-8.03,0-14.53-6.51-14.53-14.53c0-8.03,6.51-14.53,14.53-14.53
		c8.03,0,14.53,6.51,14.53,14.53C150.3,79.59,143.79,86.09,135.77,86.09z"/>
	<path class="st115" d="M115.93,93.82h-5.01c-0.04-1.33-0.3-2.61-0.74-3.79l4.61-1.91c0.17-0.07,0.25-0.26,0.18-0.43
		c-0.07-0.17-0.26-0.25-0.43-0.18l-4.61,1.91c-0.53-1.2-1.25-2.29-2.13-3.24l3.51-3.51c0.13-0.13,0.13-0.33,0-0.46
		c-0.13-0.13-0.33-0.13-0.46,0l-3.5,3.5c-0.93-0.9-2.02-1.65-3.21-2.2l1.88-4.54c0.07-0.17-0.01-0.36-0.18-0.43
		c-0.17-0.07-0.36,0.01-0.43,0.18l-1.88,4.53c-1.19-0.47-2.48-0.76-3.83-0.81v-4.85c0-0.18-0.15-0.33-0.33-0.33
		c-0.18,0-0.33,0.15-0.33,0.33v4.84c-1.36,0.02-2.66,0.27-3.87,0.71l-1.83-4.42c-0.07-0.17-0.26-0.25-0.43-0.18
		c-0.17,0.07-0.25,0.26-0.18,0.43l1.83,4.41c-1.23,0.53-2.35,1.27-3.32,2.17l-3.35-3.35c-0.13-0.13-0.33-0.13-0.46,0
		c-0.13,0.13-0.13,0.33,0,0.46l3.34,3.34c-0.92,0.95-1.68,2.07-2.24,3.29l-4.34-1.8c-0.17-0.07-0.36,0.01-0.43,0.18
		c-0.07,0.17,0.01,0.36,0.18,0.43l4.33,1.79c-0.47,1.22-0.75,2.53-0.79,3.91h-4.68c-0.18,0-0.33,0.15-0.33,0.33
		c0,0.18,0.15,0.33,0.33,0.33h4.68c0.04,1.38,0.31,2.69,0.79,3.91l-4.33,1.79c-0.17,0.07-0.25,0.26-0.18,0.43v0
		c0.07,0.17,0.26,0.25,0.43,0.18l4.34-1.8c0.56,1.22,1.32,2.33,2.24,3.29l-3.34,3.34c-0.13,0.13-0.13,0.33,0,0.46
		c0.13,0.13,0.33,0.13,0.46,0l3.35-3.35c0.97,0.9,2.09,1.63,3.32,2.17l-1.83,4.41c-0.07,0.17,0.01,0.36,0.18,0.43
		c0.17,0.07,0.36-0.01,0.43-0.18l1.83-4.42c1.21,0.44,2.51,0.69,3.87,0.71v4.84c0,0.18,0.15,0.33,0.33,0.33
		c0.18,0,0.33-0.15,0.33-0.33v-4.85c1.35-0.06,2.64-0.34,3.83-0.81l1.88,4.53c0.07,0.17,0.26,0.25,0.43,0.18
		c0.17-0.07,0.25-0.26,0.18-0.43l-1.88-4.54c1.19-0.55,2.27-1.3,3.21-2.2l3.5,3.5c0.13,0.13,0.33,0.13,0.46,0
		c0.13-0.13,0.13-0.33,0-0.46l-3.51-3.51c0.88-0.95,1.6-2.04,2.13-3.24l4.61,1.91c0.17,0.07,0.36-0.01,0.43-0.18v0
		c0.07-0.17-0.01-0.36-0.18-0.43l-4.61-1.91c0.45-1.18,0.7-2.46,0.74-3.79h5.01c0.18,0,0.33-0.15,0.33-0.33
		C116.25,93.97,116.1,93.82,115.93,93.82z M99.38,104.65c-5.8,0-10.51-4.7-10.51-10.51c0-5.8,4.7-10.51,10.51-10.51
		c5.8,0,10.51,4.7,10.51,10.51C109.89,99.95,105.19,104.65,99.38,104.65z"/>
	<circle class="st115" cx="99.38" cy="94.15" r="7.29"/>
	<circle class="st116" cx="135.77" cy="71.56" r="11.17"/>
</g>
</svg>
