<?xml version="1.0" encoding="utf-8"?>
<!-- Generator: Adobe Illustrator 23.0.6, SVG Export Plug-In . SVG Version: 6.00 Build 0)  -->
<svg version="1.1" xmlns="http://www.w3.org/2000/svg" xmlns:xlink="http://www.w3.org/1999/xlink" x="0px" y="0px"
	 viewBox="0 0 243.33 182.71" style="enable-background:new 0 0 243.33 182.71;" xml:space="preserve">
<style type="text/css">
	.st0{fill:#FFFFFF;stroke:#161233;stroke-width:4;stroke-linecap:round;stroke-linejoin:round;stroke-miterlimit:10;}
	.st1{fill:#151133;}
	.st2{fill:#FFFFFF;}
	.st3{fill:#FFFFFF;stroke:#FFFFFF;stroke-width:3.4136;stroke-miterlimit:10;}
	.st4{fill:#FFFFFF;stroke:#FFFFFF;stroke-width:7.3315;stroke-miterlimit:10;}
	.st5{fill:none;stroke:#FFFFFF;stroke-width:0.8146;stroke-miterlimit:10;}
	.st6{fill:#FFFFFF;stroke:#FFFFFF;stroke-width:5;stroke-miterlimit:10;}
	.st7{fill:#FFFFFF;stroke:#FFFFFF;stroke-width:0.2104;stroke-miterlimit:10;}
	.st8{fill:#FFFFFF;stroke:#FFFFFF;stroke-width:0.3013;stroke-miterlimit:10;}
	.st9{fill:#FFFFFF;stroke:#FFFFFF;stroke-width:0.2824;stroke-miterlimit:10;}
	.st10{fill:#FFFFFF;stroke:#FFFFFF;stroke-width:0.2558;stroke-miterlimit:10;}
	.st11{fill:#FFFFFF;stroke:#FFFFFF;stroke-width:0.1533;stroke-miterlimit:10;}
	.st12{fill:#FFFFFF;stroke:#FFFFFF;stroke-width:0.7259;stroke-miterlimit:10;}
	.st13{fill:#222155;}
	.st14{fill:#FFFFFF;stroke:#FFFFFF;stroke-linecap:round;stroke-linejoin:round;stroke-miterlimit:10;}
	.st15{fill:#FFFFFF;stroke:#161233;stroke-width:0.7751;stroke-linecap:round;stroke-linejoin:round;stroke-miterlimit:10;}
	.st16{fill:#FFFFFF;stroke:#161233;stroke-width:0.4216;stroke-linecap:round;stroke-linejoin:round;stroke-miterlimit:10;}
	.st17{fill:#FFFFFF;stroke:#161233;stroke-width:0.2936;stroke-linecap:round;stroke-linejoin:round;stroke-miterlimit:10;}
	.st18{fill:none;stroke:#161233;stroke-width:1.2926;stroke-linecap:round;stroke-linejoin:round;stroke-miterlimit:10;}
	.st19{fill:none;stroke:#161233;stroke-width:4;stroke-linecap:round;stroke-linejoin:round;stroke-miterlimit:10;}
	.st20{fill:none;stroke:#161233;stroke-width:0.5715;stroke-linecap:round;stroke-linejoin:round;stroke-miterlimit:10;}
	.st21{fill:#FFFFFF;stroke:#161233;stroke-width:1.7684;stroke-linecap:round;stroke-linejoin:round;stroke-miterlimit:10;}
	.st22{fill:none;stroke:#161233;stroke-width:1.7684;stroke-linecap:round;stroke-linejoin:round;stroke-miterlimit:10;}
	.st23{fill:none;stroke:#161233;stroke-width:0.5148;stroke-linecap:round;stroke-linejoin:round;stroke-miterlimit:10;}
	.st24{fill:#FFFFFF;stroke:#161233;stroke-width:1.5932;stroke-linecap:round;stroke-linejoin:round;stroke-miterlimit:10;}
	.st25{fill:none;stroke:#161233;stroke-width:1.5932;stroke-linecap:round;stroke-linejoin:round;stroke-miterlimit:10;}
	.st26{fill:#FFFFFF;stroke:#161233;stroke-width:4.2124;stroke-linecap:round;stroke-linejoin:round;stroke-miterlimit:10;}
	.st27{fill:none;stroke:#161233;stroke-width:4.2124;stroke-linecap:round;stroke-linejoin:round;stroke-miterlimit:10;}
	.st28{fill:none;stroke:#161233;stroke-width:0.8239;stroke-linecap:round;stroke-linejoin:round;stroke-miterlimit:10;}
	.st29{fill:#FFFFFF;stroke:#161233;stroke-width:2.5496;stroke-linecap:round;stroke-linejoin:round;stroke-miterlimit:10;}
	.st30{fill:none;stroke:#161233;stroke-width:2.5496;stroke-linecap:round;stroke-linejoin:round;stroke-miterlimit:10;}
	.st31{fill:#FFFFFF;stroke:#161233;stroke-width:2.3751;stroke-linecap:round;stroke-linejoin:round;stroke-miterlimit:10;}
	.st32{fill:none;stroke:#161233;stroke-width:2.3751;stroke-linecap:round;stroke-linejoin:round;stroke-miterlimit:10;}
	.st33{fill:none;stroke:#FFFFFF;stroke-width:0.5;stroke-miterlimit:10;}
	.st34{fill:#FFFFFF;stroke:#FFFFFF;stroke-width:0.4928;stroke-miterlimit:10;}
	.st35{fill:#FFFFFF;stroke:#FFFFFF;stroke-width:0.4463;stroke-miterlimit:10;}
</style>
<g id="Layer_1">
	<g>
		<path class="st2" d="M234.37,94.99c-2.63-1.77-4.48-3.89-6.14-6.12c-0.89-1.08-1.68-2.21-2.49-3.34l-2.42-3.38l-5.25-6.43
			l-5.64-6.07c-7.77-7.85-16.48-14.71-25.93-20.26c-9.42-5.6-19.58-9.91-30.11-12.73c-10.53-2.81-21.42-4.19-32.28-4.06
			c-10.86,0.17-21.68,1.79-32.03,4.94c-10.35,3.13-20.24,7.72-29.33,13.53c-9.1,5.79-17.37,12.86-24.56,20.86
			c-7.2,7.99-13.37,16.89-18.25,26.43v-6.73c5.98,11.4,13.53,22.05,22.6,31.34c1.07,1.22,2.31,2.28,3.48,3.41
			c1.19,1.11,2.36,2.24,3.56,3.34l3.76,3.11l1.88,1.56c0.62,0.53,1.31,0.96,1.96,1.45l3.97,2.86l1,0.71l1.04,0.65l2.08,1.3
			c1.39,0.85,2.75,1.77,4.18,2.57l4.33,2.31l2.17,1.16l2.24,1.01l4.49,2.03c1.49,0.69,3.06,1.18,4.59,1.79l2.31,0.87
			c0.77,0.29,1.54,0.6,2.33,0.81l4.74,1.41l2.38,0.71l2.42,0.54l4.85,1.08c0.81,0.21,1.63,0.3,2.45,0.43l2.46,0.37
			c1.64,0.23,3.28,0.54,4.94,0.69l4.98,0.38c3.32,0.33,6.66,0.36,10,0.32c3.34-0.06,6.69-0.26,10.02-0.59
			c1.67-0.17,3.33-0.38,5-0.61c1.66-0.25,3.35-0.35,5.22,0.26c-1.43,1.36-3.07,1.95-4.74,2.33c-1.67,0.38-3.36,0.72-5.05,1.04
			c-3.38,0.62-6.8,1.1-10.23,1.43c-3.43,0.32-6.89,0.57-10.34,0.51l-5.2,0.02c-1.73-0.03-3.46-0.21-5.19-0.3
			c-13.84-0.96-27.69-4.12-40.55-9.82l-4.82-2.16c-1.59-0.75-3.12-1.62-4.68-2.43l-2.33-1.24l-1.17-0.62l-1.13-0.69l-4.5-2.79
			c-0.74-0.48-1.52-0.91-2.23-1.42l-2.16-1.54l-4.32-3.08c-1.39-1.09-2.75-2.23-4.12-3.34c-1.36-1.13-2.78-2.2-4.05-3.44
			c-10.48-9.54-19.61-20.65-26.84-32.97c-1.26-2.15-1.17-4.72,0-6.73c6.01-10.23,13.19-19.74,21.46-28.18
			c8.27-8.43,17.62-15.78,27.73-21.83c20.22-12.12,43.78-18.47,67.19-18.17c11.7,0.16,23.38,1.92,34.54,5.31
			c11.17,3.37,21.83,8.3,31.62,14.54c9.76,6.28,18.65,13.84,26.35,22.43l5.56,6.61l5.12,6.94l2.34,3.62
			c0.77,1.21,1.58,2.4,2.26,3.66C233.09,89.17,234.12,91.9,234.37,94.99z"/>
	</g>
	<path class="st34" d="M167.7,97.9l-4.46-0.63c0.44-4.98-0.15-9.84-1.59-14.35l3.77-1.52c1.28-0.51,1.89-1.96,1.38-3.24l0,0
		c-0.51-1.28-1.96-1.89-3.24-1.38l-3.74,1.51c-2.1-4.41-5.05-8.37-8.67-11.64l2.45-3.13c0.85-1.08,0.66-2.65-0.43-3.49
		c-1.08-0.85-2.65-0.66-3.49,0.43l-2.45,3.13c-3.87-2.63-8.29-4.55-13.1-5.57l0.64-4.5c0.19-1.36-0.75-2.62-2.12-2.81
		c-1.36-0.19-2.62,0.75-2.81,2.12l-0.64,4.5c-4.99-0.37-9.85,0.28-14.36,1.79l-1.53-3.8c-0.51-1.28-1.96-1.89-3.24-1.38
		c-1.28,0.51-1.89,1.96-1.38,3.24l1.54,3.83c-4.26,2.1-8.09,5.01-11.26,8.56l-3.75-2.94c-1.08-0.85-2.65-0.66-3.49,0.43
		c-0.85,1.08-0.66,2.65,0.43,3.49l3.76,2.95c-2.68,3.97-4.62,8.51-5.59,13.46l-4.46-0.63c-1.36-0.19-2.62,0.75-2.81,2.12
		c-0.19,1.36,0.75,2.62,2.12,2.81l4.53,0.64c-0.3,4.84,0.36,9.54,1.83,13.92l-4.64,1.87c-1.28,0.51-1.89,1.96-1.38,3.24
		c0.51,1.28,1.96,1.89,3.24,1.38l4.67-1.88c2.08,4.21,4.94,7.99,8.43,11.13l-3.14,4.01c-0.85,1.08-0.66,2.65,0.43,3.49
		s2.65,0.66,3.49-0.43l3.14-4.01c3.87,2.63,8.29,4.55,13.1,5.57l-0.64,4.5c-0.19,1.36,0.75,2.62,2.12,2.81
		c1.36,0.19,2.62-0.75,2.81-2.12l0.64-4.5c4.82,0.36,9.53-0.23,13.91-1.63l1.85,4.6c0.51,1.28,1.96,1.89,3.24,1.38
		c1.28-0.51,1.89-1.96,1.38-3.24l-1.85-4.58c4.35-2.08,8.27-4.98,11.51-8.55l3.39,2.65c1.08,0.85,2.65,0.66,3.49-0.43l0,0
		c0.85-1.08,0.66-2.65-0.43-3.49l-3.37-2.64c2.59-3.77,4.5-8.07,5.54-12.75l4.53,0.64c1.36,0.19,2.62-0.75,2.81-2.12
		C170.01,99.35,169.06,98.09,167.7,97.9z M153.46,112.22l-0.08-0.07c-0.91,1.4-1.93,2.72-3.03,3.95l0.08,0.06
		c-2.73,3.03-6.02,5.52-9.67,7.33l-0.04-0.1c-1.48,0.74-3.02,1.36-4.61,1.87l0.04,0.1c-3.71,1.18-7.69,1.68-11.77,1.42l0.01-0.1
		c-0.82-0.05-1.65-0.13-2.48-0.25c-0.83-0.12-1.64-0.28-2.45-0.45l-0.01,0.1c-4.08-0.9-7.82-2.54-11.11-4.77l0.06-0.08
		c-1.38-0.94-2.68-1.98-3.89-3.11l-0.06,0.08c-2.89-2.69-5.27-5.89-7.01-9.43l0.1-0.04c-0.73-1.49-1.35-3.03-1.84-4.62l-0.1,0.04
		c-1.15-3.68-1.64-7.61-1.38-11.64l0.1,0.01c0.05-0.82,0.13-1.65,0.25-2.48s0.28-1.64,0.45-2.45l-0.1-0.01
		c0.9-4.09,2.55-7.85,4.79-11.14l0.08,0.06c0.94-1.38,1.98-2.68,3.11-3.89l-0.08-0.06c2.65-2.84,5.8-5.19,9.28-6.92l0.04,0.1
		c1.48-0.74,3.02-1.36,4.61-1.87l-0.04-0.1c3.71-1.18,7.69-1.68,11.77-1.42l-0.01,0.1c0.82,0.05,1.65,0.13,2.48,0.25
		c0.83,0.12,1.64,0.28,2.45,0.45l0.01-0.1c3.91,0.86,7.52,2.41,10.71,4.5l-0.07,0.08c1.4,0.91,2.72,1.93,3.94,3.04l0.06-0.08
		c2.98,2.69,5.43,5.93,7.24,9.52l-0.1,0.04c0.74,1.48,1.38,3.02,1.89,4.61l0.1-0.04c1.21,3.75,1.73,7.78,1.46,11.9l-0.1-0.01
		c-0.05,0.82-0.13,1.65-0.25,2.48s-0.28,1.64-0.45,2.45l0.1,0.01C157.09,105.44,155.55,109.04,153.46,112.22z"/>
	<circle class="st35" cx="126.43" cy="94.09" r="24.07"/>
</g>
<g id="Layer_2">
</g>
</svg>
