<?xml version="1.0" encoding="utf-8"?>
<!-- Generator: Adobe Illustrator 23.0.3, SVG Export Plug-In . SVG Version: 6.00 Build 0)  -->
<svg version="1.1" id="Layer_1" xmlns="http://www.w3.org/2000/svg" xmlns:xlink="http://www.w3.org/1999/xlink" x="0px" y="0px"
	 viewBox="0 0 258 194" style="enable-background:new 0 0 258 194;" xml:space="preserve">
<style type="text/css">
	.st0{fill:#FFFFFF;}
	.st1{opacity:0.8;fill:#0E0733;}
	.st2{fill:#0E0733;}
	.st3{fill:#FFFFFF;stroke:#FFFFFF;stroke-miterlimit:10;}
	.st4{fill:none;stroke:#0E0733;stroke-width:0.4427;stroke-miterlimit:10;}
	.st5{fill:none;stroke:#0E0733;stroke-width:0.5541;stroke-linecap:round;stroke-miterlimit:10;}
	.st6{fill:#122A51;}
	.st7{opacity:0.04;clip-path:url(#SVGID_4_);}
	.st8{fill:#231F20;stroke:#FFFFFF;stroke-width:1.2317;stroke-miterlimit:10;}
	.st9{fill:#FFFFFF;stroke:#FFFFFF;stroke-width:1.2317;stroke-miterlimit:10;}
	.st10{fill:none;stroke:#FFFFFF;stroke-width:8.0133;stroke-miterlimit:10;}
	.st11{opacity:0.2;}
	.st12{clip-path:url(#SVGID_6_);}
	.st13{fill:#231F20;stroke:#FFFFFF;stroke-width:1.2257;stroke-miterlimit:10;}
	.st14{fill:none;stroke:#122A51;stroke-width:7.9746;stroke-miterlimit:10;}
	.st15{fill:none;stroke:#FFFFFF;stroke-width:7.9746;stroke-miterlimit:10;}
	.st16{opacity:0.7;fill:#122A51;}
	.st17{fill:#C7C8CA;}
	.st18{fill:#58595B;}
	.st19{fill:#6D6E71;}
	.st20{fill:#F1F2F2;}
	.st21{fill:#939598;}
	.st22{fill:#E2E3E4;}
	.st23{fill:none;stroke:#FFFFFF;stroke-width:2.4152;stroke-linecap:round;stroke-linejoin:round;stroke-miterlimit:10;}
	.st24{fill:#575A5E;}
	.st25{fill:#BCBEC0;}
	.st26{fill:#9D9FA2;}
	.st27{opacity:0.7;fill:#AD0E0E;}
	.st28{opacity:0.15;fill:#AD0E0E;}
	.st29{opacity:0.04;clip-path:url(#SVGID_8_);}
	.st30{fill:#231F20;}
	.st31{fill:none;stroke:#231F20;stroke-width:6.4328;stroke-miterlimit:10;}
	.st32{fill:none;}
	.st33{opacity:0.8;fill:#4D4D4F;}
	.st34{opacity:0.75;fill:#C7C8CA;}
	.st35{opacity:0.8;fill:none;stroke:#4D4D4F;stroke-width:0.8942;stroke-miterlimit:10;}
	.st36{fill:#6D6E70;stroke:#6D6E70;stroke-width:2.6104;stroke-miterlimit:10;}
	.st37{fill:#FFFFFF;stroke:#FFFFFF;stroke-width:2.6884;stroke-miterlimit:10;}
	.st38{fill:#6D6E70;stroke:#6D6E70;stroke-width:2.3504;stroke-miterlimit:10;}
	.st39{fill:#FFFFFF;stroke:#FFFFFF;stroke-width:2.2636;stroke-miterlimit:10;}
	.st40{fill:none;stroke:#FFFFFF;stroke-width:0.4427;stroke-miterlimit:10;}
	.st41{fill:#A6A8AB;}
	.st42{fill:none;stroke:#FFFFFF;stroke-width:0.5541;stroke-linecap:round;stroke-miterlimit:10;}
	.st43{fill:none;stroke:#FFFFFF;stroke-width:0.8698;stroke-miterlimit:10;}
	.st44{opacity:0.04;clip-path:url(#SVGID_10_);}
	.st45{fill:#231F20;stroke:#FFFFFF;stroke-miterlimit:10;}
	.st46{fill:none;stroke:#FFFFFF;stroke-width:6.5061;stroke-miterlimit:10;}
	.st47{opacity:0.04;clip-path:url(#SVGID_12_);}
	.st48{opacity:0.04;clip-path:url(#SVGID_14_);}
	.st49{fill:none;stroke:#6D6E71;stroke-miterlimit:10;}
	.st50{fill:none;stroke:#122A51;stroke-miterlimit:10;}
	.st51{fill:#A7A2A9;}
	.st52{fill:#140152;}
	.st53{fill:#AD0E0E;}
	.st54{fill:none;stroke:#0E0733;stroke-miterlimit:10;}
	.st55{opacity:0.04;clip-path:url(#SVGID_18_);}
	.st56{opacity:0.8;fill:none;stroke:#FFFFFF;stroke-width:0.8942;stroke-miterlimit:10;}
	.st57{opacity:0.04;clip-path:url(#SVGID_20_);}
	.st58{fill:#6D6E70;stroke:#6D6E70;stroke-width:1.9895;stroke-miterlimit:10;}
	.st59{fill:#FFFFFF;stroke:#FFFFFF;stroke-width:2.0489;stroke-miterlimit:10;}
	.st60{fill:#020202;}
	.st61{fill:#151515;}
	.st62{fill:#1D1C1C;stroke:#151515;stroke-width:0.2934;stroke-miterlimit:10;}
	.st63{fill:#8E8D8C;}
	.st64{fill:#181818;stroke:#121111;stroke-width:0.3373;stroke-linecap:round;stroke-linejoin:round;stroke-miterlimit:10;}
	.st65{fill:#2A2B2A;stroke:#121111;stroke-width:0.3373;stroke-linecap:round;stroke-linejoin:round;stroke-miterlimit:10;}
	.st66{fill:#1D1D1D;stroke:#121111;stroke-width:0.3912;stroke-miterlimit:10;}
	.st67{fill:#2A2B2A;stroke:#121111;stroke-width:0.3912;stroke-miterlimit:10;}
	.st68{fill:#050505;}
	.st69{fill:#121111;}
	.st70{fill:#1D1D1D;}
	.st71{fill:#15172D;}
	.st72{fill:#282827;stroke:#121111;stroke-width:0.3912;stroke-miterlimit:10;}
	.st73{fill:#232323;}
	.st74{fill:#1B1F39;}
	.st75{fill:#121422;}
	.st76{fill:#0F1018;}
	.st77{fill:#1D1D1D;stroke:#121111;stroke-width:0.3912;stroke-linecap:round;stroke-miterlimit:10;}
	.st78{fill:#383838;stroke:#121111;stroke-width:0.253;stroke-miterlimit:10;}
	.st79{fill:#1D1D1D;stroke:#121111;stroke-width:0.3373;stroke-miterlimit:10;}
	.st80{fill:#353535;stroke:#121111;stroke-width:0.1686;stroke-miterlimit:10;}
	.st81{fill:#121112;}
	.st82{fill:#353535;}
	.st83{fill:#2A2B2A;}
	.st84{fill:#282827;}
	.st85{fill:#2A2B2A;stroke:#121111;stroke-width:0.3373;stroke-miterlimit:10;}
	.st86{fill:#050505;stroke:#121111;stroke-width:0.3373;stroke-miterlimit:10;}
	.st87{fill:#050505;stroke:#121111;stroke-width:0.253;stroke-miterlimit:10;}
	.st88{fill:#232323;stroke:#121111;stroke-width:0.3373;stroke-miterlimit:10;}
	.st89{fill:#161311;stroke:#171412;stroke-width:0.1525;stroke-miterlimit:10;}
	.st90{fill:#282827;stroke:#121111;stroke-width:0.253;stroke-miterlimit:10;}
	.st91{fill:#1B1C1C;}
	.st92{fill:#0B0B0B;}
	.st93{fill:#AAAAAA;}
	.st94{fill:#181818;}
	.st95{fill:#474748;}
	.st96{fill:#49494A;}
	.st97{fill:#575757;}
	.st98{fill:#1D1D1D;stroke:#121111;stroke-width:0.1686;stroke-miterlimit:10;}
	.st99{fill:#232323;stroke:#121111;stroke-width:0.1686;stroke-miterlimit:10;}
	.st100{fill:#181818;stroke:#121111;stroke-width:0.253;stroke-miterlimit:10;}
	.st101{fill:#794632;}
	.st102{fill:#8E5944;}
	.st103{opacity:0.55;}
	.st104{fill:none;stroke:#814E45;stroke-width:1.1842;stroke-linecap:round;stroke-miterlimit:10;}
	.st105{fill:#1D1C1C;}
	.st106{fill:#333333;stroke:#1D1C1C;stroke-width:0.3912;stroke-miterlimit:10;}
	.st107{fill:#3E3C3C;}
	.st108{fill:#161616;}
	.st109{fill:#804B48;}
	.st110{fill:#231F20;stroke:#231F20;stroke-width:2.3684;stroke-miterlimit:10;}
	.st111{fill:#AD0E0E;stroke:#AD0E0E;stroke-miterlimit:10;}
	.st112{fill:#FFFFFF;stroke:#FFFFFF;stroke-width:0.2419;stroke-miterlimit:10;}
	.st113{fill:#FFFFFF;stroke:#FFFFFF;stroke-width:0.3465;stroke-miterlimit:10;}
	.st114{fill:#FFFFFF;stroke:#FFFFFF;stroke-width:0.3294;stroke-miterlimit:10;}
	.st115{fill:#FFFFFF;stroke:#FFFFFF;stroke-width:1.0418;stroke-miterlimit:10;}
	.st116{fill:#FFFFFF;stroke:#FFFFFF;stroke-width:1.5972;stroke-miterlimit:10;}
	.st117{fill:none;stroke:#0E0733;stroke-width:6;stroke-miterlimit:10;}
	.st118{fill:none;stroke:#0E0733;stroke-width:6.7456;stroke-miterlimit:10;}
	.st119{fill:#FFFFFF;stroke:#FFFFFF;stroke-width:6.7456;stroke-miterlimit:10;}
	.st120{fill:none;stroke:#0E0733;stroke-width:10;stroke-miterlimit:10;}
	.st121{opacity:0.25;}
	.st122{clip-path:url(#SVGID_22_);}
	.st123{opacity:0.1;fill:#AB1F23;}
	.st124{opacity:0.2;fill:#AB1F23;}
	.st125{fill:none;stroke:#0E0733;stroke-width:7.746;stroke-miterlimit:10;}
	.st126{fill:#FFFFFF;stroke:#FFFFFF;stroke-width:4.2927;stroke-miterlimit:10;}
	.st127{fill:#FFFFFF;stroke:#FFFFFF;stroke-width:37.5013;stroke-miterlimit:10;}
	.st128{fill:#FFFFFF;stroke:#FFFFFF;stroke-width:8.3809;stroke-miterlimit:10;}
	.st129{fill:#FFFFFF;stroke:#FFFFFF;stroke-width:17.1552;stroke-miterlimit:10;}
	.st130{fill:#FFFFFF;stroke:#FFFFFF;stroke-width:18;stroke-miterlimit:10;}
	.st131{fill:none;stroke:#FFFFFF;stroke-width:2;stroke-miterlimit:10;}
	.st132{opacity:0.75;fill:#FFFFFF;}
	.st133{opacity:0.04;clip-path:url(#SVGID_28_);}
	.st134{fill:#FFFFFF;stroke:#FFFFFF;stroke-width:1.2603;stroke-miterlimit:10;}
	.st135{fill:#FFFFFF;stroke:#FFFFFF;stroke-width:2.7067;stroke-miterlimit:10;}
	.st136{fill:#FFFFFF;stroke:#FFFFFF;stroke-width:1.8334;stroke-miterlimit:10;}
	.st137{fill:none;stroke:#FFFFFF;stroke-width:3.9376;stroke-miterlimit:10;}
	.st138{clip-path:url(#SVGID_32_);}
	.st139{fill:none;stroke:#122A51;stroke-width:0.4427;stroke-miterlimit:10;}
	.st140{fill:none;stroke:#122A51;stroke-width:0.5541;stroke-linecap:round;stroke-miterlimit:10;}
	.st141{opacity:0.04;clip-path:url(#SVGID_34_);}
</style>
<g>
	<defs>
		
			<rect id="SVGID_3_" x="-234" y="-1272.26" transform="matrix(-1 -4.489044e-11 4.489044e-11 -1 170 -1705.7606)" width="638" height="838.76"/>
	</defs>
	<clipPath id="SVGID_2_">
		<use xlink:href="#SVGID_3_"  style="overflow:visible;"/>
	</clipPath>
	<g style="opacity:0.04;clip-path:url(#SVGID_2_);">
		<circle class="st8" cx="82.5" cy="189.89" r="35.79"/>
		<circle class="st8" cx="18.88" cy="6.26" r="29.84"/>
		<polyline class="st10" points="-744.85,1013 -501.11,845.51 -341.68,903.6 -205.43,835.6 -95.48,714.13 -72.61,574.6 
			28.04,559.79 168.77,634.18 306.27,806.78 477.87,933.04 492.54,808.99 276.79,487.36 193.86,394.81 82.5,189.89 103.46,-56.47 
			29.7,-201.5 17.32,-321.75 55.8,-443.17 150.28,-502.45 257.59,-633.99 313.29,-773.57 206.95,-934.56 142.01,-1086.01 
			-3.32,-1148.5 -127.95,-1195.76 -304.56,-1191.13 -487.56,-1192.22 -710.75,-1105.65 -914.41,-929.71 -1023.33,-842.07 
			-1122.11,-737.96 -1150.22,-609.23 -1269.81,-556.98 -1352.07,-415.37 -1368.37,-161.55 -1392.92,118.12 -1452.96,312.95 
			-1361.82,455.38 -1376.05,590.43 -1300.51,678.45 		"/>
	</g>
</g>
<g class="st11">
	<defs>
		<rect id="SVGID_5_" x="-233" y="-2996.5" class="st11" width="1366" height="1222"/>
	</defs>
	<clipPath id="SVGID_4_">
		<use xlink:href="#SVGID_5_"  style="overflow:visible;"/>
	</clipPath>
	<g style="clip-path:url(#SVGID_4_);">
		<circle class="st13" cx="220.74" cy="76.4" r="47.47"/>
		<polyline class="st14" points="220.74,76.4 463.3,-90.28 621.96,-32.47 757.55,-100.15 866.97,-221.02 889.72,-359.88 
			989.89,-374.62 1129.94,-300.59 1266.77,-128.83 1437.54,-3.18 1452.15,-126.62 1237.44,-446.7 1154.91,-538.8 1044.08,-742.73 
			1064.95,-987.9 991.55,-1132.23 979.22,-1251.9 1017.52,-1372.73 1111.54,-1431.73 1218.33,-1562.63 1273.76,-1701.53 
			1167.93,-1861.75 1103.31,-2012.46 958.68,-2074.65 834.65,-2121.69 658.9,-2117.08 476.78,-2118.16 254.67,-2032.01 52,-1856.92 
			-56.39,-1769.7 -154.69,-1666.1 -182.67,-1537.98 -301.68,-1485.99 -383.55,-1345.06 -399.76,-1092.48 -424.2,-814.15 
			-483.95,-620.27 -393.25,-478.53 -407.41,-344.13 -332.24,-256.53 		"/>
	</g>
</g>
<path class="st3" d="M163.27,154.06H19.21c-5.55,0-10.05-4.5-10.05-10.05V54.55c0-5.55,4.5-10.05,10.05-10.05h144.06
	c5.55,0,10.05,4.5,10.05,10.05V144C173.33,149.55,168.83,154.06,163.27,154.06z"/>
<path class="st2" d="M166.65,148.91H15.84c-0.72,0-1.3-0.58-1.3-1.3V50.95c0-0.72,0.58-1.3,1.3-1.3h150.81c0.72,0,1.3,0.58,1.3,1.3
	v96.65C167.95,148.32,167.37,148.91,166.65,148.91z"/>
<rect x="70.39" y="154.06" class="st3" width="41.7" height="19.44"/>
<rect x="48.57" y="173.49" class="st3" width="85.34" height="2.26"/>
<path class="st3" d="M236.54,177.64H194.7c-1.88,0-3.4-1.52-3.4-3.4v-74.04c0-1.88,1.52-3.4,3.4-3.4h41.84c1.88,0,3.4,1.52,3.4,3.4
	v74.04C239.94,176.12,238.42,177.64,236.54,177.64z"/>
<path class="st2" d="M236.12,170.2h-41c-0.45,0-0.82-0.37-0.82-0.82v-65.67c0-0.45,0.37-0.82,0.82-0.82h41
	c0.45,0,0.82,0.37,0.82,0.82v65.67C236.94,169.84,236.58,170.2,236.12,170.2z"/>
<circle class="st4" cx="215.62" cy="174.12" r="2.53"/>
<rect x="21.61" y="56.4" class="st0" width="41.04" height="28.31"/>
<rect x="70.39" y="56.4" class="st0" width="84.82" height="5.66"/>
<rect x="70.39" y="65.99" class="st0" width="46.61" height="3.4"/>
<rect x="21.61" y="92.35" class="st0" width="41.04" height="1.42"/>
<rect x="21.61" y="95.39" class="st0" width="38.64" height="1.42"/>
<rect x="21.61" y="98.44" class="st0" width="37.17" height="1.42"/>
<rect x="21.61" y="101.48" class="st0" width="41.04" height="1.42"/>
<rect x="21.61" y="101.48" class="st0" width="40.01" height="1.42"/>
<rect x="21.61" y="104.52" class="st0" width="40.01" height="1.42"/>
<rect x="21.61" y="107.56" class="st0" width="40.01" height="1.42"/>
<rect x="21.61" y="110.61" class="st0" width="41.04" height="1.42"/>
<rect x="21.61" y="113.65" class="st0" width="39.2" height="1.42"/>
<rect x="21.61" y="116.69" class="st0" width="37.84" height="1.42"/>
<rect x="21.61" y="119.74" class="st0" width="41.04" height="1.42"/>
<rect x="21.61" y="122.78" class="st0" width="40.01" height="1.42"/>
<rect x="21.61" y="125.82" class="st0" width="39.2" height="1.42"/>
<rect x="21.61" y="128.86" class="st0" width="40.01" height="1.42"/>
<rect x="21.61" y="131.91" class="st0" width="41.04" height="1.42"/>
<rect x="21.61" y="134.95" class="st0" width="39.2" height="1.42"/>
<rect x="21.61" y="137.99" class="st0" width="40.01" height="1.42"/>
<rect x="21.61" y="141.04" class="st0" width="41.04" height="1.42"/>
<rect x="68.22" y="92.35" class="st0" width="41.04" height="1.42"/>
<rect x="68.22" y="95.39" class="st0" width="38.64" height="1.42"/>
<rect x="70.72" y="73.72" class="st0" width="79.54" height="1.42"/>
<rect x="68.22" y="98.44" class="st0" width="37.17" height="1.42"/>
<rect x="68.22" y="101.48" class="st0" width="41.04" height="1.42"/>
<rect x="68.22" y="101.48" class="st0" width="40.01" height="1.42"/>
<rect x="68.22" y="104.52" class="st0" width="40.01" height="1.42"/>
<rect x="68.22" y="107.56" class="st0" width="40.01" height="1.42"/>
<rect x="68.22" y="110.61" class="st0" width="41.04" height="1.42"/>
<rect x="68.22" y="113.65" class="st0" width="39.2" height="1.42"/>
<rect x="68.22" y="116.69" class="st0" width="37.84" height="1.42"/>
<rect x="68.22" y="119.74" class="st0" width="41.04" height="1.42"/>
<rect x="68.22" y="122.78" class="st0" width="40.01" height="1.42"/>
<rect x="68.22" y="125.82" class="st0" width="39.2" height="1.42"/>
<rect x="68.22" y="128.86" class="st0" width="40.01" height="1.42"/>
<rect x="68.22" y="131.91" class="st0" width="41.04" height="1.42"/>
<rect x="68.22" y="134.95" class="st0" width="39.2" height="1.42"/>
<rect x="68.22" y="137.99" class="st0" width="40.01" height="1.42"/>
<rect x="68.22" y="141.04" class="st0" width="41.04" height="1.42"/>
<rect x="117" y="92.35" class="st0" width="41.04" height="1.42"/>
<rect x="117" y="95.39" class="st0" width="38.64" height="1.42"/>
<rect x="117" y="98.44" class="st0" width="37.17" height="1.42"/>
<rect x="117" y="101.48" class="st0" width="41.04" height="1.42"/>
<rect x="117" y="101.48" class="st0" width="40.01" height="1.42"/>
<rect x="117" y="104.52" class="st0" width="40.01" height="1.42"/>
<rect x="117" y="107.56" class="st0" width="40.01" height="1.42"/>
<rect x="117" y="110.61" class="st0" width="41.04" height="1.42"/>
<rect x="117" y="113.65" class="st0" width="39.2" height="1.42"/>
<rect x="117" y="116.69" class="st0" width="37.84" height="1.42"/>
<rect x="117" y="119.74" class="st0" width="41.04" height="1.42"/>
<rect x="117" y="122.78" class="st0" width="40.01" height="1.42"/>
<rect x="117" y="125.82" class="st0" width="39.2" height="1.42"/>
<rect x="117" y="128.86" class="st0" width="40.01" height="1.42"/>
<rect x="117" y="131.91" class="st0" width="41.04" height="1.42"/>
<rect x="117" y="134.95" class="st0" width="39.2" height="1.42"/>
<rect x="117" y="137.99" class="st0" width="40.01" height="1.42"/>
<rect x="117" y="141.04" class="st0" width="41.04" height="1.42"/>
<rect x="196" y="143.77" class="st0" width="39" height="1.09"/>
<rect x="196" y="111.77" class="st0" width="39" height="1.09"/>
<rect x="196" y="106.5" class="st0" width="36.97" height="3.37"/>
<rect x="196" y="116.5" class="st0" width="39" height="25"/>
<rect x="196" y="146.83" class="st0" width="37.12" height="1.09"/>
<rect x="196" y="149.9" class="st0" width="39" height="1.09"/>
<rect x="196" y="152.96" class="st0" width="35.27" height="1.09"/>
<rect x="196" y="156.16" class="st0" width="37.5" height="1.09"/>
<rect x="196" y="159.22" class="st0" width="39" height="1.09"/>
<rect x="196" y="162.29" class="st0" width="36.07" height="1.09"/>
<rect x="196" y="165.35" class="st0" width="37.5" height="1.09"/>
<line class="st5" x1="214.78" y1="98.72" x2="224" y2="98.72"/>
<circle class="st2" cx="211.61" cy="98.72" r="0.71"/>
</svg>
