<?xml version="1.0" encoding="utf-8"?>
<!-- Generator: Adobe Illustrator 23.0.6, SVG Export Plug-In . SVG Version: 6.00 Build 0)  -->
<svg version="1.1" xmlns="http://www.w3.org/2000/svg" xmlns:xlink="http://www.w3.org/1999/xlink" x="0px" y="0px"
	 viewBox="0 0 243.33 182.71" style="enable-background:new 0 0 243.33 182.71;" xml:space="preserve">
<style type="text/css">
	.st0{fill:#FFFFFF;stroke:#161233;stroke-width:4;stroke-linecap:round;stroke-linejoin:round;stroke-miterlimit:10;}
	.st1{fill:#151133;}
	.st2{fill:#FFFFFF;}
	.st3{fill:#FFFFFF;stroke:#FFFFFF;stroke-width:3.4136;stroke-miterlimit:10;}
	.st4{fill:#FFFFFF;stroke:#FFFFFF;stroke-width:7.3315;stroke-miterlimit:10;}
	.st5{fill:none;stroke:#FFFFFF;stroke-width:0.8146;stroke-miterlimit:10;}
	.st6{fill:#FFFFFF;stroke:#FFFFFF;stroke-width:5;stroke-miterlimit:10;}
	.st7{fill:#FFFFFF;stroke:#FFFFFF;stroke-width:0.2104;stroke-miterlimit:10;}
	.st8{fill:#FFFFFF;stroke:#FFFFFF;stroke-width:0.3013;stroke-miterlimit:10;}
	.st9{fill:#FFFFFF;stroke:#FFFFFF;stroke-width:0.2824;stroke-miterlimit:10;}
	.st10{fill:#FFFFFF;stroke:#FFFFFF;stroke-width:0.2558;stroke-miterlimit:10;}
	.st11{fill:#FFFFFF;stroke:#FFFFFF;stroke-width:0.1533;stroke-miterlimit:10;}
	.st12{fill:#FFFFFF;stroke:#FFFFFF;stroke-width:0.7259;stroke-miterlimit:10;}
	.st13{fill:#222155;}
	.st14{fill:#FFFFFF;stroke:#FFFFFF;stroke-linecap:round;stroke-linejoin:round;stroke-miterlimit:10;}
	.st15{fill:#FFFFFF;stroke:#161233;stroke-width:0.7751;stroke-linecap:round;stroke-linejoin:round;stroke-miterlimit:10;}
	.st16{fill:#FFFFFF;stroke:#161233;stroke-width:0.4216;stroke-linecap:round;stroke-linejoin:round;stroke-miterlimit:10;}
	.st17{fill:#FFFFFF;stroke:#161233;stroke-width:0.2936;stroke-linecap:round;stroke-linejoin:round;stroke-miterlimit:10;}
	.st18{fill:none;stroke:#161233;stroke-width:1.2926;stroke-linecap:round;stroke-linejoin:round;stroke-miterlimit:10;}
	.st19{fill:none;stroke:#161233;stroke-width:4;stroke-linecap:round;stroke-linejoin:round;stroke-miterlimit:10;}
	.st20{fill:none;stroke:#161233;stroke-width:0.5715;stroke-linecap:round;stroke-linejoin:round;stroke-miterlimit:10;}
	.st21{fill:#FFFFFF;stroke:#161233;stroke-width:1.7684;stroke-linecap:round;stroke-linejoin:round;stroke-miterlimit:10;}
	.st22{fill:none;stroke:#161233;stroke-width:1.7684;stroke-linecap:round;stroke-linejoin:round;stroke-miterlimit:10;}
	.st23{fill:none;stroke:#161233;stroke-width:0.5148;stroke-linecap:round;stroke-linejoin:round;stroke-miterlimit:10;}
	.st24{fill:#FFFFFF;stroke:#161233;stroke-width:1.5932;stroke-linecap:round;stroke-linejoin:round;stroke-miterlimit:10;}
	.st25{fill:none;stroke:#161233;stroke-width:1.5932;stroke-linecap:round;stroke-linejoin:round;stroke-miterlimit:10;}
	.st26{fill:#FFFFFF;stroke:#161233;stroke-width:4.2124;stroke-linecap:round;stroke-linejoin:round;stroke-miterlimit:10;}
	.st27{fill:none;stroke:#161233;stroke-width:4.2124;stroke-linecap:round;stroke-linejoin:round;stroke-miterlimit:10;}
	.st28{fill:#FFFFFF;stroke:#161233;stroke-width:2.3751;stroke-linecap:round;stroke-linejoin:round;stroke-miterlimit:10;}
	.st29{fill:none;stroke:#161233;stroke-width:2.3751;stroke-linecap:round;stroke-linejoin:round;stroke-miterlimit:10;}
</style>
<g id="Layer_1">
	<g>
		<g>
			<path class="st2" d="M215.75,94.7c-2.24-1.53-3.86-3.33-5.27-5.26c-1.5-1.87-2.81-3.85-4.21-5.77l-4.5-5.53l-4.84-5.23
				c-6.66-6.76-14.18-12.62-22.31-17.38c-8.09-4.81-16.82-8.51-25.87-10.94c-9.05-2.42-18.4-3.6-27.73-3.49
				c-9.33,0.14-18.63,1.54-27.52,4.24c-8.89,2.69-17.39,6.63-25.19,11.62c-7.82,4.97-14.92,11.05-21.09,17.92
				c-6.19,6.86-11.48,14.51-15.67,22.7v-5.78c5.13,9.79,11.62,18.94,19.42,26.92c0.92,1.05,1.98,1.96,2.99,2.93
				c1.02,0.95,2.02,1.92,3.06,2.87l3.23,2.67c1.07,0.9,2.15,1.8,3.3,2.59l3.41,2.46l0.86,0.61l0.89,0.56l1.78,1.11
				c1.2,0.73,2.36,1.52,3.59,2.21l3.72,1.99l1.86,1l1.92,0.87l3.85,1.74c1.28,0.59,2.63,1.02,3.95,1.54
				c1.33,0.47,2.63,1.05,3.99,1.45l4.07,1.21l2.04,0.61l2.08,0.46l4.16,0.93c1.39,0.32,2.81,0.45,4.21,0.68
				c1.41,0.19,2.82,0.46,4.24,0.6l4.27,0.33c2.85,0.28,5.72,0.31,8.59,0.27c2.87-0.05,5.74-0.22,8.61-0.51
				c1.43-0.15,2.86-0.32,4.29-0.53c1.43-0.21,2.87-0.3,4.49,0.22c-1.23,1.17-2.64,1.67-4.07,2c-1.44,0.32-2.88,0.62-4.34,0.89
				c-2.91,0.53-5.84,0.94-8.79,1.23c-2.95,0.28-5.92,0.49-8.89,0.44l-4.46,0.02c-1.49-0.02-2.97-0.18-4.46-0.26
				c-11.89-0.82-23.79-3.54-34.83-8.44l-4.14-1.85c-1.37-0.64-2.68-1.4-4.02-2.09l-2.01-1.07l-1-0.53l-0.97-0.59l-3.87-2.39
				c-1.31-0.77-2.54-1.66-3.77-2.54l-3.71-2.65c-1.19-0.94-2.36-1.91-3.54-2.87c-1.17-0.97-2.39-1.89-3.48-2.96
				c-9-8.19-16.85-17.74-23.06-28.32c-1.08-1.84-1.01-4.06,0-5.78c5.16-8.79,11.34-16.96,18.44-24.21
				c7.11-7.25,15.14-13.56,23.82-18.76c17.37-10.41,37.61-15.86,57.73-15.61c10.05,0.13,20.08,1.65,29.68,4.56
				c9.6,2.89,18.76,7.13,27.16,12.49c8.38,5.4,15.98,11.94,22.61,19.3l4.79,5.67l4.41,5.95l2.01,3.11c0.67,1.04,1.36,2.06,1.94,3.14
				C214.66,89.7,215.52,92.06,215.75,94.7z"/>
		</g>
		<g>
			<path class="st26" d="M159.6,121.45c0,0,14.76,16.97,16.92,28.53l12.7-4.8c0,0-8.1-15.55-13.98-37.07L159.6,121.45z"/>
			<path class="st26" d="M190.2,95.17c0-5.59-3.11-10.51-7.83-13.4c-1.12-5.12-6.08-8.99-12.03-8.99c-0.16,0-0.32,0.02-0.48,0.02
				c-1.46-4.69-6.19-8.13-11.8-8.13c-2.7,0-5.18,0.8-7.21,2.15c-2.17-3.14-6-5.23-10.38-5.23c-3.49,0-6.64,1.34-8.87,3.47
				c-5.34-3.26-11.82-5.18-18.82-5.18c-10.6,0-20.03,4.4-26.07,11.23c-8.61,1.04-15.27,7.77-15.27,15.95c0,1.97,0.41,3.85,1.11,5.6
				c-4.71,1.56-8.08,5.67-8.08,10.51c0,6.18,5.5,11.19,12.28,11.19c1.11,0,2.17-0.15,3.19-0.4c0.93,5.34,5.99,9.42,12.11,9.42
				c2.13,0,4.13-0.5,5.88-1.36c3.12,4.5,8.6,7.5,14.85,7.5c4.81,0,9.16-1.77,12.33-4.63c3.17,2.86,7.53,4.63,12.33,4.63
				c7.07,0,13.15-3.83,15.94-9.34c0.8-0.22-0.78,0.24,0,0c2.3,1.02,7.25,0.92,9.98,0.92c7.93,0,14.63-4.8,16.82-11.41
				C186.1,107.1,190.2,101.58,190.2,95.17z"/>
			<path class="st26" d="M125.11,124.89c0,0,5.98-5.1,5.21-14.08c-0.76-8.98,7.31-9.44,7.31-9.44"/>
			<path class="st26" d="M79.94,113.96c0,0,11.52-2.13,11.86-9.44c0.34-7.31-4.57-5.94-4.57-5.94"/>
			<path class="st26" d="M91.8,104.52c0,0,5.14-5.6,8.56-1.94"/>
			<path class="st26" d="M86.7,71.12c0,0-4.35,8.74-0.82,15.47"/>
			<path class="st26" d="M131.6,65.07c0,0,15.59,8.73,12.74,21.52"/>
			<path class="st26" d="M180.18,109.69c0,0-9.7,2.14-14.5-1.74"/>
			<path class="st26" d="M161.35,75.83c4-3.91,8.51-3.02,8.51-3.02s4.51,10.01-5.54,16.18"/>
			<g>
				<path class="st27" d="M109.34,82.87c0.08-0.95,0.26-1.92,0.77-2.72c0.39-0.61,0.96-1.1,1.58-1.46c2.24-1.31,5.3-1.01,7.25,0.71
					c1.94,1.72,2.62,4.72,1.61,7.1c0.22-0.91,0.49-1.8,0.81-2.68c0.37-1.05,0.85-2.13,1.76-2.77c0.65-0.46,1.45-0.64,2.24-0.69
					c1.94-0.13,3.94,0.49,5.39,1.79c0.97,0.87,1.68,2.05,1.89,3.34c0.21,1.29-0.12,2.68-0.97,3.67"/>
				<path class="st27" d="M93.74,81.94c0.62-1.85,2.23-3.27,4.07-3.89c1.85-0.61,3.9-0.46,5.73,0.19c2.23,0.8,4.18,2.36,5.46,4.35
					c1.28,1.99,1.88,4.41,1.69,6.77"/>
			</g>
			<path class="st27" d="M97.93,122.02c0,0,4.91-2.53,4.3-6.3"/>
			<path class="st27" d="M153.39,120.18c0,0-5.63-3.78-5.06-12.23"/>
		</g>
	</g>
</g>
<g id="Layer_2">
</g>
</svg>
